<svg width="13" height="20" viewBox="0 0 13 20" fill="none" xmlns="http://www.w3.org/2000/svg">
<path d="M11.7002 7.81861C11.5293 7.81865 11.3653 7.75044 11.2432 7.62862C11.1211 7.5068 11.0507 7.34106 11.0471 7.16694C11.0129 5.87056 10.4855 4.63854 9.57638 3.73146C8.66723 2.82438 7.44763 2.31337 6.17555 2.30651H6.164C4.89485 2.31877 3.67975 2.83197 2.77393 3.7383C1.86811 4.64463 1.34207 5.87356 1.30631 7.16694C1.30543 7.25466 1.28737 7.34132 1.2532 7.42183C1.21903 7.50234 1.16942 7.57509 1.1073 7.63579C1.04518 7.69649 0.971783 7.74393 0.891432 7.77532C0.81108 7.80672 0.725386 7.82144 0.63938 7.81861C0.465952 7.81429 0.301285 7.74005 0.18146 7.61217C0.0616363 7.48428 -0.00356616 7.31317 0.000150614 7.13636C0.0477177 5.49708 0.715373 3.94009 1.86338 2.79124C3.0114 1.64238 4.55079 0.990708 6.15939 0.972595H6.17555C7.7888 0.98237 9.33516 1.63108 10.4879 2.78168C11.6407 3.93228 12.3096 5.49465 12.3532 7.13871C12.357 7.31553 12.2918 7.48663 12.1719 7.61451C12.0521 7.7424 11.8874 7.81664 11.714 7.82096L11.7002 7.81861Z" fill="white"/>
<path d="M6.18939 19.4945C6.02247 19.4948 5.86196 19.429 5.7417 19.311C2.25479 15.9585 0.281711 12.1426 0.0370957 8.2797C0.0117111 7.90094 0.00479142 7.51746 0.0117145 7.13634C0.0159306 6.96201 0.0868307 6.79627 0.209285 6.67451C0.331739 6.55275 0.496042 6.48463 0.667097 6.48468H0.67171C0.757571 6.48621 0.842285 6.50504 0.920973 6.5401C0.999661 6.57516 1.07076 6.62574 1.13018 6.68894C1.18961 6.75215 1.23617 6.82671 1.2672 6.90834C1.29822 6.98998 1.31308 7.07706 1.31094 7.16457C1.31094 7.50805 1.31094 7.85389 1.33402 8.19266C1.56478 11.7215 3.38786 15.2245 6.63016 18.3417C6.75591 18.4631 6.82922 18.6304 6.83398 18.8069C6.83874 18.9833 6.77456 19.1545 6.65555 19.2827C6.59602 19.3484 6.52398 19.4011 6.44384 19.4375C6.3637 19.4739 6.27713 19.4933 6.18939 19.4945Z" fill="white"/>
<path d="M6.17785 19.4945C6.04687 19.4943 5.91896 19.454 5.81063 19.379C5.70229 19.3039 5.6185 19.1975 5.57007 19.0734C5.52164 18.9493 5.51078 18.8133 5.53891 18.6829C5.56703 18.5525 5.63285 18.4337 5.72786 18.3417C8.95863 15.2246 10.8048 11.7145 11.024 8.19269C11.0471 7.85156 11.054 7.50573 11.0471 7.1646C11.0453 7.07717 11.0604 6.99023 11.0915 6.90874C11.1226 6.82726 11.1692 6.75282 11.2286 6.68969C11.2879 6.62656 11.3589 6.57596 11.4375 6.54079C11.516 6.50562 11.6006 6.48656 11.6863 6.48471C11.7721 6.48285 11.8574 6.49824 11.9373 6.52998C12.0172 6.56173 12.0902 6.60922 12.1522 6.66973C12.2141 6.73024 12.2637 6.80259 12.2982 6.88266C12.3327 6.96273 12.3514 7.04894 12.3532 7.13637C12.3532 7.51514 12.3532 7.89861 12.3302 8.27973C12.0832 12.1427 10.1125 15.9586 6.62555 19.311C6.50489 19.4284 6.34464 19.4941 6.17785 19.4945Z" fill="white"/>
<path d="M6.17784 8.78395C6.96549 8.78395 7.604 8.13284 7.604 7.32966C7.604 6.52647 6.96549 5.87537 6.17784 5.87537C5.39019 5.87537 4.75168 6.52647 4.75168 7.32966C4.75168 8.13284 5.39019 8.78395 6.17784 8.78395Z" fill="white"/>
</svg>
