<svg width="18" height="14" viewBox="0 0 18 14" fill="none" xmlns="http://www.w3.org/2000/svg">
<path d="M17.25 6.30009H2.28787L8.01713 1.20696C8.31713 0.940259 8.32875 0.497165 8.043 0.217168C7.75763 -0.0624786 7.28288 -0.0736785 6.9825 0.193018L0.4395 6.00995C0.156375 6.27454 0 6.62594 0 7.00009C0 7.37388 0.156375 7.72563 0.452625 8.00177L6.98287 13.8068C7.128 13.936 7.314 14 7.5 14C7.698 14 7.896 13.9272 8.04338 13.7827C8.32912 13.5027 8.3175 13.0599 8.0175 12.7932L2.26425 7.70008H17.25C17.664 7.70008 18 7.38648 18 7.00009C18 6.61369 17.664 6.30009 17.25 6.30009Z" fill="black"/>
</svg>
