<svg width="20" height="18" viewBox="0 0 20 18" fill="none" xmlns="http://www.w3.org/2000/svg">
<path fill-rule="evenodd" clip-rule="evenodd" d="M0.470136 17.0908C0.221241 16.8419 0.11062 16.5101 0.0553101 15.9293C0 15.4592 0 14.7955 0 13.8275V6.66487C0 4.56309 0 3.87171 0.470136 3.40157C0.719032 3.15268 1.05089 3.0144 1.74227 2.95909C2.32303 2.93144 3.18033 2.93144 4.56309 2.93144H5.86288C5.86288 2.01882 5.9735 1.16151 6.60956 0.608412C6.96908 0.304206 7.46687 0.138275 8.07528 0.0553101C8.60073 0 9.18148 0 9.76224 0C10.9791 0 12.2235 0 12.9149 0.608412C13.551 1.16151 13.634 2.01882 13.6616 2.93144H14.9614C17.8928 2.93144 18.5842 2.93144 19.0543 3.40157C19.3032 3.65047 19.4139 3.98233 19.4692 4.56309C19.5245 5.03322 19.5245 5.69694 19.5245 6.66487V13.8275C19.5245 15.9293 19.5245 16.6207 19.0543 17.0908C18.8054 17.3397 18.4736 17.478 17.7822 17.5333C17.2015 17.561 16.3441 17.561 14.9614 17.561H4.56309C1.63165 17.561 0.940272 17.561 0.470136 17.0908ZM8.79431 11.6981V12.9149L9.76224 13.551L10.7302 12.9149V11.6981H8.79431ZM7.79873 13.1638V11.228C7.79873 10.9514 8.01997 10.7302 8.29652 10.7302H11.228C11.5045 10.7302 11.6981 10.9514 11.6981 11.228V13.1638C11.6981 13.3297 11.6428 13.4957 11.5045 13.5786L10.0388 14.5466C9.87286 14.6572 9.65162 14.6572 9.48569 14.5466L8.01997 13.5786C7.90935 13.4957 7.79873 13.3574 7.79873 13.1638ZM6.8308 2.93144H12.6937C12.666 2.24006 12.6107 1.63165 12.2789 1.3551C11.864 0.967927 10.8131 0.967927 9.76224 0.967927C9.20914 0.967927 8.65604 0.967927 8.1859 1.02324C7.77108 1.07855 7.43921 1.18917 7.21797 1.3551C6.91377 1.63165 6.85846 2.24006 6.8308 2.93144ZM0.967928 7.10735C1.24448 7.3839 1.52103 7.6328 1.85289 7.85404C2.24006 8.10294 2.73785 8.32418 3.42923 8.46245C4.17592 8.62838 5.14384 8.71135 6.22239 8.739C7.27328 8.79431 8.51776 8.79431 9.76224 8.79431C12.1682 8.79431 14.6019 8.79431 16.0953 8.46245C16.7866 8.32418 17.2844 8.10294 17.6716 7.85404C18.0035 7.6328 18.28 7.3839 18.5289 7.10735V6.66487C18.5289 5.69694 18.5289 5.03322 18.5012 4.64605C18.4736 4.31419 18.4183 4.17592 18.363 4.09295C18.1694 3.89936 17.561 3.89936 14.9614 3.89936H4.56309C3.18033 3.89936 2.32303 3.89936 1.79758 3.95468C1.38275 3.98233 1.24448 4.00999 1.16151 4.09295C0.967928 4.25888 0.967928 4.86729 0.967928 6.66487V7.10735ZM18.5289 8.4348C18.4459 8.51776 18.3353 8.57307 18.197 8.65604C17.7269 8.9879 17.1185 9.23679 16.2888 9.43038C14.6848 9.76224 12.2235 9.76224 9.76224 9.76224C8.54542 9.76224 7.35625 9.76224 6.19474 9.70693C5.06088 9.67927 4.03764 9.59631 3.23564 9.43038C2.40599 9.23679 1.79758 8.9879 1.29979 8.65604C1.18917 8.57307 1.07855 8.51776 0.967928 8.4348V13.8275C0.967928 14.7955 0.967928 15.4592 1.02324 15.8464C1.05089 16.1782 1.07855 16.3441 1.16151 16.3995C1.3551 16.593 1.96351 16.593 4.56309 16.593H14.9614C16.3441 16.593 17.2015 16.593 17.6992 16.5377C18.1141 16.5101 18.28 16.4824 18.363 16.3995C18.5289 16.2335 18.5289 15.6251 18.5289 13.8275V8.4348Z" fill="#757575"/>
</svg>
