<svg width="24" height="23" viewBox="0 0 24 23" fill="none" xmlns="http://www.w3.org/2000/svg">
<path d="M15 9H13.5V10.5H15V9ZM10.5 18H9V19.5H10.5V18ZM6 9H4.5V10.5H6V9ZM10.5 9H9V10.5H10.5V9ZM15 12H13.5V13.5H15V12ZM19.5 12H18V13.5H19.5V12ZM6 12H4.5V13.5H6V12ZM10.5 12H9V13.5H10.5V12ZM15 15H13.5V16.5H15V15ZM19.5 15H18V16.5H19.5V15ZM6 15H4.5V16.5H6V15ZM10.5 15H9V16.5H10.5V15ZM15 18H13.5V19.5H15V18ZM19.5 18H18V19.5H19.5V18ZM0 1.5V22.5H24V1.5H19.5V0H18V1.5H6V0H4.5V1.5H0ZM22.5 3V6H1.5V3H4.5V4.5H6V3H18V4.5H19.5V3H22.5ZM1.5 21V7.5H22.5V21H1.5Z" fill="#E39E32"/>
</svg>
