<svg width="20" height="20" viewBox="0 0 20 20" fill="none" xmlns="http://www.w3.org/2000/svg">
<path fill-rule="evenodd" clip-rule="evenodd" d="M2.4066 2.40124C1.71522 2.98199 1.35571 3.86695 1.16212 4.89019C0.968538 5.96874 0.968538 7.26853 0.968538 8.54066C0.968538 11.0296 0.968538 13.5186 2.4066 14.6524C3.15329 15.2608 4.28715 15.5374 5.61459 15.7033C6.96969 15.8693 8.54603 15.8693 10.0947 15.8693C11.1456 15.8693 12.1688 15.8693 13.1091 15.8139C13.2474 15.8139 13.3857 15.8693 13.4686 15.9522L15.6257 18.0817V15.8416C15.6257 15.5927 15.764 15.3991 15.9852 15.3715C16.2341 15.2885 16.4554 15.1779 16.6766 15.0673C16.8702 14.9566 17.0638 14.8184 17.2297 14.6801C17.8658 14.127 18.1976 13.242 18.3636 12.1911C18.5295 11.1126 18.5295 9.81279 18.5295 8.54066C18.5295 6.05171 18.5295 3.56275 17.2297 2.40124C16.5937 1.82048 15.5981 1.54393 14.3812 1.378C13.1091 1.21207 11.6157 1.21207 10.0947 1.21207C7.08031 1.21207 3.89998 1.21207 2.4066 2.40124ZM4.39777 10.9743C4.12122 10.9743 3.89998 10.7531 3.89998 10.4765C3.89998 10.2276 4.12122 10.0064 4.39777 10.0064H15.1279C15.4045 10.0064 15.6257 10.2276 15.6257 10.4765C15.6257 10.7531 15.4045 10.9743 15.1279 10.9743H4.39777ZM4.39777 8.04287C4.12122 8.04287 3.89998 7.82163 3.89998 7.57273C3.89998 7.29618 4.12122 7.07494 4.39777 7.07494H15.1279C15.4045 7.07494 15.6257 7.29618 15.6257 7.57273C15.6257 7.82163 15.4045 8.04287 15.1279 8.04287H4.39777ZM4.39777 5.11143C4.12122 5.11143 3.89998 4.91785 3.89998 4.6413C3.89998 4.36475 4.12122 4.14351 4.39777 4.14351H15.1279C15.4045 4.14351 15.6257 4.36475 15.6257 4.6413C15.6257 4.91785 15.4045 5.11143 15.1279 5.11143H4.39777ZM0.221851 4.72426C0.443092 3.47978 0.885573 2.40124 1.82585 1.65455C3.56811 0.244141 6.91438 0.244141 10.0947 0.244141C11.6434 0.244141 13.1644 0.244141 14.4919 0.410071C15.8746 0.576001 17.0638 0.935517 17.8934 1.6822C19.5251 3.12027 19.5251 5.83046 19.5251 8.54066C19.5251 9.8681 19.5251 11.1679 19.3315 12.3571C19.1379 13.6015 18.7231 14.6801 17.8934 15.3991C17.6722 15.5927 17.4233 15.7863 17.1191 15.9246C16.9532 16.0075 16.7872 16.0905 16.5937 16.1735V19.2708C16.5937 19.4091 16.5383 19.5197 16.4554 19.6027C16.2618 19.7963 15.9576 19.7963 15.764 19.6027L12.9432 16.7819C12.0029 16.8372 11.0626 16.8372 10.0947 16.8372C8.51837 16.8372 6.94203 16.8372 5.50397 16.6713C4.0106 16.5053 2.71081 16.1458 1.82585 15.4268C0.000610352 13.9611 0.000610352 11.2509 0.000610352 8.54066C0.000610352 7.21322 0.000610352 5.88578 0.221851 4.72426Z" fill="#333333"/>
</svg>
