<svg width="13" height="13" viewBox="0 0 13 13" fill="none" xmlns="http://www.w3.org/2000/svg">
<path d="M4.91933 13C5.24376 13 5.50029 12.8555 5.68137 12.574L12.8114 1.25512C12.9472 1.03452 13 0.867174 13 0.692218C13 0.273844 12.7284 0 12.3134 0C12.0116 0 11.8456 0.0988882 11.6645 0.387946L4.88915 11.2733L1.37319 6.63312C1.18456 6.36688 0.995937 6.26039 0.724318 6.26039C0.294254 6.26039 0 6.55705 0 6.97542C0 7.15038 0.0754498 7.34816 0.218804 7.53072L4.13465 12.5588C4.361 12.8555 4.59489 13 4.91933 13Z" fill="#5EB848"/>
</svg>
