<svg width="14" height="13" viewBox="0 0 14 13" fill="none" xmlns="http://www.w3.org/2000/svg">
<path d="M1.19531 11.375C0.929688 11.6406 0.921875 12.0938 1.19531 12.3594C1.46875 12.625 1.92188 12.625 2.1875 12.3594L7.1875 7.35938L12.1875 12.3594C12.4531 12.625 12.9141 12.6328 13.1797 12.3594C13.4453 12.0859 13.4453 11.6406 13.1797 11.375L8.17969 6.36719L13.1797 1.36719C13.4453 1.10156 13.4531 0.648438 13.1797 0.382812C12.9062 0.109375 12.4531 0.109375 12.1875 0.382812L7.1875 5.38281L2.1875 0.382812C1.92188 0.109375 1.46094 0.101562 1.19531 0.382812C0.929688 0.65625 0.929688 1.10156 1.19531 1.36719L6.19531 6.36719L1.19531 11.375Z" fill="#333333"/>
</svg>
