<svg width="20" height="20" viewBox="0 0 20 20" fill="none" xmlns="http://www.w3.org/2000/svg">
<path d="M4.53543 12.7655C4.34185 12.572 4.34185 12.2678 4.53543 12.0742C4.72902 11.8806 5.03323 11.8806 5.22681 12.0742L9.26446 16.1395V0.735584C9.26446 0.459034 9.4857 0.237793 9.76225 0.237793C10.0388 0.237793 10.26 0.459034 10.26 0.735584V16.1395L14.2977 12.0742C14.4913 11.8806 14.7955 11.8806 14.9891 12.0742C15.1826 12.2678 15.1826 12.572 14.9891 12.7655L10.0665 17.6882H10.0388V17.7158H10.0111V17.7435H9.95583V17.7711H9.87287V17.7988H9.65163V17.7711H9.56866V17.7435H9.51335V17.7158H9.45804V17.6882H9.43039V17.6605H9.40273V17.6328L4.53543 12.7655ZM0.497792 19.7623C0.221241 19.7623 0 19.541 0 19.2645C0 18.9879 0.221241 18.7667 0.497792 18.7667H19.0267C19.3033 18.7667 19.5245 18.9879 19.5245 19.2645C19.5245 19.541 19.3033 19.7623 19.0267 19.7623H0.497792Z" fill="white"/>
</svg>
