<svg width="20" height="20" viewBox="0 0 20 20" fill="none" xmlns="http://www.w3.org/2000/svg">
<path d="M4.53543 12.5278C4.34185 12.3342 4.34185 12.03 4.53543 11.8364C4.72902 11.6428 5.03323 11.6428 5.22681 11.8364L9.26446 15.9017V0.497792C9.26446 0.221241 9.4857 0 9.76225 0C10.0388 0 10.26 0.221241 10.26 0.497792V15.9017L14.2977 11.8364C14.4913 11.6428 14.7955 11.6428 14.9891 11.8364C15.1826 12.03 15.1826 12.3342 14.9891 12.5278L10.0665 17.4504H10.0388V17.478H10.0111V17.5057H9.95583V17.5333H9.87287V17.561H9.65163V17.5333H9.56866V17.5057H9.51335V17.478H9.45804V17.4504H9.43039V17.4227H9.40273V17.395L4.53543 12.5278ZM0.497792 19.5245C0.221241 19.5245 0 19.3032 0 19.0267C0 18.7501 0.221241 18.5289 0.497792 18.5289H19.0267C19.3033 18.5289 19.5245 18.7501 19.5245 19.0267C19.5245 19.3032 19.3033 19.5245 19.0267 19.5245H0.497792Z" fill="#333333"/>
</svg>
