<svg width="20" height="20" viewBox="0 0 20 20" fill="none" xmlns="http://www.w3.org/2000/svg">
<path fill-rule="evenodd" clip-rule="evenodd" d="M9.76224 0C12.4724 0 14.9061 1.1062 16.676 2.87613C18.4183 4.6184 19.5245 7.0797 19.5245 9.76224C19.5245 12.4448 18.4183 14.9061 16.676 16.676C14.9061 18.4183 12.4724 19.5245 9.76224 19.5245C7.0797 19.5245 4.64605 18.4183 2.87613 16.676C1.1062 14.9061 0 12.4448 0 9.76224C0 7.0797 1.1062 4.6184 2.87613 2.87613C4.64605 1.1062 7.0797 0 9.76224 0ZM9.76224 1.96351C11.4492 1.96351 12.9979 2.48896 14.27 3.37392C15.5698 4.31419 16.5654 5.61398 17.1185 7.16266C17.2015 7.41156 17.0908 7.68811 16.8143 7.77108C16.7313 7.79873 16.6207 7.79873 16.5377 7.77108C14.27 7.30094 12.0023 6.8308 9.76224 6.8308C8.62838 6.8308 7.52218 6.94142 6.38832 7.13501C5.28212 7.30094 4.12061 7.54983 2.95909 7.79873C2.7102 7.85404 2.4613 7.66046 2.40599 7.41156C2.37834 7.32859 2.37834 7.21797 2.40599 7.16266C2.95909 5.61398 3.98233 4.31419 5.28212 3.37392C6.55425 2.48896 8.10294 1.96351 9.76224 1.96351ZM13.6893 4.17592C12.5831 3.40157 11.228 2.93144 9.76224 2.93144C8.29652 2.93144 6.94142 3.40157 5.83522 4.17592C4.95026 4.81198 4.20357 5.66929 3.67812 6.63722C4.53543 6.47129 5.39274 6.30536 6.25005 6.16708C7.41156 5.9735 8.60073 5.86288 9.76224 5.86288C11.8087 5.86288 13.8275 6.22239 15.8464 6.63722C15.3486 5.66929 14.6019 4.81198 13.6893 4.17592ZM17.561 9.23679V9.76224C17.561 10.3983 17.5057 11.0344 17.3397 11.6428C17.2015 12.2512 16.9526 12.832 16.676 13.3851C16.5654 13.6063 16.3165 13.7169 16.0953 13.634C15.5975 13.468 15.072 13.3021 14.6295 13.0808C14.1317 12.832 13.7169 12.5277 13.4957 12.1129C13.2744 11.6704 13.2744 11.1173 13.4404 10.6195C13.5786 10.1494 13.9105 9.67928 14.3253 9.37507L14.353 9.34741C14.7402 9.09852 15.1826 8.93259 15.6528 8.87728C16.0953 8.79431 16.5654 8.79431 17.0632 8.79431C17.3121 8.79431 17.5333 8.9879 17.561 9.23679ZM16.3995 11.3939C16.5377 10.8961 16.593 10.343 16.593 9.76224C16.3165 9.7899 16.0399 9.7899 15.791 9.84521C15.4592 9.87286 15.155 9.98348 14.9061 10.1494C14.6295 10.343 14.4636 10.6195 14.353 10.9238C14.27 11.2003 14.27 11.4492 14.3806 11.6704C14.4913 11.864 14.7402 12.0576 15.072 12.1959C15.3209 12.3342 15.6528 12.4724 15.9846 12.5831C16.1506 12.1959 16.2888 11.8087 16.3995 11.3939ZM15.072 15.4868C14.3806 16.1506 13.551 16.676 12.6107 17.0355C11.7258 17.3674 10.7855 17.561 9.76224 17.561C8.76666 17.561 7.79873 17.3674 6.91377 17.0355C6.00115 16.676 5.1715 16.1506 4.45247 15.4868C4.25888 15.2933 4.25888 14.989 4.42481 14.7955C4.50778 14.7125 4.59074 14.6572 4.67371 14.6572C5.25446 14.4636 5.86288 14.2977 6.2777 14.1871C6.80315 14.0488 7.30094 13.9105 7.71576 13.8275H7.74342C8.62838 13.6616 9.18148 13.6616 9.76224 13.6616C10.343 13.6616 10.9238 13.6616 11.8087 13.8275C12.2512 13.9105 12.7213 14.0488 13.2468 14.1871C13.6893 14.2977 14.2977 14.4913 14.8784 14.6572C15.155 14.7402 15.2933 14.989 15.2103 15.2656C15.1826 15.3486 15.155 15.4315 15.072 15.4868ZM12.2789 16.1229C12.7766 15.9293 13.2744 15.6528 13.7169 15.3209L12.9979 15.1273C12.5001 14.989 12.03 14.8784 11.6151 14.7955C10.8408 14.6295 10.3153 14.6295 9.76224 14.6295C9.23679 14.6295 8.71135 14.6295 7.93701 14.7955H7.90935C7.52218 14.8784 7.05204 14.989 6.5266 15.1273L5.80757 15.3209C6.25005 15.6528 6.74784 15.9293 7.27328 16.1229C8.04763 16.4271 8.87728 16.593 9.76224 16.593C10.6472 16.593 11.5045 16.4271 12.2789 16.1229ZM2.84847 13.3851C2.57192 12.832 2.35068 12.2512 2.18475 11.6428C2.04648 11.0344 1.96351 10.3983 1.96351 9.76224V9.51334L1.99117 9.23679C1.99117 8.9879 2.24006 8.76666 2.48896 8.79431C2.98675 8.79431 3.45688 8.79431 3.89937 8.87728C4.3695 8.93259 4.83964 9.09852 5.22681 9.37507C5.64163 9.67928 5.94584 10.1494 6.11177 10.6195C6.25005 11.1173 6.25005 11.6704 6.02881 12.1129C5.80757 12.5277 5.39274 12.832 4.89495 13.0808C4.45247 13.3021 3.95468 13.468 3.42923 13.634C3.20799 13.7169 2.95909 13.6063 2.84847 13.3851ZM3.12502 11.3939C3.23564 11.8087 3.37392 12.1959 3.53985 12.5831C3.87171 12.4724 4.20357 12.3342 4.48012 12.1959C4.81198 12.0576 5.06088 11.864 5.1715 11.6704C5.25446 11.4492 5.25446 11.2003 5.1715 10.9238C5.08853 10.6195 4.89495 10.343 4.64605 10.1494C4.39716 9.98348 4.09295 9.90052 3.73343 9.84521C3.48454 9.7899 3.20799 9.7899 2.93144 9.76224C2.93144 10.343 3.0144 10.8961 3.12502 11.3939ZM9.76224 10.7302C10.0388 10.7302 10.2877 10.6195 10.4536 10.4536C10.6472 10.2877 10.7302 10.0388 10.7302 9.76224C10.7302 9.48569 10.6472 9.26445 10.4536 9.07086L10.426 9.04321C10.26 8.87728 10.0388 8.79431 9.76224 8.79431C9.48569 8.79431 9.26445 8.90493 9.07086 9.07086C8.90493 9.26445 8.79431 9.48569 8.79431 9.76224C8.79431 10.0388 8.90493 10.2877 9.07086 10.4536C9.26445 10.6195 9.48569 10.7302 9.76224 10.7302ZM11.145 11.145C10.7855 11.5045 10.3153 11.7258 9.76224 11.7258C9.23679 11.7258 8.739 11.5045 8.37949 11.145C8.04763 10.7855 7.82639 10.3153 7.82639 9.76224C7.82639 9.23679 8.04763 8.739 8.37949 8.37949C8.739 8.01997 9.23679 7.82639 9.76224 7.82639C10.2877 7.82639 10.7578 8.01997 11.1173 8.35183L11.145 8.37949C11.5045 8.739 11.7258 9.23679 11.7258 9.76224C11.7258 10.2877 11.5045 10.7855 11.145 11.145ZM15.9846 3.5675C14.3806 1.96351 12.1959 0.995583 9.76224 0.995583C7.35625 0.995583 5.14384 1.96351 3.5675 3.5675C1.96351 5.14384 0.995583 7.32859 0.995583 9.76224C0.995583 12.1959 1.96351 14.3806 3.5675 15.9846C5.14384 17.561 7.35625 18.5566 9.76224 18.5566C12.1959 18.5566 14.3806 17.561 15.9846 15.9846C17.561 14.3806 18.5566 12.1959 18.5566 9.76224C18.5566 7.32859 17.561 5.14384 15.9846 3.5675Z" fill="white"/>
</svg>
