<svg width="11" height="6" viewBox="0 0 11 6" fill="none" xmlns="http://www.w3.org/2000/svg">
<path d="M5.0918 5.73047C5.23828 5.73047 5.38477 5.67188 5.48438 5.56055L10.0195 0.914062C10.1191 0.814453 10.1777 0.685547 10.1777 0.539062C10.1777 0.234375 9.94922 0 9.64453 0C9.49805 0 9.36328 0.0585938 9.26367 0.152344L5.0918 4.41797L0.914062 0.152344C0.820312 0.0585938 0.685547 0 0.533203 0C0.228516 0 0 0.234375 0 0.539062C0 0.685547 0.0585938 0.814453 0.158203 0.919922L4.69336 5.56055C4.80469 5.67188 4.93945 5.73047 5.0918 5.73047Z" fill="white"/>
</svg>
