<svg width="32" height="32" viewBox="0 0 32 32" fill="none" xmlns="http://www.w3.org/2000/svg">
<path d="M16 32C24.8366 32 32 24.8366 32 16C32 7.16344 24.8366 0 16 0C7.16344 0 0 7.16344 0 16C0 24.8366 7.16344 32 16 32Z" fill="#3C5A9A"/>
<path d="M21.1538 4.9231H17.6426C15.5589 4.9231 13.2413 5.80679 13.2413 8.85243C13.2515 9.91365 13.2413 10.93 13.2413 12.0738H10.8307V15.9418H13.3159V27.0769H17.8824V15.8683H20.8965L21.1692 12.0629H17.8037C17.8037 12.0629 17.8113 10.3702 17.8037 9.87859C17.8037 8.67502 19.0457 8.74394 19.1204 8.74394C19.7114 8.74394 20.8605 8.74568 21.1555 8.74394V4.9231H21.1538Z" fill="white"/>
</svg>
