<svg width="20" height="20" viewBox="0 0 20 20" fill="none" xmlns="http://www.w3.org/2000/svg">
<path fill-rule="evenodd" clip-rule="evenodd" d="M9.76224 0C12.4448 0 14.9061 1.1062 16.6484 2.84847C18.4183 4.6184 19.5245 7.05204 19.5245 9.76224C19.5245 12.4448 18.4183 14.9061 16.6484 16.6484C14.9061 18.4183 12.4448 19.5245 9.76224 19.5245C7.05204 19.5245 4.6184 18.4183 2.84847 16.6484C1.1062 14.9061 0 12.4448 0 9.76224C0 7.05204 1.1062 4.6184 2.84847 2.84847C4.6184 1.1062 7.05204 0 9.76224 0ZM9.70693 3.89937C10.26 3.89937 10.7302 4.12061 11.0897 4.48012C11.4492 4.83964 11.6704 5.30977 11.6704 5.86288C11.6704 6.38832 11.4492 6.88611 11.0897 7.24563L11.062 7.27328C10.7025 7.60514 10.2324 7.79873 9.70693 7.79873C9.18148 7.79873 8.68369 7.57749 8.32418 7.24563L8.29652 7.21797C7.96466 6.85846 7.77108 6.38832 7.77108 5.86288C7.77108 5.30977 7.99232 4.83964 8.32418 4.48012C8.68369 4.12061 9.18148 3.89937 9.70693 3.89937ZM10.3983 5.1715C10.2324 4.97791 9.98348 4.89495 9.70693 4.89495C9.45803 4.89495 9.20914 5.00557 9.01555 5.1715C8.84962 5.33743 8.739 5.58632 8.739 5.86288C8.739 6.11177 8.84962 6.36067 9.01555 6.5266V6.55425C9.20914 6.72018 9.45803 6.8308 9.70693 6.8308C9.98348 6.8308 10.2047 6.72018 10.3983 6.58191V6.55425C10.5919 6.36067 10.7025 6.13943 10.7025 5.86288C10.7025 5.58632 10.5919 5.33743 10.3983 5.1715ZM11.3109 13.7999C11.5045 13.6063 11.8364 13.6063 12.0023 13.7999C12.1959 13.9935 12.1959 14.2977 12.0023 14.4913C11.6428 14.8784 11.2556 15.2379 10.4813 15.4315C10.0664 15.5422 9.48569 15.5975 9.01555 15.4592C8.57307 15.3486 8.21356 15.0997 8.04763 14.6572C7.8817 14.2147 7.93701 13.634 8.10294 12.9979C8.26887 12.4448 8.49011 11.864 8.71135 11.3662C8.96024 10.7302 9.20914 10.2324 9.43038 9.76224H8.24121C7.99232 9.76224 7.77108 9.541 7.77108 9.26445C7.77108 9.01555 7.99232 8.79431 8.24121 8.79431H10.2047C10.2877 8.79431 10.343 8.79431 10.426 8.84962C10.6749 8.96024 10.7578 9.23679 10.6472 9.48569C10.3153 10.1218 10.0111 10.7578 9.59631 11.7258C9.40272 12.1959 9.18148 12.749 9.04321 13.2468C8.93259 13.6893 8.87728 14.1041 8.96024 14.2977C8.9879 14.4083 9.12617 14.4913 9.26445 14.5189C9.56866 14.6019 9.95583 14.5742 10.26 14.4913C10.7578 14.353 11.0344 14.0764 11.3109 13.7999ZM15.957 3.53985C14.3806 1.96351 12.1959 0.967928 9.76224 0.967928C7.32859 0.967928 5.14384 1.96351 3.53985 3.53985C1.96351 5.14384 0.967928 7.32859 0.967928 9.76224C0.967928 12.1959 1.96351 14.3806 3.53985 15.957C5.14384 17.561 7.32859 18.5289 9.76224 18.5289C12.1959 18.5289 14.3806 17.561 15.957 15.957C17.561 14.3806 18.5289 12.1959 18.5289 9.76224C18.5289 7.32859 17.561 5.14384 15.957 3.53985Z" fill="#757575"/>
</svg>
