<svg width="32" height="32" viewBox="0 0 32 32" fill="none" xmlns="http://www.w3.org/2000/svg">
<path d="M8.11436 31.8868C6.21131 31.8003 5.17752 31.4836 4.48991 31.2154C3.5788 30.8606 2.92924 30.4384 2.24543 29.7555C1.56163 29.0727 1.13841 28.4231 0.785568 27.512C0.517371 26.8244 0.200672 25.7906 0.114126 23.8875C0.019021 21.8304 0 21.2132 0 16.0014C0 10.7897 0.0209231 10.1734 0.113175 8.11436C0.199721 6.21131 0.518323 5.17942 0.784617 4.48991C1.13936 3.5788 1.56258 2.92924 2.24448 2.24448C2.92733 1.56163 3.5769 1.13746 4.48896 0.784617C5.17657 0.51642 6.21036 0.199721 8.11341 0.113175C10.1715 0.019021 10.7897 0 15.9995 0C21.2113 0 21.8276 0.0209231 23.8866 0.113175C25.7896 0.199721 26.8215 0.518323 27.511 0.784617C28.4221 1.13746 29.0717 1.56163 29.7555 2.24448C30.4393 2.92733 30.8606 3.57785 31.2154 4.48896C31.4836 5.17657 31.8003 6.21036 31.8868 8.11341C31.981 10.1724 32 10.7887 32 16.0005C32 21.2103 31.981 21.8285 31.8868 23.8875C31.8003 25.7906 31.4817 26.8244 31.2154 27.512C30.8606 28.4231 30.4384 29.0727 29.7555 29.7555C29.0727 30.4384 28.4221 30.8606 27.511 31.2154C26.8234 31.4836 25.7896 31.8003 23.8866 31.8868C21.8295 31.981 21.2113 32 15.9995 32C10.7897 32 10.1715 31.9819 8.11436 31.8868Z" fill="url(#paint0_radial)"/>
<path d="M8.11436 31.8868C6.21131 31.8003 5.17752 31.4836 4.48991 31.2154C3.5788 30.8606 2.92924 30.4384 2.24543 29.7555C1.56163 29.0727 1.13841 28.4231 0.785568 27.512C0.517371 26.8244 0.200672 25.7906 0.114126 23.8875C0.019021 21.8304 0 21.2132 0 16.0014C0 10.7897 0.0209231 10.1734 0.113175 8.11436C0.199721 6.21131 0.518323 5.17942 0.784617 4.48991C1.13936 3.5788 1.56258 2.92924 2.24448 2.24448C2.92733 1.56163 3.5769 1.13746 4.48896 0.784617C5.17657 0.51642 6.21036 0.199721 8.11341 0.113175C10.1715 0.019021 10.7897 0 15.9995 0C21.2113 0 21.8276 0.0209231 23.8866 0.113175C25.7896 0.199721 26.8215 0.518323 27.511 0.784617C28.4221 1.13746 29.0717 1.56163 29.7555 2.24448C30.4393 2.92733 30.8606 3.57785 31.2154 4.48896C31.4836 5.17657 31.8003 6.21036 31.8868 8.11341C31.981 10.1724 32 10.7887 32 16.0005C32 21.2103 31.981 21.8285 31.8868 23.8875C31.8003 25.7906 31.4817 26.8244 31.2154 27.512C30.8606 28.4231 30.4384 29.0727 29.7555 29.7555C29.0727 30.4384 28.4221 30.8606 27.511 31.2154C26.8234 31.4836 25.7896 31.8003 23.8866 31.8868C21.8295 31.981 21.2113 32 15.9995 32C10.7897 32 10.1715 31.9819 8.11436 31.8868Z" fill="url(#paint1_radial)"/>
<path d="M12.0163 15.9999C12.0163 13.7993 13.7998 12.0149 16.0005 12.0149C18.2012 12.0149 19.9857 13.7993 19.9857 15.9999C19.9857 18.2005 18.2012 19.9849 16.0005 19.9849C13.7998 19.9849 12.0163 18.2005 12.0163 15.9999ZM9.86203 15.9999C9.86203 19.3901 12.6102 22.1382 16.0005 22.1382C19.3908 22.1382 22.139 19.3901 22.139 15.9999C22.139 12.6098 19.3908 9.86167 16.0005 9.86167C12.6102 9.86167 9.86212 12.6096 9.86212 15.9999H9.86203ZM20.9476 9.61829C20.9475 9.902 21.0315 10.1794 21.189 10.4153C21.3466 10.6513 21.5705 10.8353 21.8326 10.9439C22.0947 11.0526 22.3831 11.0811 22.6614 11.0259C22.9397 10.9707 23.1954 10.8341 23.3961 10.6336C23.5968 10.4331 23.7335 10.1775 23.789 9.89928C23.8444 9.62104 23.8162 9.3326 23.7077 9.07044C23.5992 8.80828 23.4154 8.58417 23.1796 8.42645C22.9437 8.26874 22.6664 8.18449 22.3827 8.18438H22.3821C22.0018 8.18456 21.6371 8.33567 21.3681 8.60452C21.0992 8.87338 20.9479 9.238 20.9476 9.61829ZM11.1709 25.7303C10.0054 25.6772 9.37189 25.4831 8.9509 25.3191C8.39277 25.1018 7.99454 24.843 7.57585 24.4249C7.15716 24.0068 6.89798 23.609 6.68165 23.0509C6.51754 22.6301 6.3234 21.9964 6.27042 20.831C6.21246 19.5709 6.20089 19.1924 6.20089 16.0001C6.20089 12.8078 6.21342 12.4304 6.27042 11.1693C6.3235 10.0038 6.51907 9.37137 6.68165 8.94934C6.89894 8.39123 7.15773 7.99302 7.57585 7.57434C7.99397 7.15567 8.39182 6.8965 8.9509 6.68018C9.3717 6.51608 10.0054 6.32194 11.1709 6.26896C12.431 6.21101 12.8095 6.19944 16.0005 6.19944C19.1915 6.19944 19.5704 6.21178 20.8316 6.26916C21.9971 6.32223 22.6295 6.5178 23.0516 6.68037C23.6097 6.89669 24.0079 7.15643 24.4266 7.57454C24.8453 7.99264 25.1035 8.39143 25.3208 8.94953C25.4849 9.37032 25.6791 10.004 25.7321 11.1694C25.79 12.4305 25.8016 12.808 25.8016 16.0003C25.8016 19.1926 25.79 19.5701 25.7321 20.8312C25.679 21.9966 25.4839 22.6301 25.3208 23.0511C25.1035 23.6092 24.8447 24.0074 24.4266 24.4251C24.0085 24.8428 23.6097 25.102 23.0516 25.3193C22.6308 25.4834 21.9971 25.6775 20.8316 25.7305C19.5715 25.7885 19.1929 25.8 16.0005 25.8C12.8081 25.8 12.4306 25.7885 11.1709 25.7305V25.7303ZM11.0719 4.11829C9.79929 4.17625 8.92967 4.37803 8.17023 4.67353C7.3842 4.97869 6.7179 5.3881 6.05256 6.05236C5.38722 6.71662 4.97885 7.38298 4.67368 8.16994C4.37816 8.92983 4.17637 9.79894 4.11842 11.0715C4.05951 12.3461 4.04602 12.7536 4.04602 15.9999C4.04602 19.2463 4.05951 19.6537 4.11842 20.9283C4.17637 22.201 4.37816 23.07 4.67368 23.8299C4.97885 24.6159 5.38732 25.2835 6.05256 25.9475C6.7178 26.6115 7.38324 27.0203 8.17023 27.3263C8.93111 27.6218 9.79929 27.8236 11.0719 27.8816C12.3472 27.9395 12.7541 27.9539 16.0005 27.9539C19.247 27.9539 19.6545 27.9405 20.9291 27.8816C22.2018 27.8236 23.0709 27.6218 23.8308 27.3263C24.6168 27.0203 25.2831 26.6117 25.9485 25.9475C26.6138 25.2832 27.0213 24.6159 27.3274 23.8299C27.6229 23.07 27.8256 22.2009 27.8826 20.9283C27.9406 19.6528 27.9541 19.2463 27.9541 15.9999C27.9541 12.7536 27.9406 12.3461 27.8826 11.0715C27.8247 9.79884 27.6229 8.92936 27.3274 8.16994C27.0213 7.38394 26.6128 6.71767 25.9485 6.05236C25.2842 5.38704 24.6168 4.97869 23.8318 4.67353C23.0709 4.37803 22.2018 4.17529 20.9301 4.11829C19.6553 4.06005 19.2479 4.0459 16.002 4.0459C12.756 4.0459 12.3477 4.05938 11.0724 4.11829" fill="white"/>
<defs>
<radialGradient id="paint0_radial" cx="0" cy="0" r="1" gradientUnits="userSpaceOnUse" gradientTransform="translate(2.07101 31.299) scale(40.6281)">
<stop offset="0.09" stop-color="#FA8F21"/>
<stop offset="0.78" stop-color="#D82D7E"/>
</radialGradient>
<radialGradient id="paint1_radial" cx="0" cy="0" r="1" gradientUnits="userSpaceOnUse" gradientTransform="translate(22.1653 30.2715) scale(35.7531)">
<stop offset="0.64" stop-color="#8C3AAA" stop-opacity="0"/>
<stop offset="1" stop-color="#8C3AAA"/>
</radialGradient>
</defs>
</svg>
