<svg width="20" height="21" viewBox="0 0 20 21" fill="none" xmlns="http://www.w3.org/2000/svg">
<path fill-rule="evenodd" clip-rule="evenodd" d="M9.26933 1.49657C9.26933 1.22002 9.49057 0.998779 9.76712 0.998779C10.0437 0.998779 10.2649 1.22002 10.2649 1.49657V4.9258C11.6477 5.06407 12.9198 5.67249 13.8601 6.61276C14.8003 7.58069 15.4364 8.85282 15.547 10.2632H19.0316C19.3081 10.2632 19.5294 10.4845 19.5294 10.761C19.5294 11.0376 19.3081 11.2312 19.0316 11.2312L15.547 11.2588C15.4364 12.6692 14.8003 13.9414 13.8601 14.9093C12.9198 15.8496 11.6477 16.458 10.2649 16.5962V20.0255C10.2649 20.302 10.0437 20.5233 9.76712 20.5233C9.49057 20.5233 9.26933 20.302 9.26933 20.0255V16.5962C7.83127 16.4856 6.53148 15.8496 5.59121 14.9093L5.56355 14.8816C4.62328 13.9137 4.01487 12.6416 3.87659 11.2588H0.502674C0.226123 11.2588 0.00488281 11.0376 0.00488281 10.761C0.00488281 10.4845 0.226123 10.2632 0.502674 10.2632H3.87659C4.01487 8.85282 4.62328 7.58069 5.59121 6.61276C6.55913 5.64483 7.83127 5.03642 9.26933 4.9258V1.49657ZM9.71181 8.76985C10.2649 8.76985 10.7627 8.9911 11.1222 9.35061C11.4817 9.71013 11.703 10.2079 11.703 10.761C11.703 11.3141 11.4817 11.8119 11.1222 12.1714C10.7627 12.5309 10.2649 12.7522 9.71181 12.7522C9.15871 12.7522 8.66092 12.5309 8.3014 12.1714L8.27375 12.1438C7.94189 11.7843 7.72065 11.2865 7.72065 10.761C7.72065 10.2079 7.94189 9.71013 8.3014 9.35061C8.66092 8.9911 9.15871 8.76985 9.71181 8.76985ZM10.4308 10.042C10.2649 9.8484 10.016 9.73778 9.71181 9.73778C9.43526 9.73778 9.18637 9.8484 8.99278 10.042C8.82685 10.2356 8.71623 10.4845 8.71623 10.761C8.71623 11.0376 8.7992 11.2865 8.99278 11.4524V11.4801C9.18637 11.6736 9.43526 11.7843 9.71181 11.7843C10.016 11.7843 10.2649 11.6736 10.4308 11.4801C10.6244 11.2865 10.7351 11.0376 10.7351 10.761C10.7351 10.4845 10.6244 10.2356 10.4308 10.042ZM13.1687 7.30414C12.2837 6.41917 11.0669 5.89373 9.71181 5.89373C8.38437 5.89373 7.16755 6.41917 6.28258 7.30414C5.42528 8.16144 4.89983 9.2953 4.84452 10.5674C4.87218 10.6227 4.87218 10.6781 4.87218 10.761C4.87218 10.8163 4.87218 10.8993 4.84452 10.9546C4.89983 12.1991 5.42528 13.3606 6.25493 14.1902L6.28258 14.2179C7.16755 15.1029 8.38437 15.6283 9.71181 15.6283H9.76712C11.0946 15.6283 12.3114 15.0752 13.1687 14.2179C14.0537 13.3329 14.6068 12.1161 14.6068 10.761C14.6068 9.40592 14.0537 8.1891 13.1687 7.30414Z" fill="#281F16"/>
</svg>
