<svg width="40" height="36" viewBox="0 0 40 36" fill="none" xmlns="http://www.w3.org/2000/svg">
<path d="M29.375 0C27.2045 0 25.2145 0.687812 23.4604 2.04437C21.7787 3.34492 20.6591 5.00141 20 6.20594C19.3409 5.00133 18.2213 3.34492 16.5396 2.04437C14.7855 0.687812 12.7955 0 10.625 0C4.56781 0 0 4.95445 0 11.5245C0 18.6225 5.69867 23.4788 14.3257 30.8306C15.7907 32.0791 17.4513 33.4943 19.1772 35.0036C19.4047 35.2028 19.6969 35.3125 20 35.3125C20.3031 35.3125 20.5953 35.2028 20.8228 35.0037C22.5489 33.4941 24.2094 32.0791 25.6752 30.8298C34.3013 23.4788 40 18.6225 40 11.5245C40 4.95445 35.4322 0 29.375 0Z" fill="#E01738"/>
</svg>
