<svg width="33" height="32" viewBox="0 0 33 32" fill="none" xmlns="http://www.w3.org/2000/svg">
<path d="M30.9583 0.281213C24.4709 -0.718278 10.3108 0.712045 0.367259 8.40179C0.150421 8.56946 -0.0850279 8.89877 0.0303704 9.37816L0.35702 10.527C0.416581 10.7366 0.595032 10.8781 0.798607 10.9056C0.878874 10.9165 0.964025 10.9119 1.04545 10.882C10.9932 7.22054 21.8444 7.77486 27.6813 9.30208C28.5335 9.52501 29.402 8.98271 29.7364 8.17008L32.065 1.97494C32.2965 1.26128 31.8919 0.425055 30.9583 0.281213Z" fill="#5EB848"/>
<path d="M23.4357 26.3071C23.3843 26.3149 23.3329 26.323 23.2794 26.3288V20.4748C23.3329 20.4808 23.3843 20.4886 23.4357 20.4965C25.4273 20.7874 26.608 21.607 26.608 23.3643C26.608 25.1691 25.4273 26.0143 23.4357 26.3071ZM19.8007 26.3288C19.7355 26.3209 19.6702 26.3112 19.6069 26.3013C17.6135 26.0044 16.4446 25.1612 16.4446 23.3643C16.4446 21.8195 17.3582 20.9997 18.9503 20.626C19.1581 20.577 19.3775 20.5356 19.6069 20.5023C19.6702 20.4926 19.7355 20.4826 19.8007 20.4748V26.3288ZM23.2794 16.9916V14.8291H19.8007V16.9916C19.3696 17.0348 18.9564 17.0917 18.5569 17.1664H18.5567L1.172 17.1685V20.626H5.89286V29.6411H9.86991L9.86782 20.626H13.0885C12.6851 21.4146 12.4696 22.3285 12.4696 23.3643C12.4696 27.2175 15.3274 29.368 19.8007 29.8122V31.9999H23.2794V29.8122C27.7273 29.3659 30.9569 27.2175 30.9569 23.3643C30.9569 19.5863 27.7273 17.4358 23.2794 16.9916Z" fill="white"/>
</svg>
