<svg width="136" height="40" viewBox="0 0 136 40" fill="none" xmlns="http://www.w3.org/2000/svg">
<path d="M91.2629 0.443873C81.0854 -1.13373 58.8711 1.12392 43.2713 13.2608C42.9313 13.5253 42.5619 14.045 42.743 14.8017L43.2552 16.615C43.3488 16.9456 43.6287 17.1691 43.948 17.2125C44.0741 17.2296 44.2075 17.2224 44.3353 17.1751C59.9416 11.3965 76.9649 12.2711 86.1221 14.6816C87.459 15.0335 88.8213 14.1776 89.346 12.8947L92.9992 3.11727C93.3624 1.99061 92.7277 0.670795 91.2629 0.443873Z" fill="#5EB848"/>
<path d="M129.754 28.1593V26.4521H127.026V28.1593C123.518 28.5105 121.277 30.2059 121.278 33.1875C121.278 36.2271 123.518 37.9224 127.027 38.2727V39.9998H129.754V38.2727C133.243 37.9224 135.775 36.2271 135.775 33.1866C135.775 30.2059 133.243 28.5105 129.754 28.1593ZM19.1823 29.3595C18.4256 28.5196 17.3711 28.1032 16.1726 28.1032C13.3675 28.1032 11.2123 29.7786 11.2123 33.2083C11.2123 36.657 13.4417 38.3334 16.1726 38.3334C17.3195 38.3334 18.3994 37.8908 19.1823 37.0001V38.1379H22.3006V28.2978H19.1823V29.3595ZM40.5705 30.8304C41.8179 30.8304 42.6171 31.493 42.7339 32.3701H45.8513C45.7146 29.5641 43.2589 28.1023 40.5705 28.1023C37.4332 28.1023 35.192 29.9343 35.192 33.2074C35.192 36.5013 37.4341 38.3325 40.5705 38.3325C43.2598 38.3325 45.7146 36.8715 45.8513 34.0655H42.7339C42.6171 34.9426 41.8179 35.6052 40.5705 35.6052C39.0897 35.6052 38.3094 34.7281 38.3094 33.2074C38.3094 31.7076 39.0897 30.8304 40.5705 30.8304ZM52.6464 28.1023C49.548 28.1023 47.0923 29.7786 47.0923 33.2074C47.0923 36.657 49.548 38.3325 52.6464 38.3325C55.7258 38.3325 58.1815 36.6561 58.1806 33.2074C58.1806 29.7777 55.7258 28.1023 52.6464 28.1023ZM114.493 28.1014C111.394 28.1014 108.939 29.7768 108.939 33.2065C108.939 36.6561 111.394 38.3316 114.493 38.3316C117.571 38.3316 120.027 36.6552 120.027 33.2065C120.027 29.7768 117.571 28.1014 114.493 28.1014ZM0 31.026H3.70214L3.70304 38.1388H6.82044V31.026H10.5226V28.2978H0V31.026ZM31.5424 28.2978L28.9826 31.7465H27.6665V28.2978H24.5491V38.1379H27.6674V34.4547H29.4379L31.5415 38.1379H34.9132L31.7479 32.5702L34.9132 28.2978H31.5424ZM69.2264 33.0988C69.8364 32.6462 70.1514 31.9574 70.1514 31.1111C70.1514 29.4781 68.9901 28.2969 66.8059 28.2969H59.6759V38.1379H67.1988C69.3839 38.1379 70.5452 36.9566 70.5452 35.3228C70.5452 34.3199 70.0727 33.5523 69.2264 33.0988ZM75.424 35.6043V28.2969H72.3057V38.1379L77.4706 38.137L80.7247 30.7327V38.137H83.8421V28.2969H78.6301L75.424 35.6043ZM92.9291 31.5283C92.9291 33.1196 88.8377 33.1069 88.8377 31.5265V28.2969H85.7203V32.2941C85.7203 36.4859 92.6756 35.5337 92.9291 34.8069V38.137H96.0474V28.2969H92.9291V31.5283ZM105.289 28.296L102.729 31.7456H101.413V28.296H98.2958V38.137H101.414V34.4538H103.185L105.288 38.137H108.66L105.495 32.5693L108.66 28.296H105.289ZM66.576 35.6975H62.7788V34.28H66.576C67.0874 34.28 67.4414 34.4964 67.4414 34.9689C67.4414 35.4613 67.0874 35.6975 66.576 35.6975ZM16.7664 35.6052C15.2856 35.6052 14.3297 34.8648 14.3297 33.2083C14.3297 31.5718 15.2856 30.8314 16.7664 30.8314C18.2274 30.8314 19.1823 31.5718 19.1823 33.2083C19.1823 34.8648 18.2274 35.6052 16.7664 35.6052ZM52.6464 35.6043C51.1664 35.6043 50.2106 34.8639 50.2106 33.2074C50.2106 31.5709 51.1664 30.8304 52.6464 30.8304C54.1082 30.8304 55.0632 31.5709 55.0632 33.2074C55.0632 34.8639 54.1082 35.6043 52.6464 35.6043ZM114.493 35.6034C113.012 35.6034 112.056 34.863 112.056 33.2065C112.056 31.57 113.012 30.8295 114.493 30.8295C115.955 30.8295 116.909 31.57 116.909 33.2065C116.909 34.863 115.955 35.6034 114.493 35.6034ZM129.754 35.5256V30.9074C131.392 31.1219 132.365 31.7646 132.365 33.1866C132.365 34.6485 131.392 35.311 129.754 35.5256ZM127.027 35.5256C125.37 35.311 124.395 34.6484 124.395 33.1875C124.395 31.7646 125.37 31.1219 127.026 30.9074L127.027 35.5256ZM62.7788 30.6585H66.261C66.7924 30.6585 67.1264 30.8748 67.1273 31.3672C67.1273 31.8397 66.7924 32.0361 66.261 32.0361H62.7788V30.6585Z" fill="white"/>
</svg>
