<svg width="33" height="32" viewBox="0 0 33 32" fill="none" xmlns="http://www.w3.org/2000/svg">
<path d="M30.9583 0.281213C24.4709 -0.718278 10.3108 0.712045 0.367259 8.40179C0.150421 8.56946 -0.0850279 8.89877 0.0303704 9.37816L0.35702 10.527C0.416581 10.7366 0.595032 10.8781 0.798607 10.9056C0.878874 10.9165 0.964025 10.9119 1.04545 10.882C10.9932 7.22054 21.8444 7.77486 27.6813 9.30208C28.5335 9.52501 29.402 8.98271 29.7364 8.17008L32.065 1.97494C32.2965 1.26128 31.8919 0.425055 30.9583 0.281213Z" fill="#5EB848"/>
<path d="M23.4357 26.3072C23.3843 26.315 23.3329 26.3231 23.2794 26.3289V20.4749C23.3329 20.4809 23.3843 20.4887 23.4357 20.4966C25.4273 20.7875 26.608 21.6071 26.608 23.3644C26.608 25.1691 25.4273 26.0144 23.4357 26.3072ZM19.8007 26.3289C19.7355 26.321 19.6702 26.3113 19.6069 26.3014C17.6135 26.0044 16.4446 25.1613 16.4446 23.3644C16.4446 21.8196 17.3582 20.9998 18.9503 20.6261C19.1581 20.5771 19.3775 20.5357 19.6069 20.5024C19.6702 20.4927 19.7355 20.4827 19.8007 20.4749V26.3289ZM23.2794 16.9917V14.8292H19.8007V16.9917C19.3696 17.0349 18.9564 17.0918 18.5569 17.1665H18.5567L1.172 17.1686V20.6261H5.89286V29.6412H9.86991L9.86782 20.6261H13.0885C12.6851 21.4147 12.4696 22.3286 12.4696 23.3644C12.4696 27.2176 15.3274 29.3681 19.8007 29.8123V32H23.2794V29.8123C27.7273 29.366 30.9569 27.2176 30.9569 23.3644C30.9569 19.5864 27.7273 17.4359 23.2794 16.9917Z" fill="#333333"/>
</svg>
