<svg width="201" height="52" viewBox="0 0 201 52" fill="none" xmlns="http://www.w3.org/2000/svg">
<g clip-path="url(#clip0)">
<path d="M64.3677 49.8648V46.5997C64.3677 46.5724 64.3785 46.5463 64.3978 46.527C64.4172 46.5078 64.4434 46.4969 64.4707 46.4969H64.6694C64.6967 46.4969 64.7229 46.5078 64.7423 46.527C64.7616 46.5463 64.7724 46.5724 64.7724 46.5997V47.216H65.7366C65.7893 47.216 65.8398 47.2369 65.8771 47.274C65.9143 47.3112 65.9353 47.3616 65.9353 47.4141V47.5169C65.9353 47.5429 65.9255 47.5679 65.9078 47.587C65.89 47.6061 65.8656 47.6177 65.8396 47.6196H64.7872V49.8648C64.7891 50.0277 64.8548 50.1833 64.9703 50.2985C65.0859 50.4137 65.242 50.4792 65.4054 50.4811H65.8985C65.9525 50.483 66.0039 50.5052 66.0422 50.5433C66.0804 50.5815 66.1027 50.6327 66.1045 50.6866V50.7893C66.1027 50.8153 66.091 50.8395 66.0719 50.8573C66.0528 50.875 66.0276 50.8848 66.0015 50.8847H65.4054C65.2698 50.8867 65.1352 50.8617 65.0094 50.8113C64.8836 50.7609 64.769 50.6861 64.6725 50.5912C64.5759 50.4963 64.4992 50.3832 64.4469 50.2585C64.3946 50.1338 64.3677 50 64.3677 49.8648Z" fill="white"/>
<path d="M73.2508 48.2359C73.2508 47.9654 73.3586 47.706 73.5504 47.5147C73.7423 47.3235 74.0025 47.216 74.2738 47.216H74.8773C74.9034 47.216 74.9285 47.2258 74.9477 47.2435C74.9668 47.2612 74.9785 47.2854 74.9803 47.3114V47.4141C74.9767 47.4687 74.9528 47.5199 74.9134 47.5579C74.8739 47.5959 74.8217 47.6179 74.7669 47.6196H74.2738C74.1111 47.6215 73.9558 47.6873 73.8414 47.8027C73.7271 47.9181 73.6629 48.0737 73.6629 48.2359V50.7893C73.663 50.8025 73.6603 50.8155 73.655 50.8276C73.6498 50.8397 73.642 50.8505 73.6324 50.8595C73.6227 50.8685 73.6113 50.8753 73.5988 50.8797C73.5863 50.884 73.5731 50.8857 73.5599 50.8847H73.3538C73.3277 50.8848 73.3026 50.875 73.2835 50.8573C73.2643 50.8396 73.2527 50.8153 73.2508 50.7893V48.2359Z" fill="white"/>
<path d="M81.8175 49.8648V49.7034C81.8175 49.5698 81.844 49.4375 81.8955 49.3142C81.947 49.1909 82.0224 49.0789 82.1175 48.9848C82.2126 48.8907 82.3255 48.8162 82.4495 48.7658C82.5736 48.7153 82.7065 48.6899 82.8405 48.6908H84.2756V48.2359C84.2756 48.0725 84.2105 47.9157 84.0945 47.8001C83.9786 47.6845 83.8214 47.6196 83.6574 47.6196H82.5976C82.5703 47.6206 82.543 47.616 82.5175 47.606C82.4921 47.5961 82.4689 47.581 82.4496 47.5617C82.4302 47.5424 82.4151 47.5194 82.4051 47.494C82.3951 47.4686 82.3905 47.4414 82.3915 47.4141V47.3187C82.3915 47.2915 82.4024 47.2654 82.4217 47.2461C82.441 47.2268 82.4672 47.216 82.4946 47.216H83.6574C83.9294 47.216 84.1904 47.3232 84.3834 47.5143C84.5764 47.7054 84.6858 47.9648 84.6878 48.2359V50.6866C84.6878 50.7142 84.6822 50.7415 84.6714 50.767C84.6606 50.7924 84.6447 50.8154 84.6248 50.8345C84.6049 50.8537 84.5813 50.8687 84.5554 50.8786C84.5296 50.8884 84.502 50.893 84.4743 50.892H82.8405C82.5685 50.8901 82.3083 50.781 82.1166 50.5886C81.925 50.3962 81.8175 50.136 81.8175 49.8648ZM82.2222 49.7034V49.8648C82.2242 50.0277 82.2899 50.1833 82.4054 50.2985C82.521 50.4137 82.6771 50.4792 82.8405 50.4811H84.2756V49.065H82.8405C82.7574 49.065 82.6752 49.0816 82.5987 49.114C82.5222 49.1463 82.453 49.1937 82.3953 49.2533C82.3376 49.3129 82.2925 49.3834 82.2628 49.4608C82.2331 49.5381 82.2193 49.6206 82.2222 49.7034Z" fill="white"/>
<path d="M92.1725 49.8648V48.2359C92.1725 47.9654 92.2803 47.706 92.4722 47.5147C92.664 47.3235 92.9242 47.216 93.1955 47.216H94.0125C94.2601 47.2124 94.5007 47.2984 94.6895 47.4581C94.8235 47.5776 94.9248 47.7291 94.9839 47.8984C94.9903 47.9135 94.9926 47.9299 94.9908 47.9462C94.9889 47.9625 94.9829 47.9779 94.9733 47.9912C94.9637 48.0045 94.9508 48.0151 94.9359 48.0219C94.921 48.0288 94.9046 48.0317 94.8882 48.0305H94.6748C94.6528 48.0319 94.6309 48.0262 94.6124 48.0144C94.5938 48.0025 94.5796 47.985 94.5718 47.9644C94.5198 47.8608 94.44 47.7737 94.3412 47.7128C94.2425 47.6519 94.1286 47.6196 94.0125 47.6196H93.1955C93.0328 47.6215 92.8775 47.6873 92.7631 47.8027C92.6488 47.918 92.5847 48.0737 92.5847 48.2359V49.8648C92.5847 50.027 92.6488 50.1827 92.7631 50.298C92.8775 50.4134 93.0328 50.4792 93.1955 50.4811H94.0125C94.1286 50.4811 94.2425 50.4488 94.3412 50.3879C94.44 50.327 94.5198 50.2399 94.5718 50.1363C94.5795 50.1177 94.5929 50.102 94.6101 50.0915C94.6272 50.0809 94.6473 50.0761 94.6674 50.0776H94.8882C94.9046 50.0763 94.921 50.0793 94.9359 50.0861C94.9508 50.093 94.9637 50.1036 94.9733 50.1169C94.9829 50.1301 94.9889 50.1456 94.9908 50.1619C94.9926 50.1781 94.9903 50.1946 94.9839 50.2097C94.9226 50.3757 94.8216 50.5243 94.6895 50.6426C94.5017 50.805 94.2611 50.8937 94.0125 50.892H93.1955C92.9235 50.8901 92.6633 50.781 92.4717 50.5886C92.2801 50.3961 92.1725 50.136 92.1725 49.8648Z" fill="white"/>
<path d="M104.669 50.8187L103.433 49.2558H102.697V50.7893C102.697 50.8166 102.686 50.8427 102.667 50.862C102.647 50.8813 102.621 50.8921 102.594 50.8921H102.395C102.367 50.8921 102.34 50.8815 102.32 50.8625C102.299 50.8434 102.287 50.8172 102.285 50.7893V46.2108C102.287 46.1829 102.299 46.1568 102.32 46.1377C102.34 46.1186 102.367 46.108 102.395 46.1081H102.491C102.545 46.1081 102.598 46.1297 102.637 46.1683C102.675 46.2068 102.697 46.2591 102.697 46.3135V48.8523H103.433L104.537 47.2821C104.559 47.2604 104.586 47.2435 104.615 47.2321C104.644 47.2208 104.675 47.2153 104.706 47.216H104.934C104.953 47.2167 104.971 47.2223 104.986 47.2323C105.002 47.2422 105.015 47.2562 105.023 47.2728C105.031 47.2893 105.035 47.3077 105.033 47.3261C105.032 47.3446 105.026 47.3623 105.015 47.3775L103.793 49.0651L105.118 50.7306C105.131 50.7457 105.139 50.7642 105.142 50.7838C105.144 50.8033 105.141 50.8232 105.132 50.841C105.124 50.8588 105.11 50.8738 105.093 50.8842C105.077 50.8945 105.057 50.8998 105.037 50.8994H104.824C104.794 50.898 104.764 50.8901 104.738 50.8762C104.711 50.8622 104.688 50.8426 104.669 50.8187Z" fill="white"/>
<path d="M112.301 46.2548C112.303 46.2269 112.316 46.2008 112.336 46.1817C112.357 46.1626 112.384 46.1521 112.412 46.1521H112.507C112.534 46.1511 112.561 46.1555 112.586 46.165C112.611 46.1745 112.633 46.189 112.653 46.2075C112.672 46.226 112.687 46.2481 112.698 46.2727C112.708 46.2972 112.713 46.3236 112.713 46.3502V46.4529C112.713 46.4802 112.703 46.5063 112.683 46.5256C112.664 46.5449 112.638 46.5557 112.61 46.5557H112.412C112.384 46.5557 112.357 46.5452 112.336 46.5261C112.316 46.507 112.303 46.4808 112.301 46.4529V46.2548ZM112.301 47.3188C112.303 47.2909 112.316 47.2647 112.336 47.2456C112.357 47.2266 112.384 47.216 112.412 47.216H112.61C112.638 47.216 112.664 47.2269 112.683 47.2461C112.703 47.2654 112.713 47.2915 112.713 47.3188V50.7893C112.713 50.8166 112.703 50.8427 112.683 50.862C112.664 50.8812 112.638 50.8921 112.61 50.8921H112.412C112.384 50.8921 112.357 50.8815 112.336 50.8625C112.316 50.8434 112.303 50.8172 112.301 50.7893V47.3188Z" fill="white"/>
<path d="M122.664 48.2359C122.665 48.1547 122.649 48.0741 122.619 47.9989C122.588 47.9237 122.542 47.8553 122.485 47.7979C122.427 47.7405 122.359 47.6951 122.283 47.6645C122.208 47.6339 122.127 47.6186 122.045 47.6196H120.61V50.782C120.61 50.8092 120.599 50.8353 120.58 50.8546C120.561 50.8739 120.535 50.8847 120.507 50.8847H120.309C120.281 50.8847 120.255 50.8739 120.236 50.8546C120.216 50.8353 120.206 50.8092 120.206 50.782V47.3114C120.206 47.2841 120.216 47.258 120.236 47.2388C120.255 47.2195 120.281 47.2087 120.309 47.2087H122.045C122.319 47.2087 122.581 47.3169 122.774 47.5095C122.967 47.7022 123.076 47.9635 123.076 48.2359V50.782C123.074 50.8099 123.061 50.836 123.041 50.8551C123.02 50.8742 122.993 50.8848 122.965 50.8847H122.767C122.739 50.8847 122.713 50.8739 122.694 50.8546C122.674 50.8353 122.664 50.8092 122.664 50.782V48.2359Z" fill="white"/>
<path d="M131.135 51.7872C131.135 51.7606 131.14 51.7342 131.15 51.7097C131.161 51.6851 131.176 51.663 131.195 51.6445C131.215 51.626 131.237 51.6115 131.262 51.602C131.287 51.5925 131.314 51.5881 131.341 51.5891H132.4C132.564 51.5891 132.722 51.5242 132.838 51.4086C132.954 51.293 133.019 51.1362 133.019 50.9728V50.6499H131.584C131.312 50.648 131.051 50.5389 130.86 50.3465C130.668 50.154 130.561 49.8939 130.561 49.6227V48.2359C130.561 47.9654 130.668 47.706 130.86 47.5147C131.052 47.3235 131.312 47.216 131.584 47.216H133.328C133.355 47.216 133.381 47.2268 133.401 47.2461C133.42 47.2654 133.431 47.2915 133.431 47.3187V50.9874C133.431 51.2599 133.322 51.5212 133.129 51.7138C132.936 51.9064 132.674 52.0147 132.4 52.0147H131.238C131.21 52.0128 131.183 52.0004 131.164 51.98C131.145 51.9595 131.135 51.9326 131.135 51.9046V51.7872ZM130.973 48.2359V49.6227C130.972 49.7033 130.987 49.7832 131.017 49.858C131.047 49.9327 131.092 50.0007 131.149 50.0581C131.206 50.1154 131.274 50.1609 131.348 50.192C131.423 50.223 131.503 50.239 131.584 50.239H133.019V47.5976H131.584C131.501 47.5985 131.42 47.6159 131.344 47.6486C131.268 47.6814 131.2 47.7289 131.143 47.7884C131.086 47.8479 131.042 47.9182 131.013 47.995C130.983 48.0719 130.97 48.1538 130.973 48.2359Z" fill="white"/>
<path d="M140.761 50.6866C140.763 50.6327 140.785 50.5815 140.824 50.5434C140.862 50.5052 140.913 50.483 140.967 50.4812H142.608C142.692 50.4818 142.776 50.4652 142.853 50.4324C142.93 50.3996 143 50.3513 143.057 50.2904C143.114 50.2317 143.159 50.1621 143.188 50.0856C143.218 50.0092 143.231 49.9276 143.227 49.8459C143.224 49.7642 143.204 49.684 143.168 49.6103C143.133 49.5366 143.082 49.4709 143.021 49.4173C142.905 49.3147 142.756 49.2573 142.601 49.2558H141.784C141.509 49.2589 141.245 49.1534 141.048 48.9623C140.948 48.8677 140.869 48.7539 140.815 48.6278C140.76 48.5017 140.732 48.3658 140.732 48.2286C140.732 48.0913 140.76 47.9555 140.815 47.8294C140.869 47.7032 140.948 47.5894 141.048 47.4948C141.246 47.3036 141.509 47.1936 141.784 47.1867H143.16C143.174 47.1857 143.187 47.1874 143.199 47.1917C143.212 47.1961 143.223 47.2029 143.233 47.2119C143.243 47.2209 143.25 47.2317 143.255 47.2438C143.261 47.2559 143.263 47.2689 143.263 47.2821V47.3848C143.263 47.4393 143.242 47.4915 143.203 47.5301C143.164 47.5686 143.112 47.5902 143.057 47.5902H141.755C141.672 47.5906 141.59 47.6076 141.514 47.6404C141.438 47.6732 141.37 47.7211 141.313 47.781C141.255 47.8415 141.211 47.913 141.182 47.9912C141.153 48.0694 141.14 48.1526 141.144 48.2359C141.154 48.3956 141.225 48.5453 141.343 48.6542C141.46 48.7594 141.611 48.8192 141.769 48.8229H142.557C142.832 48.8298 143.095 48.9398 143.293 49.1311C143.388 49.2276 143.463 49.3424 143.512 49.4685C143.561 49.5947 143.584 49.7295 143.58 49.8648C143.576 50.1387 143.468 50.4011 143.278 50.5986C143.079 50.7856 142.815 50.8882 142.542 50.8847H140.798C140.772 50.8848 140.747 50.875 140.728 50.8573C140.708 50.8396 140.697 50.8153 140.695 50.7893L140.761 50.6866Z" fill="white"/>
<path d="M150.903 49.8648V48.2359C150.903 47.9654 151.011 47.706 151.202 47.5147C151.394 47.3235 151.654 47.216 151.926 47.216H152.743C153.015 47.216 153.276 47.3232 153.469 47.5143C153.662 47.7054 153.771 47.9648 153.773 48.2359V49.065C153.773 49.0927 153.767 49.12 153.757 49.1454C153.746 49.1708 153.73 49.1938 153.71 49.213C153.69 49.2321 153.667 49.2471 153.641 49.257C153.615 49.2669 153.587 49.2715 153.56 49.2705H151.307V49.8795C151.309 50.0424 151.375 50.198 151.491 50.3132C151.606 50.4284 151.762 50.4939 151.926 50.4958H152.743C152.859 50.4958 152.973 50.4635 153.071 50.4026C153.17 50.3417 153.25 50.2546 153.302 50.151C153.308 50.133 153.32 50.1175 153.336 50.1069C153.352 50.0963 153.371 50.0912 153.39 50.0923H153.618C153.634 50.0927 153.65 50.0968 153.664 50.1042C153.678 50.1116 153.69 50.1221 153.699 50.1348C153.708 50.1476 153.714 50.1623 153.717 50.1778C153.72 50.1933 153.719 50.2093 153.714 50.2243C153.653 50.3924 153.549 50.5416 153.412 50.6573C153.227 50.8192 152.989 50.9079 152.743 50.9067H151.926C151.79 50.9058 151.655 50.878 151.53 50.825C151.405 50.7721 151.292 50.6949 151.197 50.5981C151.102 50.5012 151.027 50.3866 150.976 50.2607C150.926 50.1349 150.901 50.0003 150.903 49.8648ZM151.307 48.2359V48.8523H153.361V48.2359C153.361 48.0725 153.296 47.9157 153.18 47.8001C153.064 47.6845 152.907 47.6196 152.743 47.6196H151.926C151.762 47.6215 151.606 47.687 151.491 47.8022C151.375 47.9174 151.309 48.073 151.307 48.2359Z" fill="white"/>
<path d="M161.258 48.2359C161.258 47.9654 161.366 47.706 161.557 47.5147C161.749 47.3235 162.009 47.216 162.281 47.216H162.884C162.898 47.215 162.911 47.2167 162.924 47.221C162.937 47.2252 162.949 47.232 162.959 47.2409C162.97 47.2497 162.978 47.2605 162.984 47.2726C162.99 47.2847 162.994 47.2979 162.995 47.3114V47.4141C162.991 47.4687 162.967 47.5199 162.928 47.5579C162.888 47.5959 162.836 47.6179 162.781 47.6196H162.288C162.125 47.6215 161.97 47.6873 161.856 47.8027C161.741 47.9181 161.677 48.0737 161.677 48.2359V50.7893C161.677 50.8025 161.675 50.8155 161.669 50.8276C161.664 50.8397 161.656 50.8506 161.647 50.8595C161.637 50.8685 161.626 50.8753 161.613 50.8797C161.601 50.884 161.587 50.8857 161.574 50.8847H161.368C161.355 50.8857 161.342 50.884 161.329 50.8797C161.317 50.8753 161.305 50.8685 161.296 50.8595C161.286 50.8506 161.278 50.8397 161.273 50.8276C161.268 50.8155 161.265 50.8025 161.265 50.7893L161.258 48.2359Z" fill="white"/>
<path d="M171.083 50.76L169.832 47.3481C169.827 47.3324 169.826 47.3158 169.829 47.2997C169.832 47.2836 169.839 47.2685 169.849 47.2556C169.859 47.2427 169.872 47.2323 169.887 47.2255C169.902 47.2186 169.918 47.2153 169.935 47.216H170.075C170.116 47.2161 170.157 47.2278 170.192 47.2499C170.227 47.2719 170.255 47.3034 170.273 47.3408L171.399 50.4298L172.533 47.3408C172.551 47.3034 172.579 47.2719 172.614 47.2499C172.649 47.2278 172.69 47.2161 172.732 47.216H172.871C172.888 47.2153 172.904 47.2186 172.919 47.2255C172.934 47.2323 172.947 47.2427 172.957 47.2556C172.967 47.2685 172.974 47.2836 172.977 47.2997C172.98 47.3158 172.979 47.3324 172.974 47.3481L171.723 50.76C171.705 50.7973 171.677 50.8288 171.642 50.8509C171.607 50.8729 171.566 50.8847 171.525 50.8847H171.282C171.24 50.8847 171.199 50.8729 171.164 50.8509C171.129 50.8288 171.101 50.7973 171.083 50.76Z" fill="white"/>
<path d="M180.15 46.2548C180.15 46.2276 180.161 46.2015 180.18 46.1822C180.2 46.1629 180.226 46.1521 180.253 46.1521H180.349C180.375 46.1511 180.402 46.1555 180.427 46.165C180.452 46.1745 180.475 46.189 180.494 46.2075C180.513 46.226 180.529 46.2481 180.539 46.2727C180.55 46.2972 180.555 46.3236 180.555 46.3502V46.4529C180.555 46.4802 180.544 46.5063 180.525 46.5256C180.505 46.5449 180.479 46.5557 180.452 46.5557H180.253C180.226 46.5557 180.2 46.5449 180.18 46.5256C180.161 46.5063 180.15 46.4802 180.15 46.4529V46.2548ZM180.15 47.3188C180.15 47.2915 180.161 47.2654 180.18 47.2461C180.2 47.2269 180.226 47.216 180.253 47.216H180.452C180.479 47.216 180.505 47.2269 180.525 47.2461C180.544 47.2654 180.555 47.2915 180.555 47.3188V50.7893C180.555 50.8166 180.544 50.8427 180.525 50.862C180.505 50.8812 180.479 50.8921 180.452 50.8921H180.253C180.226 50.8921 180.2 50.8812 180.18 50.862C180.161 50.8427 180.15 50.8166 180.15 50.7893V47.3188Z" fill="white"/>
<path d="M188.047 49.8648V48.2359C188.047 47.9654 188.155 47.706 188.347 47.5147C188.538 47.3235 188.799 47.216 189.07 47.216H189.887C190.132 47.2121 190.371 47.2983 190.557 47.4582C190.695 47.5754 190.799 47.7274 190.858 47.8984C190.863 47.9135 190.864 47.9294 190.861 47.9449C190.859 47.9605 190.852 47.9752 190.843 47.988C190.834 48.0007 190.822 48.0112 190.808 48.0186C190.794 48.0259 190.778 48.03 190.763 48.0305H190.542C190.521 48.0315 190.5 48.0256 190.483 48.0136C190.466 48.0017 190.453 47.9844 190.446 47.9644C190.394 47.8609 190.314 47.7737 190.216 47.7128C190.117 47.6519 190.003 47.6196 189.887 47.6196H189.07C188.907 47.6215 188.75 47.687 188.635 47.8022C188.519 47.9174 188.454 48.0731 188.452 48.2359V49.8648C188.454 50.0277 188.519 50.1834 188.635 50.2985C188.75 50.4137 188.907 50.4793 189.07 50.4812H189.887C190.003 50.4811 190.117 50.4488 190.216 50.3879C190.314 50.327 190.394 50.2399 190.446 50.1363C190.453 50.1183 190.465 50.1028 190.481 50.0923C190.496 50.0817 190.515 50.0765 190.535 50.0776H190.763C190.778 50.0781 190.794 50.0821 190.808 50.0895C190.822 50.0969 190.834 50.1074 190.843 50.1201C190.852 50.1329 190.859 50.1476 190.861 50.1631C190.864 50.1787 190.863 50.1946 190.858 50.2097C190.797 50.3777 190.693 50.5269 190.557 50.6426C190.371 50.8045 190.133 50.8932 189.887 50.8921H189.07C188.798 50.8901 188.538 50.781 188.346 50.5886C188.154 50.3962 188.047 50.136 188.047 49.8648Z" fill="white"/>
<path d="M198.13 49.8648V48.2359C198.13 47.9654 198.238 47.706 198.429 47.5147C198.621 47.3235 198.881 47.216 199.153 47.216H199.97C200.242 47.216 200.503 47.3232 200.696 47.5143C200.889 47.7054 200.998 47.9648 201 48.2359V49.065C201.001 49.0923 200.996 49.1195 200.986 49.1449C200.976 49.1703 200.961 49.1933 200.942 49.2126C200.923 49.2319 200.899 49.247 200.874 49.2569C200.849 49.2669 200.821 49.2715 200.794 49.2705H198.542V49.8795C198.542 50.0417 198.606 50.1974 198.72 50.3127C198.835 50.4281 198.99 50.4939 199.153 50.4958H199.97C200.086 50.4958 200.2 50.4635 200.298 50.4026C200.397 50.3417 200.477 50.2546 200.529 50.151C200.537 50.1324 200.55 50.1167 200.567 50.1062C200.584 50.0956 200.605 50.0907 200.625 50.0923H200.846C200.862 50.091 200.878 50.0939 200.893 50.1008C200.908 50.1077 200.921 50.1183 200.931 50.1315C200.94 50.1448 200.946 50.1603 200.948 50.1766C200.95 50.1928 200.948 50.2093 200.941 50.2243C200.88 50.3924 200.776 50.5416 200.639 50.6573C200.455 50.8204 200.216 50.9093 199.97 50.9067H199.153C199.017 50.9058 198.882 50.878 198.757 50.825C198.632 50.7721 198.519 50.6949 198.424 50.5981C198.329 50.5012 198.254 50.3866 198.203 50.2607C198.153 50.1349 198.128 50.0003 198.13 49.8648ZM198.542 48.2359V48.8523H200.588V48.2359C200.588 48.155 200.572 48.0748 200.541 48.0001C200.51 47.9253 200.464 47.8573 200.407 47.8001C200.349 47.7429 200.281 47.6975 200.206 47.6665C200.131 47.6355 200.051 47.6196 199.97 47.6196H199.153C198.99 47.6215 198.835 47.6873 198.72 47.8027C198.606 47.9181 198.542 48.0737 198.542 48.2359Z" fill="white"/>
<path d="M81.1919 41.1113V27.1263H91.2084C91.7295 27.1256 92.2453 27.2305 92.7245 27.4344C93.6896 27.8419 94.4631 28.6 94.8882 29.555C95.1104 30.046 95.2234 30.5791 95.2194 31.1178C95.2296 31.6874 95.1128 32.252 94.8773 32.771C94.6419 33.29 94.2936 33.7504 93.8579 34.1188C94.2931 34.4861 94.641 34.9452 94.8764 35.4629C95.1119 35.9806 95.2291 36.5441 95.2194 37.1124C95.2244 37.6371 95.1191 38.157 94.9103 38.6386C94.706 39.1059 94.4165 39.5313 94.0566 39.8933C93.6881 40.2562 93.2567 40.5495 92.7834 40.7591C92.2875 40.9809 91.7518 41.1007 91.2084 41.1113H81.1919ZM83.1937 33.1209H91.2084C91.473 33.1249 91.7357 33.0758 91.9809 32.9764C92.2261 32.8771 92.4487 32.7295 92.6354 32.5426C92.8222 32.3557 92.9694 32.1333 93.0681 31.8885C93.1669 31.6437 93.2152 31.3816 93.2102 31.1178C93.2142 30.8546 93.1651 30.5933 93.066 30.3494C92.9668 30.1055 92.8194 29.8839 92.6328 29.6978C92.4461 29.5117 92.2238 29.3648 91.9792 29.2659C91.7345 29.167 91.4724 29.1181 91.2084 29.1221H83.2011L83.1937 33.1209ZM83.1937 35.1167V39.1082H91.2084C91.7393 39.1082 92.2485 38.8979 92.6239 38.5237C92.9993 38.1494 93.2102 37.6418 93.2102 37.1124C93.2102 36.5831 92.9993 36.0755 92.6239 35.7012C92.2485 35.327 91.7393 35.1167 91.2084 35.1167H83.1937Z" fill="white"/>
<path d="M112.029 41.1113H110.02V37.1124H100.003V41.1113H98.0014V31.1178C98.0002 30.5959 98.1054 30.0792 98.3105 29.599C98.5121 29.128 98.8018 28.6997 99.1643 28.3369C99.5275 27.9674 99.9568 27.6688 100.43 27.4565C100.925 27.2357 101.462 27.1231 102.005 27.1263H108.018C108.542 27.1236 109.06 27.2285 109.541 27.4344C110.011 27.6355 110.439 27.9245 110.8 28.2856C111.168 28.6513 111.465 29.0817 111.676 29.555C111.898 30.0468 112.018 30.5784 112.029 31.1178V41.1113ZM102.005 29.1221C101.742 29.1201 101.48 29.1704 101.237 29.27C100.993 29.3696 100.771 29.5165 100.585 29.7022C100.399 29.888 100.252 30.1088 100.152 30.3518C100.052 30.5948 100.001 30.8552 100.003 31.1178V35.124H110.02V31.1251C110.022 30.8625 109.971 30.6021 109.871 30.3591C109.771 30.1161 109.624 29.8953 109.438 29.7096C109.252 29.5239 109.03 29.3769 108.786 29.2773C108.543 29.1777 108.281 29.1274 108.018 29.1294L102.005 29.1221Z" fill="white"/>
<path d="M127.403 41.1113L123.4 37.1124H116.776V41.1113H114.767V27.1263H124.791C125.309 27.1258 125.823 27.2307 126.299 27.4344C127.268 27.8362 128.044 28.5961 128.463 29.555C128.685 30.046 128.798 30.5791 128.794 31.1178V33.1209C128.796 33.5375 128.729 33.9515 128.596 34.3463C128.465 34.7356 128.274 35.102 128.029 35.4322C127.777 35.7692 127.48 36.0704 127.146 36.3274C126.803 36.5842 126.42 36.7826 126.012 36.9143L128.794 39.6879V41.1113H127.403ZM126.822 31.1178C126.824 30.8552 126.773 30.5948 126.673 30.3518C126.574 30.1087 126.426 29.888 126.24 29.7022C126.054 29.5165 125.832 29.3696 125.588 29.27C125.345 29.1704 125.083 29.1201 124.82 29.122H116.805V35.124H124.82C125.083 35.126 125.345 35.0757 125.588 34.9761C125.832 34.8765 126.054 34.7295 126.24 34.5438C126.426 34.3581 126.574 34.1373 126.673 33.8943C126.773 33.6513 126.824 33.3909 126.822 33.1282V31.1178Z" fill="white"/>
<path d="M131.598 27.1263H133.607V41.1113H131.598V27.1263Z" fill="white"/>
<path d="M150.373 37.1124C150.377 37.6449 150.27 38.1724 150.056 38.6606C149.646 39.6173 148.882 40.3794 147.922 40.7885C147.433 41.0028 146.904 41.1128 146.369 41.1113H140.356C139.816 41.1148 139.28 41.01 138.781 40.8031C138.307 40.6015 137.875 40.3127 137.508 39.952C137.138 39.5777 136.845 39.1342 136.647 38.647C136.448 38.1597 136.349 37.6383 136.353 37.1124V31.1178C136.35 30.5855 136.457 30.0583 136.669 29.5696C137.079 28.613 137.844 27.8508 138.803 27.4418C139.293 27.23 139.822 27.1225 140.356 27.1263H146.369C146.894 27.124 147.413 27.2315 147.893 27.4418C148.365 27.6498 148.796 27.9405 149.166 28.3003C149.537 28.6635 149.834 29.0944 150.042 29.5696C150.262 30.0562 150.374 30.5841 150.373 31.1178V37.1124ZM148.371 31.1178C148.373 30.8552 148.323 30.5948 148.223 30.3518C148.123 30.1088 147.975 29.888 147.789 29.7023C147.603 29.5165 147.381 29.3696 147.138 29.27C146.894 29.1704 146.633 29.1201 146.369 29.1221H140.356C140.093 29.1201 139.832 29.1704 139.588 29.27C139.344 29.3696 139.123 29.5165 138.936 29.7023C138.75 29.888 138.603 30.1088 138.503 30.3518C138.403 30.5948 138.353 30.8552 138.354 31.1178V37.1124C138.353 37.3751 138.403 37.6355 138.503 37.8785C138.603 38.1215 138.75 38.3423 138.936 38.528C139.123 38.7137 139.344 38.8607 139.588 38.9603C139.832 39.0599 140.093 39.1102 140.356 39.1082H146.369C146.633 39.1102 146.894 39.0599 147.138 38.9603C147.381 38.8607 147.603 38.7137 147.789 38.528C147.975 38.3423 148.123 38.1215 148.223 37.8785C148.323 37.6355 148.373 37.3751 148.371 37.1124V31.1178Z" fill="white"/>
<path d="M167.204 41.1113H165.203L155.186 30.3621V41.1113H153.177V27.1263H155.186L165.203 37.7141V27.1263H167.204V41.1113Z" fill="white"/>
<path d="M177.994 36.7162V41.1187H175.992V36.7162L169.979 30.1126V27.1263H171.981V29.3275L176.993 34.8158L182.005 29.3275V27.1263H184.007V30.1199L177.994 36.7162Z" fill="white"/>
<path d="M200.809 27.1263V30.1199L195.458 34.1335L200.809 38.1544V41.0893H198.807V39.1302L193.795 35.3955L188.783 39.1522V41.1113H186.781V38.1764L192.132 34.1555L186.781 30.1419V27.1263H188.783V29.122L193.795 32.8788L198.807 29.122V27.1263H200.809Z" fill="white"/>
<path d="M63.1754 29.4229L63.0062 29.2248L72.7577 21.095L72.927 21.3004L63.1754 29.4229Z" fill="white"/>
<path d="M38.9852 17.91L38.7269 17.9689L41.0091 27.9033L41.2674 27.8443L38.9852 17.91Z" fill="white"/>
<path d="M27.3927 32.0717L22.2998 27.7353L22.4691 27.5372L27.2161 31.5727L25.7 26.7741L25.8545 26.6053L38.388 29.2248L31.3743 23.01L31.5509 22.8119L38.9327 29.3569L38.8223 29.5843L26.0238 26.9062L27.6061 31.9323L27.3927 32.0717Z" fill="white"/>
<path d="M18.4728 36.4007L13.1885 32.2551L12.1067 36.2686L11.8932 36.3347L7.43326 32.8421L8.21338 34.9479L7.96316 35.0433L7.02112 32.4972L7.22719 32.3431L11.9006 36.0118L12.9825 31.9983L13.1885 31.9249L18.2373 35.8798L16.1397 30.839L16.3017 30.6629C21.2842 32.2331 23.6172 32.9668 24.7064 33.3263C24.1029 32.8934 23.0799 32.1377 21.321 30.839L21.4313 30.6042L27.5031 31.8516L27.4516 32.1084L21.9686 30.9857C23.5068 32.1157 25.4645 33.5538 25.6043 33.6272C25.6852 33.6272 25.6852 33.6785 25.6926 33.7006L25.6484 33.8326C25.6484 33.8326 25.5969 33.8767 25.5086 33.8326C25.2952 33.7446 19.1793 31.8149 16.5077 30.9711L18.7156 36.2173L18.4728 36.4007Z" fill="white"/>
<path d="M95.3298 13.0459L94.2038 10.3971L89.3979 11.2922L89.2728 11.0721L91.6942 8.34995L91.8929 8.52604L89.7291 10.9621L94.2553 10.1109L94.4025 10.1916L95.5727 12.9431L95.3298 13.0459Z" fill="white"/>
<path d="M101.851 6.41288L100.209 4.07959L93.7107 2.84691L93.7622 2.58276L100.312 3.83012L100.393 3.88148L101.954 6.10471L103.08 4.4538L103.3 4.60054L102.064 6.41288H101.851Z" fill="white"/>
<path d="M84.5641 0.0664399L84.3735 0.249939L87.6046 3.58568L87.7952 3.40218L84.5641 0.0664399Z" fill="white"/>
<path d="M80.4486 11.2115L77.6592 2.31863L77.88 2.18655L82.4872 6.89715L85.2323 9.78808L87.5654 3.50728L87.7273 3.42657L92.0253 4.73262L91.9517 4.98943L87.7714 3.72007L85.409 10.0816L85.1882 10.1256L82.2958 7.08059L78.0787 2.77354L80.6988 11.1382L80.4486 11.2115Z" fill="white"/>
<path d="M76.2757 14.9095L76.0696 14.8729L73.0742 9.47988L73.3024 9.34781L76.2242 14.6087L80.5443 11.0794L80.7136 11.2849L76.2757 14.9095Z" fill="white"/>
<path d="M44.8572 28.2709L44.6438 28.1609L44.3715 14.9536L41.2804 27.882L41.0228 27.8233L44.3568 13.8823H44.5113L44.5996 13.8236L50.9437 23.8978V24.0813L44.8572 28.2709ZM44.6291 14.3886L44.9087 27.9114L50.6493 23.9492L44.6291 14.3886Z" fill="white"/>
<path d="M50.645 10.0123L50.3801 10.0186L50.7171 23.9629L50.982 23.9566L50.645 10.0123Z" fill="white"/>
<path d="M72.8019 21.3298L66.87 19.7889L66.789 19.5908L73.0742 9.34782L73.2214 9.28912L80.6031 11.0428L80.5442 11.3069L73.2508 9.56794L67.1128 19.5761L72.8755 21.073L72.8019 21.3298Z" fill="white"/>
<path d="M48.3751 42.7329L48.1838 42.5421L52.4524 38.3672C48.1544 37.7508 48.1175 37.6334 48.0881 37.5747V37.4426C48.0881 37.3986 48.1764 37.3179 56.4561 34.0528L46.8885 34.1922L46.8517 33.928L57.3245 30.9197L49.1258 31.382L48.986 31.2205L50.664 23.9565L50.8774 23.8832L58.3769 30.3988L56.905 16.7219V16.6485L60.4965 9.12036H60.732L66.9804 19.5981L66.7522 19.7375L60.629 9.46522L57.1626 16.7292L58.6345 30.7069L58.5241 30.7656V30.8464L47.8747 33.906L57.1552 33.7813L57.1994 34.0381C54.1598 35.2341 49.7588 36.9731 48.5518 37.4867C49.3393 37.6481 51.3779 37.9563 52.71 38.147L52.7909 38.3745L48.3751 42.7329ZM50.9069 24.228L49.3245 31.1105L58.2003 30.6042L50.9069 24.228Z" fill="white"/>
<path d="M76.185 14.6509L66.8484 19.5089L66.971 19.7431L76.3076 14.8851L76.185 14.6509Z" fill="white"/>
<path d="M58.6419 30.795L58.4285 30.6409C66.7375 19.4294 66.8259 19.4734 66.9583 19.5321L67.0393 19.6862C66.9804 19.9797 64.2352 26.8328 63.411 28.8872L65.8985 26.8181L66.0678 27.0235L63.1754 29.4229L62.9694 29.2761C64.1837 26.2385 65.9132 21.9388 66.5315 20.2952C65.2214 21.9608 61.3208 27.163 58.6419 30.795Z" fill="white"/>
<path d="M49.8397 51.934L49.5968 51.8532L49.6778 47.3701L45.836 49.021L45.6741 48.8156L50.3034 42.41L50.5242 42.5641L46.1746 48.5881L49.7661 47.0399L49.9501 47.1647L49.8691 51.4497L51.4515 49.3805L51.6649 49.542L49.8397 51.934Z" fill="white"/>
<path d="M56.905 47.9278L54.491 45.3964L54.4542 45.279C54.7486 43.474 55.1902 40.8765 55.3079 39.8493C54.7928 40.6197 53.6594 42.366 52.8645 43.6134L52.6217 43.54V38.7781L50.5462 42.5348L50.4358 42.6008L48.4119 42.6522V42.3807L50.3549 42.3367L52.6437 38.1984L52.894 38.2644V43.0851C55.33 39.2917 55.3963 39.2623 55.4478 39.2476H55.5803C55.6539 39.3137 55.7054 39.3504 54.7486 45.1175L57.4423 44.692L57.5968 44.8461L57.1699 47.781L56.905 47.9278ZM54.859 45.3964L56.9344 47.5315L57.2951 45.0148L54.859 45.3964Z" fill="white"/>
<path d="M74.5682 32.3211L72.0953 26.7521C71.4035 27.2877 70.4173 28.0728 70.3364 28.1535L70.1892 28.1975L70.1009 28.0655V28.0067C70.2996 27.5445 71.4845 24.8443 72.088 23.7731C71.536 24.0299 70.3437 24.5068 67.8267 25.5414L67.6869 25.3139L70.7706 22.7312L70.9399 22.9366L68.5112 24.9691C70.2039 24.2794 72.191 23.4429 72.3529 23.3622C72.3529 23.3622 72.3529 23.3622 72.3971 23.3622L72.5516 23.4576C72.5516 23.5016 72.5516 23.531 72.4854 23.5897C72.2941 23.7731 71.0503 26.4806 70.5424 27.6326C70.8663 27.3684 71.3594 26.9795 72.0144 26.4586L72.2131 26.5099L74.7669 32.2404L74.5682 32.3211Z" fill="white"/>
<path d="M66.3542 29.3554L66.0901 29.3763L66.2798 31.7534L66.544 31.7325L66.3542 29.3554Z" fill="white"/>
<path d="M50.9068 23.9345L50.7081 23.7584L56.9639 16.6192L57.0963 16.5825L66.9436 19.5321L66.87 19.7889L57.1037 16.8613L50.9068 23.9345Z" fill="white"/>
<path d="M50.5921 9.96953L50.4031 10.1546L56.9726 16.8242L57.1617 16.6392L50.5921 9.96953Z" fill="white"/>
<path d="M70.5204 34.8159L67.8562 32.6293L68.0255 32.4239L70.2849 34.2729L70.513 29.4963L70.778 29.511L70.5204 34.8159Z" fill="white"/>
<path d="M49.7072 52.0006L45.4313 48.9776L48.147 42.6234L48.0734 37.5533L46.7781 34.0387L48.986 31.2872L44.7542 28.3009L41.2068 27.9927L38.9032 29.5922L27.5694 32.1016L25.619 33.8699L18.6273 36.438L11.9595 36.3646L8.00733 35.1246L0 28.8732L7.16834 32.3364L13.0561 31.9182L16.2428 30.6855L21.3283 30.6195L22.2557 27.5524L25.7515 26.6353L39.1019 17.5883L45.7257 12.885L50.4726 9.95008L60.6364 9.09159L73.111 9.3264L77.7108 2.1798L79.9187 2.48063L84.4155 0.0446167H84.467L93.7034 2.56868L93.7622 2.48795L93.8358 2.60535L93.983 2.64205L93.9168 2.7301L96.7355 7.18389L100.209 3.80135L103.286 4.41037L105.074 6.96376L101.976 6.47217L96.6988 7.60945H96.6619L92.0254 5.04137L89.2876 8.71006L91.8561 8.32118L94.351 10.1262L96.6546 9.76664L95.9186 12.254L98.2884 9.97209L97.3096 13.1125L101.137 11.2415L102.292 13.4427L100.327 16.0841L96.9195 13.6041L85.2839 10.1775L80.6915 11.3002L76.3493 14.8881L72.927 21.301L71.146 22.7685L72.6179 23.3555L72.3309 26.3858L76.4155 28.6604L74.7743 32.4758L70.1524 28.3009L67.7973 25.586L66.1267 26.9801L66.3474 29.2327L70.7633 29.5189L66.4726 34.2588L66.2591 31.8081L63.0356 29.4675L58.6198 30.8249L57.273 34.0093L52.9602 38.2283L55.5803 39.2849L57.56 44.8026L60.4597 48.2659L54.2997 47.8403L54.4322 45.3749L52.6658 43.6653L50.561 42.8289L49.9428 47.1286L51.6208 49.3298L55.9114 50.3057L49.7072 52.0006ZM45.7551 48.8895L49.7588 51.7144L54.8222 50.3423L51.4809 49.6086L49.6778 47.2313L50.3622 42.484L52.8498 43.4892L54.7192 45.2942L54.594 47.6202L59.8709 47.987L57.3318 44.942L55.3815 39.527L52.4892 38.3237L57.0669 33.8406L58.4211 30.6121L63.1018 29.1447L66.5241 31.6247L66.7007 33.5911L70.1966 29.7096L66.0899 29.4455L65.8323 26.8334L67.812 25.1825L70.3511 28.0734L74.6418 32.0062L76.0475 28.7558L72.0218 26.5105L72.3014 23.5096L70.6234 22.8272L72.7209 21.0809L76.1432 14.6607L80.559 10.992L85.2471 9.84002H85.2839L95.3814 12.8117L96.2056 9.9941L94.2038 10.3096L91.7162 8.50461L88.6105 8.97419L91.9076 4.61581L93.4531 2.71541L84.4302 0.213384L79.9481 2.63471L77.7991 2.34854L73.2067 9.48047L60.5995 9.23835L50.5389 10.1775L45.8655 13.1125L39.2418 17.8084L25.8325 26.8921L22.4912 27.7872L21.5786 30.8543L16.3237 30.9276L13.1149 32.1897L7.11681 32.6152L2.12696 30.2012L8.15453 34.9045L11.9963 36.1298L18.5832 36.1885L25.4792 33.6571L27.4148 31.8888L38.7929 29.3721L41.1111 27.7506L44.791 28.0661L49.2804 31.2358L47.0136 34.0974L48.2721 37.5313L48.3457 42.6674L45.7551 48.8895ZM97.1698 13.45L100.29 15.7172L101.983 13.406L101.019 11.5643L97.1698 13.45ZM95.558 12.9291L96.9563 13.3399L97.6923 10.8599L95.558 12.9291ZM100.283 4.1242L97.0226 7.24258L101.954 6.17865L104.485 6.58222L103.116 4.62313L100.283 4.1242ZM92.1873 4.85793L96.3676 7.1692L93.7181 2.97957L92.1873 4.85793Z" fill="white"/>
<path d="M89.0815 11.1748L87.558 3.47057L87.6758 3.30915L93.6224 2.67813L93.6519 2.94228L87.8451 3.55862L89.3391 11.1235L89.0815 11.1748Z" fill="white"/>
<path d="M79.9874 2.44232L79.9573 2.70474L87.8251 3.60122L87.8552 3.3388L79.9874 2.44232Z" fill="white"/>
<path d="M31.5277 22.8107L31.407 23.0458L41.0904 27.9861L41.2111 27.7509L31.5277 22.8107Z" fill="white"/>
<path d="M100.962 11.3702L100.203 15.8858L100.465 15.9295L101.223 11.4139L100.962 11.3702Z" fill="white"/>
<path d="M88.478 3.3165C88.5039 3.47298 88.4825 3.6336 88.4167 3.77796C88.3508 3.92231 88.2433 4.04387 88.108 4.1272C87.9727 4.21054 87.8155 4.25188 87.6566 4.24597C87.4976 4.24006 87.344 4.18717 87.2153 4.09402C87.0865 4.00086 86.9885 3.87165 86.9336 3.7228C86.8787 3.57396 86.8694 3.4122 86.9069 3.25808C86.9444 3.10397 87.0271 2.96445 87.1443 2.85727C87.2616 2.75009 87.4081 2.68009 87.5654 2.65614C87.7738 2.62632 87.9856 2.67859 88.156 2.80187C88.3263 2.92515 88.4418 3.10974 88.478 3.3165Z" fill="white"/>
</g>
<defs>
<clipPath id="clip0">
<rect width="201" height="52" fill="white"/>
</clipPath>
</defs>
</svg>
