<svg width="33" height="32" viewBox="0 0 33 32" fill="none" xmlns="http://www.w3.org/2000/svg">
<path d="M30.9583 0.281213C24.4709 -0.718278 10.3108 0.712045 0.367259 8.40179C0.150421 8.56946 -0.0850279 8.89877 0.0303704 9.37816L0.35702 10.527C0.416581 10.7366 0.595032 10.8781 0.798607 10.9056C0.878874 10.9165 0.964025 10.9119 1.04545 10.882C10.9932 7.22054 21.8444 7.77486 27.6813 9.30208C28.5335 9.52501 29.402 8.98271 29.7364 8.17008L32.065 1.97494C32.2965 1.26128 31.8919 0.425055 30.9583 0.281213Z" fill="#FBDC00"/>
<path d="M23.4356 26.3071C23.3842 26.3149 23.3328 26.323 23.2793 26.3288V20.4748C23.3328 20.4808 23.3842 20.4886 23.4356 20.4965C25.4272 20.7874 26.6079 21.607 26.6079 23.3643C26.6079 25.1691 25.4272 26.0143 23.4356 26.3071ZM19.8006 26.3288C19.7354 26.3209 19.67 26.3112 19.6068 26.3013C17.6133 26.0044 16.4445 25.1612 16.4445 23.3643C16.4445 21.8195 17.3581 20.9997 18.9502 20.626C19.158 20.577 19.3774 20.5356 19.6068 20.5023C19.67 20.4926 19.7354 20.4826 19.8006 20.4748V26.3288ZM23.2793 16.9916V14.8291H19.8006V16.9916C19.3694 17.0348 18.9562 17.0917 18.5568 17.1664H18.5565L1.17188 17.1685V20.626H5.89274V29.6411H9.86979L9.8677 20.626H13.0884C12.685 21.4146 12.4695 22.3285 12.4695 23.3643C12.4695 27.2175 15.3272 29.368 19.8006 29.8122V31.9999H23.2793V29.8122C27.7272 29.3659 30.9567 27.2175 30.9567 23.3643C30.9567 19.5863 27.7272 17.4358 23.2793 16.9916Z" fill="white"/>
</svg>
