<svg width="220" height="57" viewBox="0 0 220 57" fill="none" xmlns="http://www.w3.org/2000/svg">
<g clip-path="url(#clip0)">
<path d="M70.4493 54.6639V51.0768C70.451 51.0468 70.4642 51.0187 70.4861 50.9981C70.508 50.9776 70.5369 50.9661 70.5669 50.9662H70.7746C70.8046 50.9661 70.8336 50.9776 70.8554 50.9981C70.8773 51.0187 70.8905 51.0468 70.8923 51.0768V51.7679H71.9236C71.9823 51.7679 72.0387 51.7912 72.0802 51.8327C72.1217 51.8742 72.1451 51.9305 72.1451 51.9891V52.1066C72.1451 52.1348 72.1344 52.1619 72.1151 52.1824C72.0958 52.203 72.0694 52.2154 72.0413 52.2172H70.8923V54.6777C70.8923 54.861 70.9652 55.0368 71.095 55.1665C71.2248 55.2961 71.4009 55.3689 71.5844 55.3689H72.1243C72.1844 55.3706 72.2415 55.3952 72.2839 55.4376C72.3264 55.48 72.351 55.537 72.3527 55.597V55.7075C72.351 55.7375 72.3378 55.7656 72.3159 55.7862C72.294 55.8068 72.2651 55.8182 72.2351 55.8181H71.5844C71.4328 55.8211 71.2821 55.793 71.1417 55.7358C71.0013 55.6786 70.874 55.5933 70.7678 55.4853C70.6615 55.3772 70.5784 55.2486 70.5237 55.1074C70.4689 54.9661 70.4436 54.8152 70.4493 54.6639Z" fill="#295135"/>
<path d="M80.1743 52.8737C80.1734 52.7265 80.2018 52.5804 80.2578 52.4442C80.3139 52.3079 80.3964 52.1841 80.5007 52.08C80.605 51.9758 80.729 51.8934 80.8655 51.8374C81.0019 51.7815 81.1482 51.7531 81.2957 51.754H81.9532C81.9826 51.754 82.0108 51.7657 82.0315 51.7864C82.0523 51.8072 82.064 51.8353 82.064 51.8646V51.9752C82.064 52.0357 82.0399 52.0937 81.9971 52.1365C81.9542 52.1793 81.8961 52.2033 81.8356 52.2033H81.2957C81.1121 52.2033 80.936 52.2761 80.8062 52.4057C80.6764 52.5354 80.6035 52.7112 80.6035 52.8945V55.6937C80.6035 55.723 80.5918 55.7511 80.571 55.7719C80.5503 55.7926 80.5221 55.8043 80.4927 55.8043H80.2712C80.2412 55.8043 80.2123 55.7929 80.1904 55.7723C80.1685 55.7518 80.1553 55.7236 80.1536 55.6937L80.1743 52.8737Z" fill="#295135"/>
<path d="M89.5463 54.6639V54.4635C89.5463 54.3168 89.5753 54.1715 89.6318 54.036C89.6882 53.9006 89.7709 53.7776 89.8751 53.6742C89.9793 53.5707 90.103 53.4889 90.239 53.4334C90.375 53.3779 90.5207 53.3498 90.6676 53.3507H92.2319V52.8531C92.2319 52.6698 92.159 52.494 92.0292 52.3643C91.8993 52.2347 91.7233 52.1619 91.5397 52.1619H90.3769C90.3466 52.1629 90.3165 52.1576 90.2883 52.1465C90.2602 52.1354 90.2346 52.1186 90.2132 52.0972C90.1918 52.0759 90.175 52.0503 90.1639 52.0222C90.1528 51.9941 90.1475 51.964 90.1485 51.9338V51.8302C90.1475 51.8151 90.1497 51.7999 90.1548 51.7857C90.1599 51.7715 90.168 51.7585 90.1783 51.7474C90.1887 51.7364 90.2013 51.7277 90.2152 51.7217C90.2291 51.7157 90.2441 51.7126 90.2592 51.7126H91.5397C91.8371 51.7126 92.1223 51.8306 92.3326 52.0406C92.5429 52.2506 92.661 52.5354 92.661 52.8323V55.5209C92.661 55.5814 92.637 55.6394 92.5941 55.6822C92.5513 55.725 92.4932 55.749 92.4326 55.749H90.6399C90.3532 55.7421 90.0801 55.6258 89.8767 55.4239C89.6733 55.2221 89.555 54.9501 89.5463 54.6639ZM89.9962 54.4842V54.6639C89.9962 54.8472 90.0691 55.023 90.1989 55.1526C90.3287 55.2822 90.5048 55.3551 90.6883 55.3551H92.2319V53.8345H90.6607C90.4922 53.8406 90.3317 53.9078 90.2094 54.0236C90.0871 54.1394 90.0112 54.2958 89.9962 54.4635V54.4842Z" fill="#295135"/>
<path d="M100.884 54.6639V52.8737C100.883 52.7265 100.912 52.5804 100.968 52.4442C101.024 52.3079 101.106 52.1841 101.21 52.08C101.315 51.9758 101.439 51.8934 101.575 51.8374C101.712 51.7815 101.858 51.7531 102.005 51.754H102.905C103.174 51.7537 103.434 51.8493 103.639 52.0236C103.785 52.1531 103.897 52.317 103.964 52.5005C103.971 52.518 103.974 52.5369 103.972 52.5556C103.969 52.5743 103.962 52.5921 103.951 52.6073C103.94 52.6226 103.925 52.6347 103.908 52.6426C103.891 52.6505 103.872 52.654 103.853 52.6526H103.618C103.596 52.6538 103.573 52.6478 103.555 52.6353C103.536 52.6229 103.522 52.6047 103.514 52.5835C103.457 52.4705 103.37 52.3753 103.263 52.3083C103.156 52.2413 103.032 52.205 102.905 52.2033H102.005C101.822 52.2033 101.646 52.2761 101.516 52.4057C101.386 52.5354 101.313 52.7112 101.313 52.8945V54.6846C101.313 54.8679 101.386 55.0437 101.516 55.1733C101.646 55.3029 101.822 55.3757 102.005 55.3757H102.905C103.033 55.3734 103.157 55.3361 103.264 55.2678C103.372 55.1995 103.458 55.1029 103.514 54.9887C103.522 54.9693 103.535 54.9528 103.552 54.9416C103.57 54.9304 103.591 54.9251 103.611 54.9265H103.853C103.872 54.9251 103.891 54.9285 103.908 54.9364C103.925 54.9443 103.94 54.9565 103.951 54.9717C103.962 54.9869 103.969 55.0048 103.972 55.0235C103.974 55.0422 103.971 55.0611 103.964 55.0786C103.895 55.259 103.784 55.4202 103.639 55.5485C103.435 55.7248 103.175 55.8228 102.905 55.825H102.005C101.855 55.8251 101.705 55.7948 101.566 55.736C101.428 55.6771 101.302 55.5909 101.197 55.4825C101.093 55.3741 101.011 55.2457 100.957 55.1051C100.903 54.9644 100.878 54.8143 100.884 54.6639Z" fill="#295135"/>
<path d="M114.561 55.7006L113.177 53.9935H112.346V55.673C112.348 55.6887 112.345 55.7044 112.34 55.7191C112.334 55.7338 112.325 55.7472 112.314 55.7583C112.303 55.7694 112.29 55.7781 112.275 55.7836C112.26 55.7891 112.245 55.7915 112.229 55.7905H112.007C111.992 55.7905 111.977 55.7874 111.963 55.7814C111.949 55.7755 111.937 55.7667 111.926 55.7557C111.916 55.7447 111.908 55.7316 111.903 55.7174C111.898 55.7032 111.896 55.6881 111.897 55.673V50.6551C111.897 50.6258 111.908 50.5977 111.929 50.577C111.95 50.5562 111.978 50.5446 112.007 50.5446H112.118C112.177 50.5445 112.235 50.5676 112.277 50.6089C112.32 50.6502 112.345 50.7064 112.346 50.7657V53.5304H113.149L114.361 51.8094C114.384 51.7849 114.412 51.7656 114.443 51.7525C114.474 51.7394 114.507 51.7329 114.541 51.7334H114.79C114.811 51.7327 114.832 51.7381 114.85 51.7489C114.868 51.7597 114.883 51.7755 114.892 51.7944C114.902 51.8133 114.906 51.8346 114.904 51.8556C114.901 51.8766 114.893 51.8966 114.88 51.9131L113.606 53.7723L115.053 55.597C115.065 55.6137 115.073 55.6333 115.075 55.6539C115.077 55.6745 115.074 55.6954 115.066 55.7144C115.057 55.7333 115.044 55.7497 115.027 55.7619C115.01 55.774 114.99 55.7815 114.97 55.7836H114.734C114.701 55.7841 114.668 55.7769 114.638 55.7625C114.608 55.7481 114.582 55.7269 114.561 55.7006Z" fill="#295135"/>
<path d="M122.923 50.7035C122.923 50.6735 122.934 50.6447 122.955 50.6228C122.975 50.601 123.004 50.5878 123.034 50.5861H123.144C123.203 50.5861 123.259 50.6094 123.301 50.6508C123.342 50.6923 123.366 50.7486 123.366 50.8072V50.9247C123.366 50.9541 123.354 50.9822 123.333 51.0029C123.313 51.0237 123.284 51.0353 123.255 51.0353H123.034C123.004 51.0353 122.976 51.0237 122.955 51.0029C122.935 50.9822 122.923 50.9541 122.923 50.9247V50.7035ZM122.923 51.8716C122.922 51.8565 122.924 51.8414 122.929 51.8272C122.934 51.8129 122.942 51.7999 122.953 51.7889C122.963 51.7779 122.976 51.7691 122.99 51.7631C123.003 51.7571 123.018 51.7541 123.034 51.7541H123.255C123.27 51.7541 123.285 51.7571 123.299 51.7631C123.313 51.7691 123.326 51.7779 123.336 51.7889C123.346 51.7999 123.354 51.8129 123.359 51.8272C123.365 51.8414 123.367 51.8565 123.366 51.8716V55.673C123.367 55.6881 123.365 55.7032 123.359 55.7174C123.354 55.7317 123.346 55.7447 123.336 55.7557C123.326 55.7667 123.313 55.7755 123.299 55.7815C123.285 55.7875 123.27 55.7905 123.255 55.7905H123.034C123.018 55.7905 123.003 55.7875 122.99 55.7815C122.976 55.7755 122.963 55.7667 122.953 55.7557C122.942 55.7447 122.934 55.7317 122.929 55.7174C122.924 55.7032 122.922 55.6881 122.923 55.673V51.8716Z" fill="#295135"/>
<path d="M134.261 52.8737C134.261 52.6904 134.188 52.5146 134.058 52.385C133.928 52.2554 133.752 52.1826 133.568 52.1826H131.997V55.6384C131.998 55.6535 131.996 55.6686 131.991 55.6828C131.986 55.697 131.978 55.7101 131.967 55.7211C131.957 55.7321 131.944 55.7408 131.931 55.7468C131.917 55.7528 131.902 55.7559 131.887 55.7559H131.686C131.655 55.7559 131.625 55.7435 131.603 55.7215C131.581 55.6994 131.568 55.6695 131.568 55.6384V51.837C131.568 51.8058 131.581 51.7759 131.603 51.7539C131.625 51.7319 131.655 51.7195 131.686 51.7195H133.589C133.887 51.7213 134.172 51.8408 134.383 52.0519C134.593 52.263 134.711 52.5485 134.711 52.8461V55.6107C134.711 55.6258 134.709 55.6409 134.704 55.6552C134.699 55.6694 134.691 55.6824 134.681 55.6934C134.67 55.7044 134.658 55.7132 134.644 55.7192C134.63 55.7252 134.615 55.7282 134.6 55.7282H134.378C134.363 55.7282 134.348 55.7252 134.334 55.7192C134.32 55.7132 134.308 55.7044 134.297 55.6934C134.287 55.6824 134.279 55.6694 134.274 55.6552C134.269 55.6409 134.267 55.6258 134.268 55.6107L134.261 52.8737Z" fill="#295135"/>
<path d="M143.529 56.7719C143.529 56.7423 143.535 56.7129 143.546 56.6856C143.558 56.6583 143.575 56.6336 143.596 56.613C143.617 56.5924 143.643 56.5762 143.67 56.5655C143.698 56.5548 143.728 56.5498 143.757 56.5507H144.92C145.104 56.5507 145.28 56.4779 145.409 56.3483C145.539 56.2187 145.612 56.0429 145.612 55.8596V55.5071H144.034C143.886 55.5071 143.74 55.4779 143.603 55.4212C143.467 55.3645 143.343 55.2814 143.239 55.1767C143.135 55.072 143.052 54.9477 142.996 54.8111C142.94 54.6745 142.912 54.5281 142.913 54.3805V52.8599C142.912 52.7126 142.94 52.5666 142.996 52.4304C143.052 52.2941 143.135 52.1703 143.239 52.0662C143.343 51.962 143.467 51.8796 143.604 51.8236C143.74 51.7677 143.887 51.7393 144.034 51.7403H145.944C145.96 51.7402 145.975 51.7433 145.988 51.7493C146.002 51.7553 146.015 51.764 146.025 51.7751C146.036 51.7861 146.044 51.7991 146.049 51.8133C146.054 51.8275 146.056 51.8427 146.055 51.8578V55.8458C146.055 56.1433 145.937 56.4288 145.727 56.6399C145.517 56.851 145.232 56.9705 144.934 56.9723H143.653C143.638 56.9724 143.623 56.9693 143.609 56.9633C143.595 56.9573 143.583 56.9486 143.573 56.9375C143.562 56.9265 143.554 56.9135 143.549 56.8993C143.544 56.8851 143.542 56.8699 143.543 56.8548L143.529 56.7719ZM143.349 52.8738V54.3943C143.349 54.5776 143.422 54.7534 143.552 54.883C143.681 55.0127 143.857 55.0855 144.041 55.0855H145.619V52.2172H144.041C143.863 52.2169 143.692 52.285 143.563 52.4072C143.435 52.5295 143.358 52.6965 143.349 52.8738Z" fill="#295135"/>
<path d="M154.071 55.5623C154.07 55.5327 154.075 55.5032 154.085 55.4756C154.096 55.4479 154.112 55.4227 154.133 55.4015C154.154 55.3802 154.178 55.3633 154.206 55.3517C154.233 55.3402 154.262 55.3342 154.292 55.3343H156.085C156.177 55.3363 156.268 55.3189 156.353 55.2832C156.438 55.2475 156.514 55.1942 156.576 55.1269C156.639 55.0604 156.688 54.9821 156.72 54.8967C156.752 54.8113 156.767 54.7204 156.763 54.6293C156.75 54.4547 156.671 54.2916 156.542 54.1731C156.415 54.0579 156.25 53.9939 156.078 53.9934H155.22C154.926 53.9914 154.646 53.8748 154.438 53.6686C154.334 53.5677 154.251 53.4474 154.194 53.3145C154.137 53.1817 154.107 53.039 154.105 52.8945C154.102 52.7474 154.129 52.6012 154.183 52.4646C154.238 52.328 154.32 52.2039 154.424 52.0996C154.642 51.8801 154.938 51.7559 155.247 51.754H156.763C156.778 51.754 156.792 51.7569 156.806 51.7625C156.819 51.768 156.831 51.7762 156.842 51.7864C156.852 51.7967 156.86 51.8089 156.866 51.8223C156.871 51.8357 156.874 51.8501 156.874 51.8646V51.9752C156.874 52.0357 156.85 52.0937 156.807 52.1365C156.764 52.1793 156.706 52.2033 156.646 52.2033H155.22C155.037 52.2059 154.863 52.2804 154.735 52.4106C154.674 52.4777 154.626 52.5562 154.596 52.6416C154.565 52.727 154.551 52.8176 154.555 52.9083C154.567 53.0819 154.643 53.2448 154.77 53.3644C154.898 53.4784 155.062 53.5444 155.234 53.5511H156.099C156.252 53.5507 156.403 53.5804 156.544 53.6385C156.686 53.6966 156.814 53.782 156.922 53.8897C157.027 53.9936 157.11 54.1176 157.166 54.2541C157.222 54.3907 157.25 54.5371 157.248 54.6846C157.242 54.9791 157.121 55.2596 156.91 55.4654C156.698 55.6711 156.415 55.7854 156.119 55.7835H154.181C154.167 55.7835 154.152 55.7807 154.139 55.7751C154.126 55.7695 154.113 55.7614 154.103 55.7511C154.093 55.7408 154.085 55.7287 154.079 55.7152C154.074 55.7018 154.071 55.6874 154.071 55.6729V55.5623Z" fill="#295135"/>
<path d="M165.166 54.6639V52.8737C165.165 52.727 165.193 52.5816 165.249 52.4458C165.305 52.31 165.386 52.1865 165.49 52.0824C165.594 51.9784 165.717 51.8958 165.852 51.8394C165.988 51.7831 166.134 51.754 166.28 51.754H167.18C167.328 51.7531 167.475 51.7814 167.612 51.8373C167.748 51.8932 167.873 51.9755 167.978 52.0796C168.083 52.1836 168.166 52.3074 168.223 52.4437C168.279 52.5799 168.309 52.7261 168.309 52.8737V53.7723C168.309 53.8327 168.285 53.8907 168.242 53.9335C168.199 53.9763 168.141 54.0003 168.08 54.0003H165.602V54.6915C165.602 54.8748 165.675 55.0506 165.805 55.1802C165.935 55.3098 166.111 55.3826 166.294 55.3826H167.194C167.323 55.3816 167.448 55.3449 167.557 55.2765C167.666 55.2081 167.754 55.1109 167.81 54.9956C167.818 54.9762 167.831 54.9598 167.848 54.9486C167.866 54.9374 167.886 54.932 167.907 54.9334H168.149C168.168 54.9332 168.186 54.9375 168.202 54.9459C168.218 54.9544 168.232 54.9666 168.242 54.9817C168.252 54.9967 168.259 55.0141 168.261 55.0322C168.263 55.0503 168.26 55.0686 168.253 55.0855C168.173 55.3024 168.029 55.4899 167.84 55.6233C167.651 55.7566 167.426 55.8293 167.194 55.8319H166.294C166.142 55.833 165.992 55.8032 165.852 55.7443C165.711 55.6855 165.585 55.5988 165.479 55.4896C165.374 55.3803 165.292 55.2508 165.238 55.1088C165.184 54.9669 165.16 54.8155 165.166 54.6639ZM165.616 52.8737V53.5649H167.859V52.8737C167.859 52.6904 167.786 52.5146 167.656 52.385C167.526 52.2554 167.35 52.1826 167.166 52.1826H166.294C166.111 52.1826 165.935 52.2554 165.805 52.385C165.675 52.5146 165.602 52.6904 165.602 52.8737H165.616Z" fill="#295135"/>
<path d="M176.504 52.8737C176.503 52.727 176.531 52.5816 176.587 52.4458C176.642 52.31 176.724 52.1865 176.828 52.0824C176.932 51.9783 177.055 51.8957 177.19 51.8394C177.326 51.783 177.471 51.754 177.618 51.754H178.276C178.306 51.754 178.335 51.7654 178.357 51.786C178.379 51.8065 178.392 51.8347 178.394 51.8646V51.9752C178.392 52.0351 178.367 52.0922 178.325 52.1346C178.282 52.177 178.225 52.2016 178.165 52.2033H177.618C177.435 52.2033 177.259 52.2761 177.129 52.4057C176.999 52.5353 176.926 52.7112 176.926 52.8945V55.6937C176.924 55.7236 176.911 55.7517 176.889 55.7723C176.868 55.7929 176.839 55.8043 176.809 55.8042H176.587C176.558 55.8042 176.529 55.7926 176.509 55.7718C176.488 55.7511 176.476 55.723 176.476 55.6937L176.504 52.8737Z" fill="#295135"/>
<path d="M187.253 55.6384L185.869 51.9061C185.862 51.8893 185.86 51.871 185.861 51.8529C185.863 51.8348 185.87 51.8174 185.88 51.8024C185.89 51.7873 185.904 51.7751 185.92 51.7666C185.937 51.7582 185.955 51.7539 185.973 51.7541H186.132C186.178 51.7555 186.222 51.7699 186.26 51.7956C186.298 51.8213 186.328 51.8572 186.347 51.8992L187.586 55.279L188.825 51.8992C188.841 51.8562 188.871 51.8193 188.909 51.7933C188.947 51.7674 188.993 51.7537 189.039 51.7541H189.191C189.21 51.7527 189.229 51.7561 189.246 51.764C189.263 51.772 189.278 51.7841 189.289 51.7993C189.3 51.8146 189.307 51.8324 189.309 51.8511C189.312 51.8698 189.309 51.8887 189.302 51.9061L187.918 55.6384C187.901 55.6815 187.871 55.7184 187.833 55.7443C187.795 55.7702 187.749 55.7839 187.703 55.7836H187.433C187.393 55.7769 187.356 55.76 187.324 55.7346C187.293 55.7092 187.268 55.676 187.253 55.6384Z" fill="#295135"/>
<path d="M197.172 50.7035C197.174 50.6729 197.187 50.644 197.208 50.6223C197.23 50.6006 197.259 50.5877 197.29 50.586H197.394C197.423 50.5851 197.453 50.5902 197.481 50.6009C197.508 50.6116 197.533 50.6277 197.555 50.6483C197.576 50.6689 197.593 50.6936 197.605 50.7209C197.616 50.7482 197.622 50.7776 197.622 50.8072V50.9247C197.622 50.954 197.61 50.9822 197.59 51.0029C197.569 51.0236 197.541 51.0353 197.511 51.0353H197.29C197.26 51.0353 197.231 51.0239 197.209 51.0034C197.187 50.9828 197.174 50.9547 197.172 50.9247V50.7035ZM197.172 51.8716C197.172 51.8404 197.185 51.8105 197.207 51.7885C197.229 51.7665 197.259 51.7541 197.29 51.7541H197.511C197.526 51.7541 197.541 51.7571 197.555 51.7631C197.569 51.7691 197.582 51.7779 197.592 51.7889C197.603 51.7999 197.611 51.8129 197.616 51.8272C197.621 51.8414 197.623 51.8565 197.622 51.8716V55.673C197.623 55.6881 197.621 55.7032 197.616 55.7174C197.611 55.7316 197.603 55.7447 197.592 55.7557C197.582 55.7667 197.569 55.7755 197.555 55.7815C197.541 55.7874 197.526 55.7905 197.511 55.7905H197.29C197.259 55.7905 197.229 55.7781 197.207 55.7561C197.185 55.734 197.172 55.7041 197.172 55.673V51.8716Z" fill="#295135"/>
<path d="M205.817 54.6639V52.8737C205.817 52.7265 205.845 52.5804 205.901 52.4442C205.957 52.3079 206.04 52.1841 206.144 52.08C206.248 51.9758 206.372 51.8934 206.509 51.8374C206.645 51.7815 206.791 51.7531 206.939 51.754H207.825C208.094 51.7537 208.354 51.8493 208.558 52.0236C208.705 52.1531 208.817 52.317 208.884 52.5005C208.891 52.5174 208.893 52.5357 208.891 52.5538C208.889 52.5719 208.883 52.5892 208.873 52.6043C208.862 52.6193 208.848 52.6316 208.832 52.64C208.816 52.6484 208.798 52.6528 208.78 52.6526H208.545C208.521 52.6543 208.498 52.6485 208.478 52.636C208.458 52.6236 208.443 52.6052 208.434 52.5835C208.377 52.4705 208.29 52.3753 208.183 52.3083C208.075 52.2413 207.951 52.205 207.825 52.2033H206.925C206.741 52.2033 206.565 52.2761 206.435 52.4057C206.306 52.5354 206.233 52.7112 206.233 52.8945V54.6846C206.233 54.8679 206.306 55.0437 206.435 55.1733C206.565 55.3029 206.741 55.3757 206.925 55.3757H207.825C207.952 55.3734 208.076 55.3361 208.184 55.2678C208.291 55.1995 208.378 55.1029 208.434 54.9887C208.442 54.9688 208.457 54.9521 208.476 54.9409C208.494 54.9297 208.516 54.9247 208.538 54.9265H208.78C208.798 54.9263 208.816 54.9306 208.832 54.939C208.848 54.9474 208.862 54.9597 208.873 54.9748C208.883 54.9898 208.889 55.0071 208.891 55.0253C208.893 55.0434 208.891 55.0617 208.884 55.0786C208.815 55.259 208.703 55.4202 208.558 55.5485C208.355 55.7248 208.094 55.8228 207.825 55.825H206.925C206.775 55.8233 206.627 55.7916 206.49 55.732C206.353 55.6723 206.229 55.5858 206.126 55.4776C206.023 55.3694 205.942 55.2416 205.889 55.1019C205.836 54.9621 205.812 54.8132 205.817 54.6639Z" fill="#295135"/>
<path d="M216.858 54.6639V52.8737C216.857 52.7265 216.885 52.5804 216.941 52.4442C216.997 52.3079 217.08 52.1841 217.184 52.08C217.288 51.9758 217.412 51.8934 217.549 51.8374C217.685 51.7815 217.831 51.7531 217.979 51.754H218.899C219.047 51.7531 219.194 51.7814 219.331 51.8373C219.468 51.8932 219.592 51.9755 219.697 52.0796C219.802 52.1836 219.885 52.3074 219.942 52.4436C219.998 52.5799 220.028 52.7261 220.028 52.8737V53.7722C220.029 53.8025 220.023 53.8325 220.012 53.8606C220.001 53.8888 219.984 53.9143 219.963 53.9357C219.942 53.957 219.916 53.9738 219.888 53.9849C219.86 53.996 219.83 54.0013 219.799 54.0003H217.307V54.6915C217.307 54.8748 217.38 55.0506 217.51 55.1802C217.64 55.3098 217.816 55.3826 218 55.3826H218.899C219.028 55.3816 219.154 55.3449 219.262 55.2765C219.371 55.2081 219.459 55.1109 219.515 54.9956C219.523 54.9762 219.536 54.9598 219.554 54.9486C219.571 54.9374 219.592 54.932 219.612 54.9334H219.855C219.873 54.932 219.892 54.9354 219.909 54.9433C219.926 54.9513 219.941 54.9634 219.952 54.9786C219.963 54.9939 219.971 55.0117 219.973 55.0304C219.975 55.049 219.972 55.068 219.965 55.0854C219.894 55.2663 219.78 55.4274 219.633 55.5554C219.43 55.7328 219.169 55.8309 218.899 55.8319H218.007C217.853 55.8359 217.7 55.8082 217.557 55.7506C217.415 55.693 217.286 55.6067 217.178 55.4972C217.07 55.3876 216.986 55.2571 216.931 55.1138C216.876 54.9704 216.851 54.8173 216.858 54.6639ZM217.307 52.8737V53.5649H219.55V52.8737C219.55 52.6904 219.477 52.5146 219.347 52.385C219.218 52.2554 219.041 52.1826 218.858 52.1826H217.965C217.787 52.1915 217.62 52.2682 217.498 52.3968C217.375 52.5255 217.307 52.6963 217.307 52.8737Z" fill="#295135"/>
<path d="M88.8749 45.0637V29.7338H99.8458C100.415 29.7323 100.978 29.8476 101.5 30.0724C102.015 30.2952 102.485 30.6116 102.884 31.0055C103.29 31.4012 103.617 31.8703 103.847 32.3878C104.091 32.9287 104.216 33.5156 104.213 34.1088C104.224 34.7326 104.096 35.351 103.837 35.9189C103.579 36.4869 103.196 36.99 102.718 37.3918C103.196 37.7936 103.579 38.2968 103.837 38.8647C104.096 39.4327 104.224 40.051 104.213 40.6748C104.216 41.2519 104.101 41.8234 103.874 42.3544C103.653 42.8698 103.336 43.3388 102.94 43.7367C102.541 44.1353 102.072 44.4564 101.555 44.6836C101.013 44.9287 100.427 45.0604 99.832 45.0706L88.8749 45.0637ZM91.0691 36.3067H99.8458C100.135 36.3126 100.423 36.2592 100.69 36.1498C100.958 36.0404 101.201 35.8774 101.403 35.6708C101.609 35.4681 101.772 35.2257 101.881 34.9584C101.991 34.6911 102.045 34.4045 102.04 34.1157C102.046 33.8268 101.992 33.5398 101.883 33.2723C101.773 33.0049 101.61 32.7626 101.403 32.5606C101.202 32.352 100.96 32.1876 100.692 32.0781C100.424 31.9686 100.135 31.9164 99.8458 31.9248H91.0691V36.3067ZM91.0691 38.4908V42.8727H99.8458C100.134 42.8727 100.419 42.8161 100.685 42.706C100.952 42.5959 101.194 42.4344 101.397 42.231C101.601 42.0275 101.763 41.786 101.873 41.5202C101.983 41.2544 102.04 40.9695 102.04 40.6818C102.04 40.394 101.983 40.1091 101.873 39.8433C101.763 39.5775 101.601 39.336 101.397 39.1325C101.194 38.9291 100.952 38.7677 100.685 38.6575C100.419 38.5474 100.134 38.4908 99.8458 38.4908H91.0691Z" fill="#295135"/>
<path d="M122.611 45.0637H120.424V40.6817H109.453V45.0637H107.259V34.1157C107.258 33.5426 107.376 32.9754 107.605 32.45C107.824 31.9346 108.138 31.4655 108.533 31.0677C108.93 30.6627 109.4 30.3347 109.917 30.1001C110.459 29.8574 111.047 29.7348 111.641 29.7407H118.223C118.797 29.7373 119.365 29.8527 119.891 30.0793C120.408 30.2995 120.878 30.6162 121.276 31.0124C121.675 31.412 121.998 31.8803 122.231 32.3947C122.474 32.9364 122.604 33.5221 122.611 34.1157V45.0637ZM111.647 31.9316C111.358 31.9233 111.07 31.9755 110.801 32.085C110.533 32.1945 110.291 32.3589 110.09 32.5675C109.883 32.7695 109.72 33.0118 109.61 33.2792C109.501 33.5467 109.447 33.8337 109.453 34.1226V38.4977H120.424V34.1226C120.427 33.8341 120.372 33.548 120.263 33.2809C120.154 33.0138 119.992 32.7712 119.788 32.5672C119.583 32.3632 119.34 32.2019 119.073 32.0928C118.805 31.9837 118.519 31.9289 118.23 31.9316H111.647Z" fill="#295135"/>
<path d="M139.445 45.0636L135.057 40.6817H127.844V45.0636H125.65V29.7337H136.614C137.185 29.7313 137.751 29.8466 138.275 30.0723C139.329 30.5211 140.175 31.3504 140.642 32.3947C140.885 32.9356 141.008 33.5227 141.002 34.1156V36.3066C141.006 36.7629 140.931 37.2165 140.781 37.6475C140.638 38.0764 140.427 38.4799 140.158 38.8432C139.886 39.2127 139.562 39.541 139.196 39.8177C138.821 40.1 138.402 40.3194 137.957 40.4674L141.002 43.5085V45.0636H139.445ZM138.808 34.1156C138.811 33.8271 138.756 33.541 138.647 33.2739C138.538 33.0068 138.376 32.7642 138.172 32.5602C137.967 32.3562 137.724 32.1949 137.457 32.0858C137.19 31.9767 136.903 31.9219 136.614 31.9247H127.844V38.4907H136.614C136.902 38.4934 137.188 38.4389 137.455 38.3302C137.722 38.2215 137.965 38.0608 138.169 37.8576C138.373 37.6543 138.535 37.4125 138.645 37.1462C138.755 36.8799 138.81 36.5945 138.808 36.3066V34.1156Z" fill="#295135"/>
<path d="M144.041 29.7338H146.221V45.0637H144.027L144.041 29.7338Z" fill="#295135"/>
<path d="M164.619 40.6817C164.622 41.2661 164.504 41.8448 164.273 42.3819C163.819 43.4277 162.982 44.2609 161.934 44.7112C161.4 44.9464 160.822 45.0665 160.238 45.0637H153.655C153.064 45.0696 152.477 44.9544 151.932 44.725C150.882 44.2849 150.047 43.4511 149.606 42.4027C149.38 41.8572 149.264 41.2722 149.267 40.6817V34.1157C149.263 33.5304 149.383 32.951 149.62 32.4154C149.845 31.9002 150.164 31.4314 150.561 31.0331C150.958 30.6344 151.428 30.3153 151.946 30.0931C152.482 29.8581 153.062 29.7381 153.648 29.7406H160.231C160.803 29.7387 161.37 29.8589 161.892 30.0931C162.406 30.3211 162.875 30.6395 163.277 31.0331C163.68 31.4306 164.006 31.8993 164.239 32.4154C164.48 32.9496 164.603 33.5296 164.599 34.1157L164.619 40.6817ZM162.425 34.1157C162.43 33.8273 162.376 33.5408 162.268 33.2734C162.16 33.0059 161.999 32.7628 161.795 32.5585C161.591 32.3542 161.348 32.1929 161.081 32.084C160.813 31.9751 160.527 31.921 160.238 31.9247H153.655C153.366 31.9163 153.077 31.9686 152.809 32.0781C152.541 32.1876 152.299 32.3519 152.098 32.5606C151.891 32.7626 151.728 33.0048 151.618 33.2723C151.509 33.5397 151.455 33.8268 151.461 34.1157V40.6817C151.458 40.9702 151.513 41.2563 151.622 41.5234C151.732 41.7905 151.893 42.0331 152.098 42.2371C152.302 42.4411 152.545 42.6024 152.812 42.7115C153.08 42.8207 153.366 42.8755 153.655 42.8727H160.238C160.527 42.8773 160.814 42.8234 161.082 42.7141C161.349 42.6048 161.592 42.4424 161.795 42.2368C162.001 42.0344 162.163 41.792 162.272 41.5245C162.38 41.257 162.432 40.9702 162.425 40.6817V34.1157Z" fill="#295135"/>
<path d="M183.01 45.0637H180.83L169.866 33.314V45.0637H167.679V29.7338H169.873L180.83 41.3314V29.7338H183.024L183.01 45.0637Z" fill="#295135"/>
<path d="M194.819 40.2463V45.0844H192.597V40.2463L186.049 33.0375V29.7545H188.236V32.139L193.725 38.1659L199.207 32.139V29.7545H201.401V33.0375L194.819 40.2463Z" fill="#295135"/>
<path d="M219.785 29.7338V33.0375L213.93 37.4402L219.785 41.8429V45.0844H217.591V42.9349L212.109 38.788L206.627 42.9349V45.0844H204.433V41.8429L210.289 37.4402L204.433 33.0375V29.7545H206.627V31.9455L212.109 36.0579L217.591 31.9455V29.7545L219.785 29.7338Z" fill="#295135"/>
<path d="M69.1479 32.2565L68.9611 32.0353L79.6344 23.1262L79.8143 23.3474L69.1479 32.2565Z" fill="#295135"/>
<path d="M42.6652 19.6298L42.3818 19.6946L44.879 30.5818L45.1624 30.517L42.6652 19.6298Z" fill="#295135"/>
<path d="M29.978 35.1594L24.406 30.4111L24.5929 30.1899L29.7842 34.6134L28.1299 29.3467L28.296 29.1601L42.0149 32.0353L34.3456 25.2274L34.5394 25.0062L42.6171 32.1805L42.4855 32.4362L28.4829 29.4988L30.2133 35.0073L29.978 35.1594Z" fill="#295135"/>
<path d="M20.246 39.9006L14.4595 35.3528L13.2759 39.7555L13.0475 39.8315L8.16072 36.0025L9.01901 38.311L8.74215 38.4077L7.71082 35.6431L7.93922 35.4772L13.0544 39.4859L14.238 35.0832L14.4664 35.0072L20.0038 39.3477L17.7127 33.8184L17.8857 33.6249C23.347 35.3459 25.9011 36.1476 27.0916 36.5416C26.4341 36.0716 25.3128 35.2422 23.3885 33.8184L23.4993 33.5558L30.158 34.9381L30.0957 35.2215L24.0945 33.9912C25.7765 35.2284 27.9222 36.8042 28.0745 36.8872C28.1576 36.9287 28.1576 36.9494 28.1645 36.9701L28.123 37.1153C28.0884 37.1153 28.0676 37.1636 27.9638 37.1153C27.7284 37.0116 21.0421 34.8966 18.1142 33.9774L20.5021 39.7278L20.246 39.9006Z" fill="#295135"/>
<path d="M104.338 14.3001L103.106 11.3973L97.8523 12.3787L97.7139 12.1437L100.358 9.151L100.579 9.34453L98.2122 12.0193L103.168 11.0863L103.327 11.1761L104.608 14.1896L104.338 14.3001Z" fill="#295135"/>
<path d="M111.474 7.036L109.682 4.47179L102.566 3.12403L102.621 2.83374L109.792 4.19533L109.889 4.25753L111.592 6.69042L112.824 4.87958L113.066 5.04545L111.717 7.02908L111.474 7.036Z" fill="#295135"/>
<path d="M92.551 0.0683625L92.3419 0.27002L95.876 3.92427L96.0851 3.72262L92.551 0.0683625Z" fill="#295135"/>
<path d="M88.0513 12.2957L84.9988 2.54346L85.241 2.39832L90.287 7.56128L93.291 10.7337L95.8382 3.84975L96.0182 3.7599L100.725 5.1906L100.642 5.46707L96.0666 4.07784L93.4848 11.0516L93.2426 11.1069L90.0724 7.76172L85.4556 3.03418L88.3281 12.2059L88.0513 12.2957Z" fill="#295135"/>
<path d="M83.4829 16.3459L83.2614 16.3044L79.9805 10.395L80.2366 10.2499L83.4344 16.0142L88.1619 12.1437L88.3488 12.3717L83.4829 16.3459Z" fill="#295135"/>
<path d="M49.0957 30.964L48.8673 30.8465L48.5697 16.3321L45.1642 30.5632L44.8873 30.494L48.5351 15.2125H48.7012L48.7981 15.1503L55.7198 26.2088L55.6852 26.4024L49.0957 30.964ZM48.8466 15.7585L49.1511 30.5839L55.436 26.2365L48.8466 15.7585Z" fill="#295135"/>
<path d="M55.4211 10.9843L55.1305 10.9913L55.4992 26.2754L55.7899 26.2684L55.4211 10.9843Z" fill="#295135"/>
<path d="M79.6897 23.382L73.1902 21.6955L73.1072 21.4743L79.9804 10.243L80.1396 10.1808L88.2242 12.1091L88.155 12.3925L80.1743 10.4918L73.4533 21.4605L79.759 23.0986L79.6897 23.382Z" fill="#295135"/>
<path d="M52.9443 46.8607L52.7436 46.6533L57.4088 42.0709C52.7089 41.3798 52.6674 41.2968 52.6328 41.207V41.0549C52.6674 41.0135 52.7297 40.9236 61.7972 37.3434L51.3523 37.4885L51.3038 37.2052L62.7662 33.9083L53.768 34.4129L53.6157 34.2401L55.4499 26.271L55.6853 26.195L63.8529 33.3208L62.2817 18.3296V18.2535L66.2132 10.0011H66.4693L73.3149 21.4882L73.0657 21.6402L66.3586 10.3812L62.5655 18.3503L64.1713 33.6733L64.0467 33.7355V33.8254L52.4459 37.1844L62.6001 37.0393L62.6555 37.3227C59.3261 38.6359 54.5086 40.5504 53.1865 41.1102C54.0518 41.2761 56.2806 41.6148 57.741 41.8014L57.8241 42.0502L52.9443 46.8607ZM55.713 26.5751L53.9756 34.1157L63.666 33.5628L55.713 26.5751Z" fill="#295135"/>
<path d="M83.3829 16.0998L73.1589 21.4257L73.2934 21.683L83.5174 16.3572L83.3829 16.0998Z" fill="#295135"/>
<path d="M64.1852 33.7632L63.9498 33.5835C73.045 21.3016 73.1419 21.35 73.2872 21.4122L73.3703 21.5781C73.308 21.9029 70.304 29.4159 69.4041 31.6621L72.1313 29.402L72.3113 29.6232L69.148 32.2565L68.9196 32.0906C70.2555 28.7592 72.1313 24.0455 72.8235 22.2485C71.3837 24.0524 67.1338 29.7752 64.1852 33.7632Z" fill="#295135"/>
<path d="M54.5501 56.9309L54.2871 56.841L54.3771 51.9269L50.1686 53.7377L49.9956 53.5165L55.0623 46.4874L55.2976 46.6602L50.5355 53.2608L54.467 51.5675L54.6747 51.7057L54.5847 56.3987L56.3151 54.1317L56.5505 54.3044L54.5501 56.9309Z" fill="#295135"/>
<path d="M62.3163 52.542L59.6376 49.7774L59.596 49.653C59.9283 47.6693 60.3782 44.8148 60.5374 43.7021C59.9698 44.5453 58.7308 46.4667 57.8656 47.849L57.5957 47.773V42.5478L55.3184 46.6948L55.1938 46.7708L52.9789 46.8261V46.5289L55.1038 46.4805L57.6095 41.9465L57.8864 42.0156V47.303C60.5512 43.1561 60.6205 43.1146 60.6551 43.0938H60.8004C60.8835 43.163 60.9319 43.2113 59.8937 49.5355L62.8354 49.0724L63.0015 49.2383L62.5378 52.4936L62.3163 52.542ZM60.046 49.7774L62.3163 52.1204L62.7108 49.3558L60.046 49.7774Z" fill="#295135"/>
<path d="M81.6348 35.4289L78.9215 29.3259C78.167 29.9134 77.0872 30.7705 77.0042 30.8672L76.8381 30.9156L76.7412 30.7636C76.7378 30.7406 76.7378 30.7174 76.7412 30.6944C76.9557 30.183 78.257 27.2387 78.9146 26.0499C78.3055 26.3263 77.0042 26.8585 74.2493 27.9851L74.097 27.7432L77.4749 24.9094L77.6618 25.1306L75.0038 27.3631C76.8519 26.6028 79.0599 25.6904 79.2053 25.6006C79.2214 25.5857 79.2402 25.5739 79.2607 25.566L79.4268 25.6766C79.4268 25.7181 79.4268 25.7526 79.3576 25.8218C79.1499 26.0291 77.7932 28.9942 77.2326 30.259C77.5856 29.9687 78.1255 29.5678 78.8592 28.9734L79.0807 29.0288L81.8494 35.3045L81.6348 35.4289Z" fill="#295135"/>
<path d="M72.6302 32.1752L72.3405 32.1982L72.548 34.8026L72.8378 34.7796L72.6302 32.1752Z" fill="#295135"/>
<path d="M55.7198 26.2433L55.4983 26.0498L62.3439 18.219L62.4962 18.1775L73.2733 21.4121L73.1833 21.6955L62.5031 18.4816L55.7198 26.2433Z" fill="#295135"/>
<path d="M55.3749 10.9259L55.1675 11.1293L62.3548 18.4376L62.5623 18.2342L55.3749 10.9259Z" fill="#295135"/>
<path d="M77.191 38.1658L74.27 35.7744L74.4569 35.5463L76.928 37.5714L77.1771 32.3394L77.4678 32.3532L77.191 38.1658Z" fill="#295135"/>
<path d="M54.4047 57L49.7256 53.6824L52.6951 46.7155L52.6189 41.1862L51.193 37.3295L53.588 34.3161L48.9643 31.04L45.0812 30.7082L42.5548 32.4568L30.1441 35.2215L28.0191 37.1636L20.3568 39.949L13.0613 39.8799L8.7629 38.4976L0 31.6551L7.84923 35.4496L14.3141 34.9865L17.775 33.6387L23.3124 33.5627L24.3298 30.2037L28.1507 29.1946L42.7624 19.2764L49.9956 14.1273L55.2007 10.8857L66.317 9.94574L79.9736 10.2015L85.0126 2.37063L87.449 2.69548L92.3704 0.0275879H92.4327L102.49 2.79223L102.559 2.70238L102.635 2.8268L102.794 2.87517L102.718 2.96502L105.812 7.85153L109.612 4.14692L112.976 4.83808L114.935 7.63727L111.544 7.09817L105.764 8.34225H105.722L100.676 5.5776L97.7001 9.53796L100.51 9.10945L103.231 11.0931L105.757 10.6991L104.954 13.4637L107.55 10.9548L106.511 14.4106L110.699 12.3372L111.959 14.7769L109.834 17.6867L106.075 14.9083L93.3187 11.1553L88.2935 12.3855L83.5383 16.3182L79.8213 23.3612L77.8763 24.9854L79.4683 25.6351L79.1568 28.9457L83.6283 31.4478L81.8494 35.6155L76.838 31.0192L74.2355 28.0472L72.3735 29.5816L72.6158 32.0491L77.461 32.3601L72.7819 37.5576L72.5466 34.8759L69.0234 32.3117L64.1782 33.7977L62.7108 37.288L57.9902 41.9119L60.8558 43.0731L63.0223 49.1207L66.1994 52.9083L59.4576 52.4452L59.6029 49.7428L57.6649 47.8766L55.3668 46.9505L54.6747 51.6711L56.5089 54.0902L61.2019 55.1615L54.4047 57ZM50.0856 53.5787L54.4601 56.682L59.9975 55.1822L56.3428 54.3459L54.3701 51.7402L55.1177 46.5358L57.8379 47.6416L59.9144 49.6183L59.776 52.1687L65.5487 52.5696L62.78 49.2313L60.6481 43.2873L57.4641 42.0225L62.4824 37.1084L63.9567 33.5696L69.0857 31.9938L72.8304 34.7238L73.0242 36.8733L76.8449 32.6227L72.3528 32.3324L72.069 29.4641L74.2355 27.6464L77.0042 30.8188L81.704 35.1247L83.2406 31.5583L78.8315 29.0978L79.143 25.8079L77.3018 25.0614L79.5998 23.14L83.3445 16.1109L88.1897 12.116L93.3256 10.8512H93.3602L104.435 14.1065L105.342 11.024L103.154 11.3695L100.427 9.38591L97.0287 9.89736L100.635 5.12144L102.331 3.04796L92.4534 0.283314L87.5459 2.94429L85.1995 2.62636L80.1743 10.4365L66.3308 10.1807L55.2561 11.1138L50.2171 14.3761L42.9839 19.5252L28.3029 29.4779L24.6206 30.4525L23.5823 33.8599L17.8304 33.9359L14.3695 35.2837L7.8077 35.7537L2.33955 33.1065L8.93595 38.2626L13.1443 39.6104L20.3499 39.6726L27.9015 36.9079L30.0195 34.9588L42.4786 32.1942L45.0189 30.4179L49.0889 30.7704L54.0033 34.2262L51.5184 37.3572L52.9027 41.124L52.9789 46.7708L50.0856 53.5787ZM106.352 14.7286L109.772 17.2167L111.62 14.6871L110.575 12.662L106.352 14.7286ZM104.594 14.1618L106.117 14.6111L106.948 11.8879L104.594 14.1618ZM109.758 4.48558L106.193 7.94138L111.613 6.77332L114.381 7.20875L112.879 5.06615L109.758 4.48558ZM100.905 5.28041L105.487 7.81698L102.58 3.22766L100.905 5.28041Z" fill="#295135"/>
<path d="M97.4994 12.2542L95.8313 3.80133L95.9628 3.62854L102.476 2.93738L102.504 3.22767L96.1497 3.905L97.7901 12.1989L97.4994 12.2542Z" fill="#295135"/>
<path d="M87.5441 2.6752L87.5111 2.96362L96.1211 3.94621L96.1541 3.65779L87.5441 2.6752Z" fill="#295135"/>
<path d="M34.5085 24.9971L34.3761 25.2555L44.9744 30.671L45.1068 30.4126L34.5085 24.9971Z" fill="#295135"/>
<path d="M110.51 12.461L109.679 17.4099L109.966 17.4579L110.796 12.509L110.51 12.461Z" fill="#295135"/>
<path d="M96.8418 3.63547C96.8767 3.80699 96.8595 3.98504 96.7924 4.14673C96.7252 4.30842 96.6112 4.44638 96.465 4.54287C96.3187 4.63937 96.1469 4.68998 95.9717 4.68824C95.7964 4.6865 95.6256 4.63248 95.4813 4.53311C95.337 4.43373 95.2257 4.29356 95.1618 4.13058C95.0979 3.96759 95.0843 3.78924 95.1226 3.61845C95.161 3.44765 95.2496 3.29221 95.3771 3.17209C95.5046 3.05196 95.6651 2.97263 95.8381 2.94431C96.0624 2.90758 96.2923 2.95906 96.4794 3.08793C96.6666 3.2168 96.7964 3.41304 96.8418 3.63547Z" fill="#295135"/>
</g>
<defs>
<clipPath id="clip0">
<rect width="220" height="57" fill="white"/>
</clipPath>
</defs>
</svg>
