<svg width="136" height="40" viewBox="0 0 136 40" fill="none" xmlns="http://www.w3.org/2000/svg">
<path d="M91.2627 0.443873C81.0852 -1.13373 58.8709 1.12392 43.2711 13.2608C42.9311 13.5253 42.5616 14.045 42.7427 14.8017L43.2549 16.615C43.3485 16.9456 43.6285 17.1691 43.9478 17.2125C44.0739 17.2296 44.2072 17.2224 44.3351 17.1751C59.9413 11.3965 76.9646 12.2711 86.1218 14.6816C87.4588 15.0335 88.821 14.1776 89.3458 12.8947L92.9989 3.11727C93.3621 1.99061 92.7274 0.670795 91.2627 0.443873Z" fill="#5EB848"/>
<path d="M129.754 28.1595V26.4524H127.026V28.1595C123.518 28.5107 121.277 30.2061 121.278 33.1878C121.278 36.2273 123.518 37.9227 127.027 38.273V40.0001H129.754V38.273C133.243 37.9227 135.775 36.2273 135.775 33.1868C135.775 30.2061 133.243 28.5107 129.754 28.1595ZM19.1823 29.3598C18.4256 28.5198 17.3711 28.1034 16.1726 28.1034C13.3675 28.1034 11.2123 29.7789 11.2123 33.2086C11.2123 36.6573 13.4417 38.3336 16.1726 38.3336C17.3195 38.3336 18.3994 37.891 19.1823 37.0003V38.1381H22.3006V28.298H19.1823V29.3598ZM40.5705 30.8307C41.8179 30.8307 42.6171 31.4933 42.7339 32.3704H45.8513C45.7146 29.5644 43.2589 28.1025 40.5705 28.1025C37.4332 28.1025 35.192 29.9346 35.192 33.2077C35.192 36.5016 37.4341 38.3327 40.5705 38.3327C43.2598 38.3327 45.7146 36.8718 45.8513 34.0658H42.7339C42.6171 34.9429 41.8179 35.6055 40.5705 35.6055C39.0897 35.6055 38.3094 34.7284 38.3094 33.2077C38.3094 31.7078 39.0897 30.8307 40.5705 30.8307ZM52.6464 28.1025C49.548 28.1025 47.0923 29.7789 47.0923 33.2077C47.0923 36.6573 49.548 38.3327 52.6464 38.3327C55.7258 38.3327 58.1815 36.6564 58.1806 33.2077C58.1806 29.778 55.7258 28.1025 52.6464 28.1025ZM114.493 28.1016C111.394 28.1016 108.939 29.7771 108.939 33.2068C108.939 36.6564 111.394 38.3318 114.493 38.3318C117.571 38.3318 120.027 36.6555 120.027 33.2068C120.027 29.7771 117.571 28.1016 114.493 28.1016ZM0 31.0262H3.70214L3.70304 38.139H6.82044V31.0262H10.5226V28.298H0V31.0262ZM31.5424 28.298L28.9826 31.7467H27.6665V28.298H24.5491V38.1381H27.6674V34.455H29.4379L31.5415 38.1381H34.9132L31.7479 32.5704L34.9132 28.298H31.5424ZM69.2264 33.099C69.8364 32.6465 70.1514 31.9576 70.1514 31.1113C70.1514 29.4784 68.9901 28.2971 66.8059 28.2971H59.6759V38.1381H67.1988C69.3839 38.1381 70.5452 36.9569 70.5452 35.323C70.5452 34.3201 70.0727 33.5525 69.2264 33.099ZM75.424 35.6046V28.2971H72.3057V38.1381L77.4706 38.1372L80.7247 30.7329V38.1372H83.8421V28.2971H78.6301L75.424 35.6046ZM92.9291 31.5286C92.9291 33.1199 88.8377 33.1072 88.8377 31.5268V28.2971H85.7203V32.2944C85.7203 36.4862 92.6756 35.534 92.9291 34.8071V38.1372H96.0474V28.2971H92.9291V31.5286ZM105.289 28.2962L102.729 31.7458H101.413V28.2962H98.2958V38.1372H101.414V34.4541H103.185L105.288 38.1372H108.66L105.495 32.5695L108.66 28.2962H105.289ZM66.576 35.6978H62.7788V34.2803H66.576C67.0874 34.2803 67.4414 34.4966 67.4414 34.9691C67.4414 35.4615 67.0874 35.6978 66.576 35.6978ZM16.7664 35.6055C15.2856 35.6055 14.3297 34.865 14.3297 33.2086C14.3297 31.572 15.2856 30.8316 16.7664 30.8316C18.2274 30.8316 19.1823 31.572 19.1823 33.2086C19.1823 34.865 18.2274 35.6055 16.7664 35.6055ZM52.6464 35.6046C51.1664 35.6046 50.2106 34.8641 50.2106 33.2077C50.2106 31.5711 51.1664 30.8307 52.6464 30.8307C54.1082 30.8307 55.0632 31.5711 55.0632 33.2077C55.0632 34.8641 54.1082 35.6046 52.6464 35.6046ZM114.493 35.6036C113.012 35.6036 112.056 34.8632 112.056 33.2068C112.056 31.5702 113.012 30.8298 114.493 30.8298C115.955 30.8298 116.909 31.5702 116.909 33.2068C116.909 34.8632 115.955 35.6036 114.493 35.6036ZM129.754 35.5258V30.9076C131.392 31.1222 132.365 31.7648 132.365 33.1868C132.365 34.6487 131.392 35.3113 129.754 35.5258ZM127.027 35.5258C125.37 35.3113 124.395 34.6487 124.395 33.1878C124.395 31.7648 125.37 31.1222 127.026 30.9076L127.027 35.5258ZM62.7788 30.6587H66.261C66.7924 30.6587 67.1264 30.875 67.1273 31.3675C67.1273 31.84 66.7924 32.0364 66.261 32.0364H62.7788V30.6587Z" fill="#333333"/>
</svg>
