<svg width="20" height="14" viewBox="0 0 20 14" fill="none" xmlns="http://www.w3.org/2000/svg">
<path d="M0.995583 2.10179C0.967928 2.4613 0.967928 2.95909 0.967928 3.56751V10.0941C0.967928 10.7302 0.967928 11.2003 0.995583 11.5598L6.02881 7.43922C6.25005 7.27329 6.55426 7.30094 6.72019 7.49453C6.88612 7.71577 6.85846 8.01997 6.66488 8.1859L1.29979 12.5831C1.38275 12.6107 1.54869 12.6384 1.79758 12.6384C2.32303 12.6937 3.18034 12.6937 4.56309 12.6937H14.9614C17.1462 12.6937 17.9205 12.6937 18.2247 12.5831L12.8596 8.1859C12.666 8.01997 12.6384 7.71577 12.8043 7.49453C12.9702 7.30094 13.2744 7.27329 13.4957 7.43922L18.5289 11.5598V2.10179L10.0665 8.6837C9.90052 8.82197 9.65163 8.82197 9.45804 8.6837L0.995583 2.10179ZM18.2247 1.07855C18.1141 1.05089 17.9758 1.02324 17.6993 1.02324C17.2015 0.967928 16.3442 0.967928 14.9614 0.967928H4.56309C2.37834 0.967928 1.57634 0.967928 1.27213 1.07855L9.76225 7.68811L18.2247 1.07855ZM0.0553102 1.60399C0.11062 1.05089 0.221241 0.719032 0.470137 0.470136C0.940273 0 1.63165 0 4.56309 0H14.9614C16.3442 0 17.2015 0 17.7822 0.0553102C18.4736 0.0829653 18.8055 0.221241 19.0544 0.470136C19.5245 0.940273 19.5245 1.63165 19.5245 3.56751V10.0941C19.5245 10.9791 19.5245 11.5875 19.4692 12.0576C19.4139 12.6107 19.3033 12.9426 19.0544 13.1915C18.5842 13.6616 17.8928 13.6616 14.9614 13.6616H4.56309C3.18034 13.6616 2.32303 13.6616 1.74227 13.6063C1.05089 13.5786 0.719032 13.4404 0.470137 13.1915C0 12.7213 0 12.03 0 10.0941V3.56751C0 2.68254 0 2.07413 0.0553102 1.60399Z" fill="#333333"/>
</svg>
