<svg width="19" height="13" viewBox="0 0 19 13" fill="none" xmlns="http://www.w3.org/2000/svg">
<path d="M16.4446 12.8572H2.20615C1.62123 12.8566 1.06044 12.6194 0.646841 12.1978C0.233239 11.7762 0.000610884 11.2045 0 10.6082V2.28001C0.000610884 1.68371 0.233239 1.11202 0.646841 0.690369C1.06044 0.268721 1.62123 0.0315676 2.20615 0.0309448H16.4446C17.0297 0.0309448 17.5909 0.267897 18.0046 0.68968C18.4183 1.11146 18.6508 1.68352 18.6508 2.28001V10.6082C18.6501 11.2045 18.4175 11.7762 18.0039 12.1978C17.5903 12.6194 17.0295 12.8566 16.4446 12.8572ZM2.20615 1.36251C1.96786 1.36313 1.73953 1.46007 1.57125 1.63207C1.40296 1.80407 1.30846 2.03708 1.30846 2.28001V10.6082C1.30846 10.7283 1.33168 10.8473 1.37679 10.9584C1.42191 11.0694 1.48803 11.1703 1.57139 11.2553C1.65475 11.3403 1.75371 11.4077 1.86262 11.4537C1.97153 11.4996 2.08827 11.5233 2.20615 11.5233H16.4446C16.6829 11.5233 16.9115 11.427 17.0802 11.2554C17.2489 11.0839 17.344 10.8511 17.3446 10.6082V2.28001C17.344 2.03687 17.249 1.80386 17.0803 1.63193C16.9117 1.45999 16.6831 1.36313 16.4446 1.36251H2.20615Z" fill="white"/>
<path d="M9.05077 7.11086C8.92542 7.11176 8.8026 7.07494 8.69769 7.005L0.70616 1.7752C0.560189 1.67974 0.457397 1.52907 0.420394 1.35634C0.383392 1.18361 0.41521 1.00297 0.508852 0.854161C0.602494 0.70535 0.750287 0.60056 0.919719 0.562838C1.08915 0.525115 1.26634 0.557556 1.41231 0.65302L9.40385 5.88281C9.52192 5.96117 9.61208 6.07624 9.66096 6.21095C9.70983 6.34566 9.71483 6.49284 9.6752 6.63067C9.63557 6.7685 9.55343 6.88964 9.44095 6.97613C9.32848 7.06263 9.19166 7.10987 9.05077 7.11086Z" fill="white"/>
<path d="M9.32538 7.11086C9.18365 7.1116 9.04553 7.06532 8.93187 6.979C8.81821 6.89268 8.73518 6.77101 8.69531 6.63235C8.65545 6.4937 8.66091 6.34558 8.71088 6.21037C8.76084 6.07516 8.8526 5.96019 8.9723 5.88281L16.9754 0.65302C17.1214 0.557556 17.2985 0.525115 17.468 0.562838C17.6374 0.60056 17.7852 0.70535 17.8788 0.854161C17.9725 1.00297 18.0043 1.18361 17.9673 1.35634C17.9303 1.52907 17.8275 1.67974 17.6815 1.7752L9.68999 7.005C9.58157 7.07666 9.45456 7.11353 9.32538 7.11086Z" fill="white"/>
</svg>
