<svg width="32" height="32" viewBox="0 0 32 32" fill="none" xmlns="http://www.w3.org/2000/svg">
<path d="M31.5077 16C31.5077 32 31.5077 32 15.7538 32C0 32 0 32 0 16C0 0 0 0 15.7538 0C31.5077 0 31.5077 0 31.5077 16Z" fill="#E27E35"/>
<path d="M18.2399 21.468C19.4914 21.179 20.6965 20.6765 21.8056 19.9697C22.6451 19.4327 22.8992 18.3082 22.3694 17.4539C21.8396 16.5995 20.7306 16.342 19.888 16.8791C17.3725 18.4841 14.1352 18.481 11.6197 16.8791C10.7771 16.342 9.66798 16.5995 9.13824 17.4539C8.60849 18.3051 8.86252 19.4327 9.70205 19.9697C10.8111 20.6765 12.0162 21.179 13.2677 21.468L9.83836 24.9481C9.13517 25.6611 9.13517 26.8138 9.83836 27.5268C10.1915 27.8817 10.65 28.0608 11.1085 28.0608C11.5701 28.0608 12.0286 27.8817 12.3818 27.5268L15.7554 24.1063L19.129 27.5268C19.8322 28.2398 20.9691 28.2398 21.6724 27.5268C22.3756 26.8138 22.3756 25.658 21.6724 24.9481L18.2399 21.468ZM15.7554 7.58823C17.1587 7.58823 18.2988 8.74409 18.2988 10.1669C18.2988 11.5866 17.1587 12.7425 15.7554 12.7425C14.3551 12.7425 13.212 11.5866 13.212 10.1669C13.212 8.74409 14.3551 7.58823 15.7554 7.58823ZM15.7554 16.3891C19.1414 16.3891 21.8954 13.5968 21.8954 10.1669C21.8954 6.73076 19.1414 3.93848 15.7554 3.93848C12.3693 3.93848 9.61534 6.73076 9.61534 10.1638C9.61534 13.5968 12.3693 16.3891 15.7554 16.3891Z" fill="white"/>
</svg>
