<svg width="21" height="28" viewBox="0 0 21 28" fill="none" xmlns="http://www.w3.org/2000/svg">
<path d="M7.3617 22.0831C7.19192 21.8093 7.10703 21.4746 7.05044 21.0487C7.02215 20.714 7.02215 20.3185 7.02215 19.8926V17.4891C7.02215 16.6981 7.02215 16.0897 7.24851 15.6333C7.3617 15.3595 7.53147 15.177 7.70124 14.9944C7.78613 14.9032 7.89932 14.8119 7.95591 14.6902C8.06909 14.5077 8.15398 14.173 8.23886 13.8079L8.35205 13.2907C8.46523 12.9865 8.57841 12.6214 8.71989 12.2868C8.86137 11.9217 9.05944 11.587 9.31411 11.3436C9.56877 11.1002 9.88002 10.9785 10.163 10.9177C10.4459 10.8569 10.7006 10.8569 10.927 10.8569H11.5212V9.24442C11.5212 8.94018 11.7192 8.6968 12.0022 8.6968H15.9919C16.2749 8.6968 16.5012 8.94018 16.5012 9.24442V10.8569H17.0672C17.5765 10.8569 18.199 10.8569 18.7083 11.3436C18.9347 11.587 19.1327 11.9217 19.3025 12.2868C19.444 12.6214 19.5572 12.9865 19.6421 13.2907L19.7553 13.8079C19.8401 14.173 19.925 14.5077 20.0382 14.6902C20.0948 14.8119 20.208 14.9032 20.2929 14.9944L20.3212 15.0249C20.4909 15.177 20.6324 15.3595 20.7739 15.6333C20.8871 15.8767 20.9437 16.1505 20.972 16.4852C21.0003 16.7894 21.0003 17.1241 21.0003 17.4891V19.8926C21.0003 20.7749 21.0003 21.5963 20.6324 22.0831C20.2363 22.6611 19.6138 22.6611 18.9913 22.6611C18.3688 22.6611 17.7463 22.6611 17.3501 22.0831C17.0672 21.6876 17.0106 21.1399 17.0106 20.5315H11.0119C10.9836 21.1399 10.927 21.6876 10.644 22.0831C10.4459 22.3873 10.163 22.5394 9.82343 22.6003C9.56877 22.6611 9.28581 22.6611 9.00285 22.6611C8.38034 22.6611 7.78613 22.6611 7.3617 22.0831ZM6.51282 14.0817C6.79578 14.0817 7.02215 14.3251 7.02215 14.6293C7.02215 14.9032 6.79578 15.1465 6.51282 15.1465H5.01314C5.01314 15.755 4.92826 16.3331 4.67359 16.7286C4.44723 17.0328 4.16427 17.1849 3.82472 17.2458C3.57006 17.3066 3.2871 17.3066 3.03244 17.3066C2.40993 17.3066 1.78742 17.3066 1.39128 16.7286C1.19321 16.4548 1.10832 16.0897 1.08003 15.6942C1.02344 15.3595 1.02344 14.9336 1.02344 14.5381V12.1042C1.02344 11.3132 1.02344 10.7352 1.2498 10.2484C1.36299 9.97458 1.53276 9.82246 1.70254 9.63992C1.81572 9.54865 1.90061 9.42696 1.98549 9.33569C2.09868 9.12272 2.15527 8.81849 2.26845 8.45341L2.38164 7.93621C2.46652 7.60155 2.57971 7.23647 2.72119 6.90182C2.89096 6.53674 3.06073 6.2325 3.3154 5.98912C3.57006 5.74573 3.88131 5.59361 4.19257 5.53277C4.44723 5.50234 4.70189 5.50234 4.92826 5.50234H5.52247V3.88991C5.52247 3.58567 5.74884 3.34229 6.0035 3.34229H10.0215C10.2762 3.34229 10.5025 3.58567 10.5025 3.88991V5.50234H11.0967C11.6061 5.50234 12.2003 5.50234 12.7096 5.98912C12.9077 6.17166 13.0492 6.41504 13.1906 6.65843C13.3038 6.90182 13.417 7.17563 13.5019 7.44944C13.5868 7.72325 13.4736 8.02748 13.1906 8.14918C12.936 8.24045 12.653 8.08833 12.5681 7.81452C12.4832 7.60155 12.4266 7.35817 12.3135 7.17563C12.2286 7.02351 12.1437 6.87139 12.0588 6.78012C11.8041 6.56716 11.408 6.56716 11.0967 6.56716H4.92826C4.75848 6.56716 4.53212 6.56716 4.36234 6.59758C4.22086 6.62801 4.07938 6.68885 3.9662 6.78012C3.85302 6.90182 3.73983 7.11478 3.62665 7.35817C3.51347 7.63198 3.40028 7.93621 3.34369 8.24045C3.2871 8.45341 3.25881 8.5751 3.23051 8.6968C3.11733 9.12272 3.03244 9.4878 2.89096 9.79204H9.00285C9.28581 9.79204 9.51218 10.0354 9.51218 10.3092C9.51218 10.6135 9.28581 10.8569 9.00285 10.8569H2.52311C2.38164 10.8569 2.24016 10.796 2.15527 10.7047C2.15527 10.7047 2.15527 10.7352 2.12697 10.7352C2.04209 10.9481 2.01379 11.3741 2.01379 11.9217H2.94755C3.25881 11.9217 3.54176 11.9217 3.65495 11.8304C3.79643 11.7391 3.9379 11.4349 4.07938 11.1611C4.19257 10.8873 4.50382 10.796 4.73019 10.9177C4.98485 11.0394 5.09803 11.3741 4.95655 11.6479C4.75848 12.0434 4.56041 12.4693 4.22086 12.7431C3.82472 13.0169 3.42858 13.0169 2.94755 13.0169H2.01379V14.0817H6.51282ZM9.51218 5.50234V4.4071H6.51282V5.50234H9.51218ZM6.0035 13.0169C5.74884 13.0169 5.52247 12.7735 5.52247 12.4693C5.52247 12.1651 5.74884 11.9217 6.0035 11.9217H7.50317C7.78613 11.9217 8.0125 12.1651 8.0125 12.4693C8.0125 12.7735 7.78613 13.0169 7.50317 13.0169H6.0035ZM2.04209 15.1465C2.04209 15.2987 2.04209 15.4508 2.07038 15.5725C2.07038 15.8159 2.12697 15.9984 2.18357 16.0897C2.26845 16.2114 2.66459 16.2114 3.03244 16.2114C3.25881 16.2114 3.48517 16.2114 3.65495 16.1809C3.73983 16.1809 3.82472 16.1505 3.88131 16.0897C3.9662 15.9376 3.9945 15.5725 4.02279 15.1465H2.04209ZM8.0125 19.4362H19.9816V18.3714H19.0762C18.5668 18.3714 18.1707 18.3714 17.8028 18.0976L17.7745 18.0672C17.435 17.8238 17.2369 17.3979 17.0672 17.0024C16.9257 16.7286 17.0389 16.4243 17.2652 16.2722C17.5199 16.1505 17.8311 16.2722 17.9443 16.5156C18.0858 16.8198 18.199 17.0936 18.3405 17.1849L18.3688 17.2153C18.4819 17.3066 18.7366 17.3066 19.0762 17.3066H19.9816V16.5764C19.9533 16.3635 19.925 16.2114 19.8684 16.1201V16.0897C19.7835 16.1809 19.6704 16.2114 19.5289 16.2114H8.52182C8.38034 16.2114 8.23886 16.1505 8.15398 16.0592C8.15398 16.0897 8.12568 16.0897 8.12568 16.1201C8.0125 16.3331 8.0125 16.7286 8.0125 17.3066H8.91796C9.25751 17.3066 9.54047 17.3066 9.65366 17.2153C9.79513 17.1241 9.93661 16.8198 10.0781 16.5156C10.1913 16.2722 10.4742 16.1505 10.7289 16.2722C10.9836 16.4243 11.0684 16.7286 10.9553 17.0024C10.7572 17.4283 10.5591 17.8542 10.1913 18.0976C9.82343 18.3714 9.42729 18.3714 8.91796 18.3714H8.0125V19.4362ZM9.9932 20.5315H8.0125C8.0125 20.6532 8.04079 20.8053 8.04079 20.927C8.06909 21.1704 8.09739 21.3529 8.18227 21.4442C8.26716 21.5963 8.63501 21.5963 9.00285 21.5963C9.22922 21.5963 9.45558 21.5963 9.62536 21.5659C9.73854 21.5355 9.82343 21.505 9.85173 21.4442C9.96491 21.2921 9.9932 20.927 9.9932 20.5315ZM19.9816 20.5315H18.0009C18.0009 20.927 18.0292 21.2921 18.1424 21.4442C18.2556 21.5963 18.6234 21.5963 18.9913 21.5963C19.3591 21.5963 19.7553 21.5963 19.8401 21.4442C19.9533 21.2921 19.9816 20.9574 19.9816 20.5315ZM12.0022 18.3714C11.7192 18.3714 11.5212 18.128 11.5212 17.8238C11.5212 17.55 11.7192 17.3066 12.0022 17.3066H15.9919C16.2749 17.3066 16.5012 17.55 16.5012 17.8238C16.5012 18.128 16.2749 18.3714 15.9919 18.3714H12.0022ZM8.86137 15.1465H19.1327C18.9913 14.8423 18.9064 14.4772 18.7932 14.0817C18.7649 13.96 18.7366 13.8383 18.68 13.595C18.5951 13.3211 18.5102 12.9865 18.3971 12.7127C18.2839 12.4997 18.1707 12.2868 18.0292 12.1651C17.8028 11.9217 17.4067 11.9217 17.0672 11.9217H10.927C10.7289 11.9217 10.5308 11.9217 10.361 11.9521C10.2196 11.9825 10.0781 12.0434 9.96491 12.1651C9.82343 12.2868 9.71025 12.4997 9.62536 12.7127C9.51218 12.9865 9.39899 13.3211 9.31411 13.595C9.25751 13.8383 9.22922 13.96 9.20092 14.0817C9.11603 14.4772 9.03115 14.8423 8.86137 15.1465ZM15.5109 10.8569V9.79204H12.5115V10.8569H15.5109Z" fill="white"/>
</svg>
