<svg width="20" height="18" viewBox="0 0 20 18" fill="none" xmlns="http://www.w3.org/2000/svg">
<path d="M6.19474 17.2556C6.02881 17.0067 5.94584 16.7025 5.89053 16.3154C5.86288 16.0111 5.86288 15.6516 5.86288 15.2645V13.0797C5.86288 12.3607 5.86288 11.8076 6.08412 11.3927C6.19474 11.1439 6.36067 10.9779 6.5266 10.812C6.60957 10.729 6.72019 10.6461 6.7755 10.5354C6.88612 10.3695 6.96908 10.0653 7.05205 9.73344L7.16267 9.26331C7.27329 8.98675 7.38391 8.65489 7.52218 8.35069C7.66046 8.01883 7.85405 7.71462 8.10294 7.49338C8.35184 7.27214 8.65604 7.16152 8.93259 7.10621C9.20915 7.0509 9.45804 7.0509 9.67928 7.0509H10.26V5.58518C10.26 5.30863 10.4536 5.08739 10.7302 5.08739H14.6295C14.9061 5.08739 15.1273 5.30863 15.1273 5.58518V7.0509H15.6804C16.1782 7.0509 16.7866 7.0509 17.2844 7.49338C17.5057 7.71462 17.6993 8.01883 17.8652 8.35069C18.0035 8.65489 18.1141 8.98675 18.1971 9.26331L18.3077 9.73344C18.3906 10.0653 18.4736 10.3695 18.5842 10.5354C18.6395 10.6461 18.7502 10.729 18.8331 10.812L18.8608 10.8396C19.0267 10.9779 19.165 11.1439 19.3033 11.3927C19.4139 11.614 19.4692 11.8629 19.4968 12.1671C19.5245 12.4436 19.5245 12.7478 19.5245 13.0797V15.2645C19.5245 16.0665 19.5245 16.8131 19.165 17.2556C18.7778 17.7811 18.1694 17.7811 17.561 17.7811C16.9526 17.7811 16.3442 17.7811 15.957 17.2556C15.6804 16.8961 15.6251 16.3983 15.6251 15.8452H9.76225C9.73459 16.3983 9.67928 16.8961 9.40273 17.2556C9.20915 17.5322 8.93259 17.6705 8.60073 17.7258C8.35184 17.7811 8.07529 17.7811 7.79874 17.7811C7.19032 17.7811 6.60957 17.7811 6.19474 17.2556ZM5.36509 9.98234C5.64164 9.98234 5.86288 10.2036 5.86288 10.4801C5.86288 10.729 5.64164 10.9503 5.36509 10.9503H3.89937C3.89937 11.5034 3.8164 12.0288 3.56751 12.3883C3.34627 12.6649 3.06972 12.8032 2.73785 12.8585C2.48896 12.9138 2.21241 12.9138 1.96351 12.9138C1.3551 12.9138 0.746687 12.9138 0.359516 12.3883C0.165931 12.1394 0.0829653 11.8076 0.0553102 11.4481C0 11.1439 0 10.7567 0 10.3972V8.18476C0 7.46573 0 6.94028 0.221241 6.4978C0.331861 6.2489 0.497792 6.11063 0.663722 5.9447C0.774343 5.86173 0.857308 5.75111 0.940273 5.66814C1.05089 5.47456 1.1062 5.19801 1.21682 4.86615L1.32744 4.39601C1.41041 4.0918 1.52103 3.75994 1.65931 3.45574C1.82524 3.12388 1.99117 2.84733 2.24006 2.62609C2.48896 2.40484 2.79316 2.26657 3.09737 2.21126C3.34627 2.1836 3.59516 2.1836 3.8164 2.1836H4.39716V0.717884C4.39716 0.441333 4.6184 0.220093 4.8673 0.220093H8.79432C9.04321 0.220093 9.26446 0.441333 9.26446 0.717884V2.1836H9.84521C10.343 2.1836 10.9238 2.1836 11.4216 2.62609C11.6151 2.79202 11.7534 3.01326 11.8917 3.2345C12.0023 3.45574 12.1129 3.70463 12.1959 3.95353C12.2789 4.20243 12.1682 4.47898 11.8917 4.5896C11.6428 4.67256 11.3662 4.53429 11.2833 4.28539C11.2003 4.0918 11.145 3.87056 11.0344 3.70463C10.9514 3.56636 10.8685 3.42808 10.7855 3.34512C10.5366 3.15153 10.1494 3.15153 9.84521 3.15153H3.8164C3.65047 3.15153 3.42923 3.15153 3.2633 3.17919C3.12503 3.20684 2.98675 3.26215 2.87613 3.34512C2.76551 3.45574 2.65489 3.64932 2.54427 3.87056C2.43365 4.11946 2.32303 4.39601 2.26772 4.67256C2.21241 4.86615 2.18475 4.97677 2.1571 5.08739C2.04648 5.47456 1.96351 5.80642 1.82524 6.08297H7.79874C8.07529 6.08297 8.29653 6.30421 8.29653 6.55311C8.29653 6.82966 8.07529 7.0509 7.79874 7.0509H1.46572C1.32744 7.0509 1.18917 6.99559 1.1062 6.91262C1.1062 6.91262 1.1062 6.94028 1.07855 6.94028C0.995583 7.13386 0.967928 7.52104 0.967928 8.01883H1.88055C2.18475 8.01883 2.4613 8.01883 2.57192 7.93586C2.7102 7.8529 2.84847 7.57635 2.98675 7.32745C3.09737 7.07855 3.40158 6.99559 3.62282 7.10621C3.87171 7.21683 3.98233 7.52104 3.84406 7.76993C3.65047 8.12945 3.45689 8.51662 3.12503 8.76551C2.73785 9.01441 2.35068 9.01441 1.88055 9.01441H0.967928V9.98234H5.36509ZM8.29653 2.1836V1.18802H5.36509V2.1836H8.29653ZM4.8673 9.01441C4.6184 9.01441 4.39716 8.79317 4.39716 8.51662C4.39716 8.24007 4.6184 8.01883 4.8673 8.01883H6.33302C6.60957 8.01883 6.83081 8.24007 6.83081 8.51662C6.83081 8.79317 6.60957 9.01441 6.33302 9.01441H4.8673ZM0.995583 10.9503C0.995583 11.0885 0.995583 11.2268 1.02324 11.3374C1.02324 11.5587 1.07855 11.7246 1.13386 11.8076C1.21682 11.9182 1.604 11.9182 1.96351 11.9182C2.18475 11.9182 2.40599 11.9182 2.57192 11.8905C2.65489 11.8905 2.73785 11.8629 2.79316 11.8076C2.87613 11.6693 2.90378 11.3374 2.93144 10.9503H0.995583ZM6.83081 14.8496H18.5289V13.8817H17.6439C17.1462 13.8817 16.759 13.8817 16.3995 13.6328L16.3718 13.6052C16.04 13.3839 15.8464 12.9967 15.6804 12.6372C15.5422 12.3883 15.6528 12.1118 15.874 11.9735C16.1229 11.8629 16.4271 11.9735 16.5377 12.1947C16.676 12.4713 16.7866 12.7202 16.9249 12.8032L16.9526 12.8308C17.0632 12.9138 17.3121 12.9138 17.6439 12.9138H18.5289V12.2501C18.5013 12.0565 18.4736 11.9182 18.4183 11.8352V11.8076C18.3353 11.8905 18.2247 11.9182 18.0864 11.9182H7.3286C7.19032 11.9182 7.05205 11.8629 6.96908 11.7799C6.96908 11.8076 6.94143 11.8076 6.94143 11.8352C6.83081 12.0288 6.83081 12.3883 6.83081 12.9138H7.71577C8.04763 12.9138 8.32418 12.9138 8.4348 12.8308C8.57308 12.7478 8.71135 12.4713 8.84963 12.1947C8.96025 11.9735 9.2368 11.8629 9.4857 11.9735C9.73459 12.1118 9.81756 12.3883 9.70694 12.6372C9.51335 13.0244 9.31977 13.4116 8.96025 13.6328C8.60073 13.8817 8.21356 13.8817 7.71577 13.8817H6.83081V14.8496ZM8.76666 15.8452H6.83081C6.83081 15.9558 6.85846 16.0941 6.85846 16.2047C6.88612 16.426 6.91377 16.5919 6.99674 16.6749C7.0797 16.8131 7.43922 16.8131 7.79874 16.8131C8.01998 16.8131 8.24122 16.8131 8.40715 16.7855C8.51777 16.7578 8.60073 16.7302 8.62839 16.6749C8.73901 16.5366 8.76666 16.2047 8.76666 15.8452ZM18.5289 15.8452H16.5931C16.5931 16.2047 16.6207 16.5366 16.7313 16.6749C16.842 16.8131 17.2015 16.8131 17.561 16.8131C17.9205 16.8131 18.3077 16.8131 18.3906 16.6749C18.5013 16.5366 18.5289 16.2324 18.5289 15.8452ZM10.7302 13.8817C10.4536 13.8817 10.26 13.6605 10.26 13.3839C10.26 13.135 10.4536 12.9138 10.7302 12.9138H14.6295C14.9061 12.9138 15.1273 13.135 15.1273 13.3839C15.1273 13.6605 14.9061 13.8817 14.6295 13.8817H10.7302ZM7.66046 10.9503H17.6993C17.561 10.6737 17.478 10.3419 17.3674 9.98234C17.3397 9.87172 17.3121 9.7611 17.2568 9.53986C17.1738 9.29096 17.0908 8.98675 16.9802 8.73786C16.8696 8.54427 16.759 8.35069 16.6207 8.24007C16.3995 8.01883 16.0123 8.01883 15.6804 8.01883H9.67928C9.4857 8.01883 9.29211 8.01883 9.12618 8.04648C8.9879 8.07414 8.84963 8.12945 8.73901 8.24007C8.60073 8.35069 8.49011 8.54427 8.40715 8.73786C8.29653 8.98675 8.18591 9.29096 8.10294 9.53986C8.04763 9.7611 8.01998 9.87172 7.99232 9.98234C7.90936 10.3419 7.82639 10.6737 7.66046 10.9503ZM14.1594 7.0509V6.08297H11.228V7.0509H14.1594Z" fill="#757575"/>
</svg>
