<svg width="20" height="18" viewBox="0 0 20 18" fill="none" xmlns="http://www.w3.org/2000/svg">
<path fill-rule="evenodd" clip-rule="evenodd" d="M0.470136 17.0908C0.221241 16.8419 0.11062 16.5101 0.0553101 16.0676C0 15.6804 0 15.2103 0 14.6295V10.7302C0 9.51334 0 8.82197 0.221241 8.40714C0.331861 8.1859 0.470136 8.07528 0.608412 7.93701C0.746687 7.82639 0.884962 7.71576 1.02324 7.43921C1.21682 7.05204 1.43806 6.33301 1.6593 5.61398C1.74227 5.28212 1.85289 4.95026 1.99117 4.56309C2.1571 4.03764 2.32303 3.62281 2.51661 3.2633C2.73785 2.87613 2.98675 2.57192 3.31861 2.35068C3.62281 2.1571 3.98233 2.04648 4.34185 1.99117C4.70136 1.96351 5.03322 1.96351 5.36508 1.96351H6.8308V0.497791C6.8308 0.221241 7.05204 0 7.32859 0H12.1959C12.4724 0 12.6937 0.221241 12.6937 0.497791V1.96351H14.1594C14.8784 1.96351 15.5975 1.96351 16.2059 2.35068C16.5101 2.57192 16.759 2.87613 16.9802 3.2633C17.2015 3.62281 17.3674 4.03764 17.5333 4.56309C17.6716 4.95026 17.7546 5.28212 17.8652 5.61398C18.0864 6.33301 18.28 7.05204 18.4736 7.43921C18.6395 7.71576 18.7778 7.82639 18.8884 7.93701C19.0543 8.07528 19.1926 8.1859 19.3032 8.40714C19.4139 8.62838 19.4692 8.93259 19.4968 9.34741C19.5245 9.73458 19.5245 10.1771 19.5245 10.7302V14.6295C19.5245 15.9017 19.5245 16.6207 19.0543 17.0908C18.5842 17.561 17.8375 17.561 17.0632 17.561C16.3165 17.561 15.5698 17.561 15.0997 17.0908C14.8508 16.8419 14.7402 16.5101 14.6848 16.1229C14.6572 15.957 14.6572 15.791 14.6295 15.6251H4.86729C4.86729 16.1782 4.78433 16.7313 4.42481 17.0908C4.17592 17.3397 3.8164 17.4503 3.45688 17.5057C3.12502 17.561 2.79316 17.561 2.43365 17.561C1.68696 17.561 0.940272 17.561 0.470136 17.0908ZM4.95026 10.0388C4.81198 9.81755 4.86729 9.51334 5.08853 9.34741C5.30977 9.20914 5.61398 9.26445 5.77991 9.48569C6.05646 9.90052 6.33301 10.3153 6.91377 10.5089C7.21797 10.6195 7.66046 10.6749 8.13059 10.7025C8.62838 10.7302 9.18148 10.7302 9.76224 10.7302C10.8684 10.7302 11.9746 10.7302 12.6107 10.5089C13.1915 10.3153 13.468 9.90052 13.7446 9.48569C13.8828 9.26445 14.1871 9.20914 14.4083 9.34741C14.6572 9.51334 14.7125 9.81755 14.5466 10.0388C14.1871 10.5919 13.7999 11.145 12.9149 11.4492C12.1129 11.6981 10.9238 11.6981 9.76224 11.6981C9.18148 11.6981 8.62838 11.6981 8.07528 11.6704C7.52218 11.6428 7.02439 11.5875 6.60956 11.4492C5.69694 11.145 5.33743 10.5919 4.95026 10.0388ZM5.36508 13.6616C5.08853 13.6616 4.86729 13.4404 4.86729 13.1638C4.86729 12.9149 5.08853 12.6937 5.36508 12.6937H14.1594C14.4083 12.6937 14.6295 12.9149 14.6295 13.1638C14.6295 13.4404 14.4083 13.6616 14.1594 13.6616H5.36508ZM18.5289 12.6937H16.0953C15.8187 12.6937 15.6251 12.4724 15.6251 12.1959C15.6251 11.4215 15.6251 10.6472 16.3165 10.1771C16.8419 9.81755 17.6716 9.76224 18.5289 9.76224V9.40272C18.5012 9.12617 18.4736 8.93259 18.4183 8.84962C18.4183 8.79431 18.363 8.739 18.28 8.68369C18.0864 8.51776 17.8652 8.32418 17.6163 7.85404C17.3674 7.3839 17.1461 6.63722 16.9249 5.91819C16.8143 5.53101 16.7037 5.14384 16.6207 4.86729C16.4548 4.42481 16.3165 4.03764 16.1506 3.73343C15.9846 3.48454 15.8464 3.29095 15.6804 3.18033C15.2933 2.93144 14.7125 2.93144 14.1594 2.93144H5.36508C5.06088 2.93144 4.72902 2.93144 4.48012 2.95909C4.23123 2.98675 4.03764 3.06971 3.84406 3.18033C3.67812 3.29095 3.51219 3.48454 3.37392 3.73343C3.20799 4.03764 3.04206 4.42481 2.90378 4.86729C2.82082 5.14384 2.7102 5.53101 2.57192 5.91819C2.35068 6.63722 2.12944 7.3839 1.9082 7.85404C1.6593 8.32418 1.43806 8.51776 1.24448 8.68369C1.16151 8.739 1.1062 8.79431 1.07855 8.84962C1.02324 8.9879 0.995583 9.2921 0.995583 9.76224C1.29979 9.76224 1.63165 9.76224 1.93586 9.7899C2.43365 9.84521 2.87613 9.95583 3.20799 10.1771C3.89937 10.6472 3.89937 11.4215 3.89937 12.1959C3.89937 12.4724 3.67812 12.6937 3.42923 12.6937H0.967928V13.8552C1.52103 14.1041 2.04648 14.353 2.57192 14.4913C2.84847 14.5742 3.15268 14.6019 3.45688 14.6295H15.1273C15.7357 14.6295 16.3718 14.6295 16.9526 14.4913C17.478 14.353 18.0035 14.1041 18.5289 13.8552V12.6937ZM18.5289 10.7302C17.8099 10.7302 17.1461 10.7855 16.8696 10.9791C16.676 11.0897 16.6207 11.3662 16.593 11.6981H18.5289V10.7302ZM0.967928 11.6981H2.93144C2.90378 11.3939 2.84847 11.0897 2.65489 10.9791C2.48896 10.8684 2.18475 10.8131 1.85289 10.7578C1.60399 10.7578 1.29979 10.7302 0.967928 10.7302V11.6981ZM18.5289 14.9337C18.0864 15.1273 17.6439 15.3209 17.2015 15.4315C16.6484 15.5698 16.1229 15.5975 15.6251 15.5975C15.6251 15.7357 15.6251 15.874 15.6528 15.9846C15.6804 16.1782 15.7081 16.3165 15.791 16.3995C15.9846 16.593 16.5377 16.593 17.0632 16.593C17.6163 16.593 18.1694 16.593 18.363 16.3995C18.5289 16.2335 18.5289 15.7634 18.5289 14.9337ZM3.89937 15.5975H3.37392C3.04206 15.5698 2.68254 15.5145 2.32303 15.4315C1.88054 15.3209 1.41041 15.1273 0.967928 14.9337C0.967928 15.3486 0.995583 15.6804 1.02324 15.957C1.05089 16.1782 1.07855 16.3441 1.16151 16.3995C1.3551 16.593 1.88054 16.593 2.43365 16.593C2.76551 16.593 3.06971 16.593 3.31861 16.5654C3.48454 16.5377 3.65047 16.4824 3.73343 16.3995C3.84406 16.2888 3.89937 15.9846 3.89937 15.5975ZM7.82639 1.96351H11.6981V0.967927H7.79873L7.82639 1.96351ZM2.43365 8.79431C2.18475 8.79431 1.96351 8.57307 1.96351 8.29652C1.96351 8.01997 2.18475 7.79873 2.43365 7.79873H17.0632C17.3397 7.79873 17.561 8.01997 17.561 8.29652C17.561 8.57307 17.3397 8.79431 17.0632 8.79431H2.43365Z" fill="#757575"/>
</svg>
