<svg width="21" height="28" viewBox="0 0 21 28" fill="none" xmlns="http://www.w3.org/2000/svg">
<path fill-rule="evenodd" clip-rule="evenodd" d="M1.47014 21.0908C1.22124 20.8419 1.11062 20.5101 1.05531 20.0676C1 19.6804 1 19.2103 1 18.6295V14.7302C1 13.5133 1 12.822 1.22124 12.4071C1.33186 12.1859 1.47014 12.0753 1.60841 11.937C1.74669 11.8264 1.88496 11.7158 2.02324 11.4392C2.21682 11.052 2.43806 10.333 2.6593 9.61398C2.74227 9.28212 2.85289 8.95026 2.99117 8.56309C3.1571 8.03764 3.32303 7.62281 3.51661 7.2633C3.73785 6.87613 3.98675 6.57192 4.31861 6.35068C4.62281 6.1571 4.98233 6.04648 5.34185 5.99117C5.70136 5.96351 6.03322 5.96351 6.36508 5.96351H7.8308V4.49779C7.8308 4.22124 8.05204 4 8.32859 4H13.1959C13.4724 4 13.6937 4.22124 13.6937 4.49779V5.96351H15.1594C15.8784 5.96351 16.5975 5.96351 17.2059 6.35068C17.5101 6.57192 17.759 6.87613 17.9802 7.2633C18.2015 7.62281 18.3674 8.03764 18.5333 8.56309C18.6716 8.95026 18.7546 9.28212 18.8652 9.61398C19.0864 10.333 19.28 11.052 19.4736 11.4392C19.6395 11.7158 19.7778 11.8264 19.8884 11.937C20.0543 12.0753 20.1926 12.1859 20.3032 12.4071C20.4139 12.6284 20.4692 12.9326 20.4968 13.3474C20.5245 13.7346 20.5245 14.1771 20.5245 14.7302V18.6295C20.5245 19.9017 20.5245 20.6207 20.0543 21.0908C19.5842 21.561 18.8375 21.561 18.0632 21.561C17.3165 21.561 16.5698 21.561 16.0997 21.0908C15.8508 20.8419 15.7402 20.5101 15.6848 20.1229C15.6572 19.957 15.6572 19.791 15.6295 19.6251H5.86729C5.86729 20.1782 5.78433 20.7313 5.42481 21.0908C5.17592 21.3397 4.8164 21.4503 4.45688 21.5057C4.12502 21.561 3.79316 21.561 3.43365 21.561C2.68696 21.561 1.94027 21.561 1.47014 21.0908ZM5.95026 14.0388C5.81198 13.8175 5.86729 13.5133 6.08853 13.3474C6.30977 13.2091 6.61398 13.2644 6.77991 13.4857C7.05646 13.9005 7.33301 14.3153 7.91377 14.5089C8.21797 14.6195 8.66046 14.6749 9.13059 14.7025C9.62838 14.7302 10.1815 14.7302 10.7622 14.7302C11.8684 14.7302 12.9746 14.7302 13.6107 14.5089C14.1915 14.3153 14.468 13.9005 14.7446 13.4857C14.8828 13.2644 15.1871 13.2091 15.4083 13.3474C15.6572 13.5133 15.7125 13.8175 15.5466 14.0388C15.1871 14.5919 14.7999 15.145 13.9149 15.4492C13.1129 15.6981 11.9238 15.6981 10.7622 15.6981C10.1815 15.6981 9.62838 15.6981 9.07528 15.6704C8.52218 15.6428 8.02439 15.5875 7.60956 15.4492C6.69694 15.145 6.33743 14.5919 5.95026 14.0388ZM6.36508 17.6616C6.08853 17.6616 5.86729 17.4404 5.86729 17.1638C5.86729 16.9149 6.08853 16.6937 6.36508 16.6937H15.1594C15.4083 16.6937 15.6295 16.9149 15.6295 17.1638C15.6295 17.4404 15.4083 17.6616 15.1594 17.6616H6.36508ZM19.5289 16.6937H17.0953C16.8187 16.6937 16.6251 16.4724 16.6251 16.1959C16.6251 15.4215 16.6251 14.6472 17.3165 14.1771C17.8419 13.8175 18.6716 13.7622 19.5289 13.7622V13.4027C19.5012 13.1262 19.4736 12.9326 19.4183 12.8496C19.4183 12.7943 19.363 12.739 19.28 12.6837C19.0864 12.5178 18.8652 12.3242 18.6163 11.854C18.3674 11.3839 18.1461 10.6372 17.9249 9.91819C17.8143 9.53101 17.7037 9.14384 17.6207 8.86729C17.4548 8.42481 17.3165 8.03764 17.1506 7.73343C16.9846 7.48454 16.8464 7.29095 16.6804 7.18033C16.2933 6.93144 15.7125 6.93144 15.1594 6.93144H6.36508C6.06088 6.93144 5.72902 6.93144 5.48012 6.95909C5.23123 6.98675 5.03764 7.06971 4.84406 7.18033C4.67812 7.29095 4.51219 7.48454 4.37392 7.73343C4.20799 8.03764 4.04206 8.42481 3.90378 8.86729C3.82082 9.14384 3.7102 9.53101 3.57192 9.91819C3.35068 10.6372 3.12944 11.3839 2.9082 11.854C2.6593 12.3242 2.43806 12.5178 2.24448 12.6837C2.16151 12.739 2.1062 12.7943 2.07855 12.8496C2.02324 12.9879 1.99558 13.2921 1.99558 13.7622C2.29979 13.7622 2.63165 13.7622 2.93586 13.7899C3.43365 13.8452 3.87613 13.9558 4.20799 14.1771C4.89937 14.6472 4.89937 15.4215 4.89937 16.1959C4.89937 16.4724 4.67812 16.6937 4.42923 16.6937H1.96793V17.8552C2.52103 18.1041 3.04648 18.353 3.57192 18.4913C3.84847 18.5742 4.15268 18.6019 4.45688 18.6295H16.1273C16.7357 18.6295 17.3718 18.6295 17.9526 18.4913C18.478 18.353 19.0035 18.1041 19.5289 17.8552V16.6937ZM19.5289 14.7302C18.8099 14.7302 18.1461 14.7855 17.8696 14.9791C17.676 15.0897 17.6207 15.3662 17.593 15.6981H19.5289V14.7302ZM1.96793 15.6981H3.93144C3.90378 15.3939 3.84847 15.0897 3.65489 14.9791C3.48896 14.8684 3.18475 14.8131 2.85289 14.7578C2.60399 14.7578 2.29979 14.7302 1.96793 14.7302V15.6981ZM19.5289 18.9337C19.0864 19.1273 18.6439 19.3209 18.2015 19.4315C17.6484 19.5698 17.1229 19.5975 16.6251 19.5975C16.6251 19.7357 16.6251 19.874 16.6528 19.9846C16.6804 20.1782 16.7081 20.3165 16.791 20.3995C16.9846 20.593 17.5377 20.593 18.0632 20.593C18.6163 20.593 19.1694 20.593 19.363 20.3995C19.5289 20.2335 19.5289 19.7634 19.5289 18.9337ZM4.89937 19.5975H4.37392C4.04206 19.5698 3.68254 19.5145 3.32303 19.4315C2.88054 19.3209 2.41041 19.1273 1.96793 18.9337C1.96793 19.3486 1.99558 19.6804 2.02324 19.957C2.05089 20.1782 2.07855 20.3441 2.16151 20.3995C2.3551 20.593 2.88054 20.593 3.43365 20.593C3.76551 20.593 4.06971 20.593 4.31861 20.5654C4.48454 20.5377 4.65047 20.4824 4.73343 20.3995C4.84406 20.2888 4.89937 19.9846 4.89937 19.5975ZM8.82639 5.96351H12.6981V4.96793H8.79873L8.82639 5.96351ZM3.43365 12.7943C3.18475 12.7943 2.96351 12.5731 2.96351 12.2965C2.96351 12.02 3.18475 11.7987 3.43365 11.7987H18.0632C18.3397 11.7987 18.561 12.02 18.561 12.2965C18.561 12.5731 18.3397 12.7943 18.0632 12.7943H3.43365Z" fill="white"/>
</svg>
