<svg width="20" height="20" viewBox="0 0 20 20" fill="none" xmlns="http://www.w3.org/2000/svg">
<path fill-rule="evenodd" clip-rule="evenodd" d="M4.47044 0.702556C5.00902 1.07106 5.66099 1.66633 6.22792 2.26161C6.73815 2.80019 7.22004 3.36712 7.47516 3.84901C8.12713 5.06791 7.58855 5.60649 6.96492 6.23011C6.73815 6.48523 6.48303 6.74035 6.25626 6.99547C6.05784 7.25059 5.88776 7.5057 5.74603 7.81751C5.66099 8.07263 5.60429 8.38444 5.66099 8.7246C5.71768 9.09311 5.88776 9.54665 6.25626 10.1136L6.28461 10.1419C6.68146 10.7372 7.27673 11.4175 7.9287 12.0695C8.58067 12.7215 9.28933 13.3167 9.88461 13.7136C10.4232 14.0821 10.8767 14.2805 11.2736 14.3372C11.6137 14.3939 11.9256 14.3372 12.1807 14.2238C12.4641 14.1104 12.7476 13.9403 13.0027 13.7136C13.2578 13.5152 13.513 13.26 13.7397 13.0333C14.3633 12.3813 14.9019 11.8711 16.1492 12.523C16.6027 12.7781 17.198 13.2317 17.7366 13.7703C18.3319 14.3372 18.8988 14.9892 19.2956 15.4994C19.6925 16.0663 19.8909 16.5199 19.9476 16.8884C20.0326 17.3419 19.9759 17.6821 19.8342 17.9939C19.6925 18.3057 19.4941 18.5892 19.2673 18.8443C19.0122 19.0711 18.7287 19.2695 18.4169 19.4396C18.1051 19.5813 17.7366 19.723 17.2547 19.8081C16.8295 19.8931 16.2909 19.9498 15.5822 19.9781C14.8452 20.0065 13.9382 20.0348 12.8893 19.8364C11.8122 19.638 10.5649 19.2128 9.20429 18.3624C7.84366 17.5687 6.3413 16.3214 5.00902 14.9892C3.64839 13.6285 2.42949 12.1262 1.60745 10.7939C0.785398 9.40492 0.360201 8.18602 0.161776 7.10885C-0.0366489 6.03169 -0.00830248 5.1246 0.020044 4.41594C0.0483904 3.67893 0.105083 3.14035 0.190123 2.71515C0.275162 2.23326 0.388548 1.89311 0.558627 1.5813L0.586973 1.5246C0.728705 1.21279 0.92713 0.957674 1.1539 0.730902C1.40902 0.475784 1.69248 0.277359 1.97595 0.163973L2.0043 0.135627C2.31611 0.0222409 2.68461 -0.034452 3.08146 0.0222409C3.47831 0.10728 3.93185 0.305705 4.47044 0.702556ZM5.49091 2.94193C4.98067 2.375 4.3854 1.86476 3.90351 1.49626C3.47831 1.21279 3.1665 1.07106 2.91138 1.01437C2.71296 0.98602 2.54288 1.01437 2.40115 1.07106H2.3728C2.20272 1.1561 2.0043 1.26948 1.86256 1.43956C1.72083 1.5813 1.5791 1.77972 1.46571 1.97815L1.43737 2.00649C1.32398 2.26161 1.23894 2.51673 1.18225 2.88523C1.09721 3.28208 1.04052 3.79232 1.01217 4.44429C0.983823 5.1246 0.955477 5.94665 1.1539 6.91043C1.32398 7.90255 1.69248 9.00807 2.45784 10.2837C3.25154 11.5592 4.41374 12.9766 5.71768 14.2805C7.02162 15.5844 8.43894 16.7466 9.71453 17.512C10.9618 18.2774 12.0956 18.6742 13.0594 18.8443C14.0232 19.0144 14.8452 19.0144 15.5256 18.986C16.2059 18.9293 16.6878 18.901 17.0846 18.8159C17.4531 18.7592 17.7366 18.6742 17.9633 18.5325C18.1901 18.4191 18.3885 18.2774 18.5586 18.1356C18.7004 17.9655 18.8421 17.7955 18.8988 17.6254C18.9838 17.4553 19.0122 17.2852 18.9838 17.0868C18.9271 16.8317 18.7854 16.5199 18.4736 16.0947C18.1334 15.6128 17.5948 15.0175 17.0563 14.4789C16.546 14.0254 16.0641 13.6002 15.6673 13.4018C15.1004 13.09 14.7885 13.3734 14.4484 13.7136C14.1933 13.9687 13.9382 14.2522 13.6263 14.5073C13.3145 14.7624 12.946 14.9892 12.5492 15.1592C12.124 15.3293 11.6704 15.4144 11.1035 15.3293C10.5933 15.2443 9.99799 15.0175 9.31768 14.564C8.66571 14.1104 7.90036 13.4585 7.22004 12.7781C6.53973 12.0978 5.88776 11.3325 5.46256 10.6805H5.43422C4.98067 9.97184 4.7539 9.40492 4.66886 8.86633C4.58382 8.32775 4.66886 7.84586 4.83894 7.44901C4.98067 7.02381 5.23579 6.68366 5.49091 6.37185C5.74603 6.06003 6.00114 5.77657 6.25626 5.52145C6.59642 5.18129 6.90823 4.89783 6.59642 4.3309C6.36965 3.93405 5.9728 3.42382 5.49091 2.94193Z" fill="#333333"/>
</svg>
