<svg width="23" height="24" viewBox="0 0 23 24" fill="none" xmlns="http://www.w3.org/2000/svg">
<path d="M17.4588 23.2204C17.373 23.2211 17.2877 23.2071 17.2064 23.179C13.1853 21.8652 9.52995 19.5919 6.54416 16.5481C3.55838 13.5042 1.32844 9.77771 0.0397327 5.67842C-0.0272101 5.46701 -0.00903433 5.23716 0.0902618 5.03942C0.189558 4.84168 0.361844 4.69225 0.569213 4.624C0.776582 4.55576 1.00205 4.57429 1.19602 4.67551C1.38998 4.77674 1.53656 4.95238 1.6035 5.16378C2.81294 9.01009 4.9054 12.5066 7.70697 15.3626C10.5085 18.2187 13.9383 20.3519 17.7112 21.5848C17.8989 21.6449 18.0592 21.7717 18.163 21.9422C18.2667 22.1126 18.3069 22.3154 18.2764 22.5135C18.2458 22.7117 18.1464 22.892 17.9964 23.0218C17.8463 23.1515 17.6555 23.222 17.4588 23.2204Z" fill="white"/>
<path d="M13.8787 16.8791C13.7283 16.8794 13.5807 16.8375 13.4522 16.7579C10.5462 14.9642 8.10935 12.48 6.34994 9.51749C6.2507 9.32797 6.22648 9.10689 6.28223 8.89972C6.33799 8.69254 6.46949 8.51502 6.6497 8.40365C6.82991 8.29229 7.04513 8.25555 7.25109 8.30099C7.45706 8.34643 7.63812 8.47059 7.75704 8.64794C9.37981 11.3788 11.6264 13.6691 14.3051 15.3234C14.4599 15.4175 14.5799 15.561 14.6468 15.7316C14.7136 15.9022 14.7236 16.0905 14.6751 16.2674C14.6266 16.4443 14.5223 16.6001 14.3784 16.7107C14.2345 16.8212 14.0589 16.8804 13.8787 16.8791Z" fill="white"/>
<path d="M10.2724 6.6279C10.1646 6.62797 10.0578 6.60632 9.95826 6.56419C9.85868 6.52206 9.76825 6.46029 9.69217 6.38241L4.78616 1.3809C4.65444 1.21988 4.58656 1.01446 4.59584 0.805011C4.60512 0.595559 4.69091 0.397214 4.83633 0.248958C4.98176 0.100701 5.17631 0.0132505 5.38176 0.0037865C5.58722 -0.00567748 5.78871 0.0635333 5.94666 0.197815L10.8498 5.19932C10.964 5.31678 11.0418 5.46601 11.0732 5.62832C11.1046 5.79063 11.0883 5.95877 11.0263 6.11167C10.9643 6.26457 10.8594 6.3954 10.7248 6.48777C10.5902 6.58013 10.4318 6.62991 10.2695 6.63086L10.2724 6.6279Z" fill="white"/>
<path d="M22.005 18.5854C21.8972 18.5857 21.7904 18.5641 21.6908 18.522C21.5912 18.4798 21.5008 18.418 21.4248 18.34L16.5159 13.3298C16.428 13.255 16.3563 13.1625 16.3054 13.0579C16.2546 12.9534 16.2256 12.8392 16.2205 12.7226C16.2153 12.606 16.234 12.4896 16.2754 12.3809C16.3168 12.2721 16.38 12.1733 16.461 12.0907C16.5419 12.0082 16.6388 11.9438 16.7455 11.9016C16.8523 11.8594 16.9664 11.8403 17.0808 11.8456C17.1951 11.8509 17.3072 11.8804 17.4097 11.9322C17.5122 11.9841 17.6031 12.0571 17.6764 12.1467L22.5824 17.1481C22.6971 17.2651 22.7752 17.4142 22.8068 17.5765C22.8384 17.7387 22.8222 17.9069 22.7601 18.0598C22.698 18.2127 22.5929 18.3433 22.4579 18.4353C22.323 18.5273 22.1644 18.5764 22.0021 18.5766L22.005 18.5854Z" fill="white"/>
<path d="M13.8787 16.8789C13.7708 16.8795 13.6639 16.858 13.5642 16.8159C13.4646 16.7737 13.3742 16.7117 13.2984 16.6334C13.1446 16.4765 13.0583 16.2637 13.0583 16.0419C13.0583 15.8201 13.1446 15.6073 13.2984 15.4504L16.5159 12.1467C16.5892 12.0571 16.68 11.9841 16.7826 11.9322C16.8851 11.8804 16.9971 11.8508 17.1115 11.8456C17.2258 11.8403 17.34 11.8594 17.4467 11.9016C17.5534 11.9438 17.6504 12.0082 17.7313 12.0907C17.8122 12.1733 17.8754 12.2721 17.9168 12.3809C17.9582 12.4896 17.977 12.606 17.9718 12.7226C17.9666 12.8392 17.9377 12.9534 17.8868 13.0579C17.836 13.1625 17.7643 13.255 17.6764 13.3298L14.4589 16.6098C14.3849 16.692 14.2954 16.7583 14.1957 16.8045C14.096 16.8508 13.9882 16.8761 13.8787 16.8789Z" fill="white"/>
<path d="M7.05203 9.9077C6.88974 9.90757 6.73112 9.85842 6.59622 9.76643C6.46132 9.67445 6.35618 9.54378 6.29409 9.39091C6.232 9.23805 6.21574 9.06984 6.24737 8.90756C6.279 8.74528 6.35709 8.5962 6.47179 8.47915L9.69215 5.19612C9.76738 5.11413 9.85802 5.04842 9.95868 5.00287C10.0593 4.95733 10.1679 4.9329 10.2781 4.93102C10.3882 4.92915 10.4975 4.94988 10.5996 4.99198C10.7017 5.03407 10.7944 5.09668 10.8723 5.17607C10.9502 5.25545 11.0116 5.34999 11.0529 5.45407C11.0942 5.55815 11.1145 5.66963 11.1127 5.78188C11.1108 5.89413 11.0869 6.00486 11.0422 6.10748C10.9975 6.2101 10.9331 6.3025 10.8526 6.37919L7.63518 9.66222C7.55885 9.74058 7.46797 9.80265 7.36784 9.8448C7.26772 9.88695 7.16036 9.90833 7.05203 9.9077Z" fill="white"/>
<path d="M0.823163 6.25806C0.660868 6.25793 0.50225 6.20877 0.367348 6.11679C0.232445 6.02481 0.127308 5.89412 0.0652175 5.74126C0.0031272 5.5884 -0.0131316 5.42021 0.0184955 5.25793C0.0501227 5.09565 0.128219 4.94657 0.242915 4.82952L4.78916 0.19488C4.94711 0.0606021 5.1486 -0.00860694 5.35406 0.000856795C5.55951 0.0103205 5.75406 0.0977783 5.89949 0.246031C6.04491 0.394283 6.13069 0.592614 6.13998 0.802061C6.14926 1.01151 6.08137 1.21692 5.94966 1.37794L1.40341 6.00961C1.32786 6.08842 1.2376 6.15101 1.13794 6.19368C1.03828 6.23635 0.931254 6.25824 0.823163 6.25806Z" fill="white"/>
<path d="M17.4588 23.2205C17.2965 23.2195 17.1381 23.1697 17.0035 23.0774C16.8689 22.985 16.764 22.8542 16.702 22.7013C16.64 22.5484 16.6237 22.3802 16.6551 22.2179C16.6865 22.0556 16.7643 21.9063 16.8785 21.7889L21.4219 17.1569C21.5775 17.0086 21.7835 16.9276 21.9965 16.9313C22.2095 16.9349 22.4127 17.0228 22.5634 17.1763C22.714 17.3299 22.8002 17.5371 22.8037 17.7543C22.8073 17.9714 22.7279 18.1815 22.5824 18.3401L18.0419 22.975C17.8868 23.1319 17.6773 23.2201 17.4588 23.2205Z" fill="white"/>
</svg>
