<svg width="19" height="20" viewBox="0 0 19 20" fill="none" xmlns="http://www.w3.org/2000/svg">
<path d="M13.887 19.4434C13.8188 19.444 13.7509 19.4329 13.6863 19.4105C10.4878 18.3655 7.58029 16.5573 5.20534 14.1361C2.8304 11.715 1.05667 8.75091 0.0316041 5.49027C-0.0216434 5.32212 -0.00718607 5.13929 0.0717959 4.982C0.150778 4.82472 0.287817 4.70586 0.452762 4.65157C0.617707 4.59729 0.797047 4.61203 0.951332 4.69255C1.10562 4.77306 1.22221 4.91277 1.27545 5.08092C2.23746 8.14033 3.90184 10.9215 6.13026 13.1932C8.35868 15.465 11.0868 17.1617 14.0878 18.1425C14.2371 18.1902 14.3647 18.2911 14.4472 18.4267C14.5297 18.5623 14.5617 18.7235 14.5374 18.8811C14.513 19.0388 14.434 19.1822 14.3146 19.2854C14.1953 19.3886 14.0435 19.4447 13.887 19.4434Z" fill="#21452C"/>
<path d="M11.0393 14.3985C10.9197 14.3988 10.8023 14.3654 10.7001 14.3021C8.3886 12.8754 6.45031 10.8994 5.05084 8.54295C4.97191 8.3922 4.95264 8.21636 4.99699 8.05157C5.04134 7.88678 5.14594 7.74557 5.28928 7.65699C5.43262 7.56841 5.60381 7.53919 5.76764 7.57533C5.93146 7.61147 6.07548 7.71023 6.17007 7.8513C7.46085 10.0235 9.2478 11.8452 11.3785 13.1611C11.5016 13.236 11.5971 13.3501 11.6503 13.4858C11.7035 13.6215 11.7114 13.7712 11.6728 13.912C11.6342 14.0527 11.5513 14.1766 11.4368 14.2645C11.3223 14.3525 11.1826 14.3995 11.0393 14.3985Z" fill="#21452C"/>
<path d="M8.17089 6.24444C8.08514 6.2445 8.00021 6.22728 7.921 6.19377C7.8418 6.16026 7.76987 6.11113 7.70935 6.04918L3.80699 2.07096C3.70222 1.94288 3.64822 1.77949 3.65561 1.61289C3.66299 1.44629 3.73122 1.28853 3.8469 1.17061C3.96257 1.05268 4.11732 0.983124 4.28075 0.975596C4.44417 0.968068 4.60444 1.02312 4.73008 1.12993L8.63013 5.10815C8.72103 5.20157 8.78285 5.32028 8.80783 5.44938C8.83281 5.57848 8.81984 5.71222 8.77054 5.83383C8.72125 5.95545 8.63782 6.05952 8.53074 6.13298C8.42365 6.20645 8.29766 6.24605 8.16859 6.2468L8.17089 6.24444Z" fill="#21452C"/>
<path d="M17.5032 15.756C17.4174 15.7562 17.3324 15.739 17.2532 15.7055C17.174 15.672 17.1021 15.6228 17.0416 15.5607L13.137 11.5754C13.0671 11.516 13.0101 11.4423 12.9696 11.3592C12.9292 11.276 12.9061 11.1852 12.902 11.0925C12.8979 10.9997 12.9128 10.9072 12.9457 10.8206C12.9787 10.7341 13.0289 10.6555 13.0933 10.5899C13.1577 10.5242 13.2348 10.473 13.3197 10.4394C13.4046 10.4058 13.4954 10.3907 13.5863 10.3948C13.6773 10.399 13.7664 10.4225 13.848 10.4637C13.9295 10.505 14.0018 10.5631 14.0601 10.6344L17.9624 14.6126C18.0536 14.7057 18.1158 14.8243 18.1409 14.9534C18.1661 15.0825 18.1531 15.2163 18.1038 15.3378C18.0544 15.4594 17.9707 15.5634 17.8634 15.6365C17.7561 15.7097 17.63 15.7488 17.5009 15.7489L17.5032 15.756Z" fill="#21452C"/>
<path d="M11.0393 14.3985C10.9535 14.399 10.8684 14.3819 10.7892 14.3484C10.7099 14.3149 10.638 14.2655 10.5777 14.2033C10.4554 14.0784 10.3867 13.9092 10.3867 13.7327C10.3867 13.5563 10.4554 13.3871 10.5777 13.2622L13.137 10.6344C13.1953 10.5631 13.2675 10.505 13.3491 10.4637C13.4306 10.4225 13.5197 10.399 13.6107 10.3948C13.7017 10.3907 13.7925 10.4058 13.8773 10.4394C13.9622 10.473 14.0393 10.5242 14.1037 10.5899C14.1681 10.6555 14.2183 10.7341 14.2513 10.8206C14.2842 10.9072 14.2991 10.9997 14.295 11.0925C14.2909 11.1852 14.2679 11.276 14.2274 11.3592C14.187 11.4423 14.1299 11.516 14.06 11.5754L11.5008 14.1844C11.4419 14.2499 11.3707 14.3026 11.2914 14.3394C11.2121 14.3762 11.1264 14.3963 11.0393 14.3985Z" fill="#21452C"/>
<path d="M5.60935 8.85349C5.48026 8.85338 5.35409 8.81428 5.24679 8.74112C5.13949 8.66796 5.05586 8.56401 5.00647 8.44242C4.95708 8.32083 4.94415 8.18704 4.96931 8.05796C4.99446 7.92888 5.05658 7.8103 5.14781 7.71719L7.70935 5.10582C7.76919 5.04061 7.84129 4.98833 7.92135 4.95211C8.00142 4.91588 8.08781 4.89645 8.17539 4.89496C8.26298 4.89347 8.34996 4.90996 8.43116 4.94344C8.51237 4.97693 8.58614 5.02672 8.64807 5.08987C8.71001 5.15301 8.75886 5.22821 8.79171 5.311C8.82455 5.39378 8.84072 5.48246 8.83926 5.57174C8.8378 5.66103 8.81874 5.74911 8.78321 5.83073C8.74767 5.91235 8.69639 5.98585 8.63242 6.04686L6.0732 8.65822C6.01248 8.72056 5.94019 8.76993 5.86055 8.80345C5.78091 8.83698 5.69552 8.85399 5.60935 8.85349Z" fill="#21452C"/>
<path d="M0.654674 5.9504C0.525582 5.9503 0.399414 5.9112 0.29211 5.83804C0.184806 5.76487 0.101178 5.66092 0.0517901 5.53933C0.00240239 5.41774 -0.0105301 5.28396 0.0146266 5.15488C0.0397834 5.0258 0.101903 4.90722 0.193134 4.81411L3.8093 1.12761C3.93493 1.0208 4.09521 0.965749 4.25863 0.973277C4.42205 0.980804 4.5768 1.05037 4.69247 1.16829C4.80815 1.28622 4.87638 1.44397 4.88376 1.61057C4.89115 1.77717 4.83715 1.94056 4.73238 2.06864L1.11621 5.75279C1.05612 5.81547 0.984323 5.86526 0.905054 5.8992C0.825784 5.93314 0.740651 5.95055 0.654674 5.9504Z" fill="#21452C"/>
<path d="M13.887 19.4425C13.7579 19.4417 13.6319 19.4021 13.5248 19.3286C13.4177 19.2552 13.3343 19.1511 13.285 19.0295C13.2357 18.9079 13.2228 18.7741 13.2477 18.645C13.2727 18.5159 13.3345 18.3972 13.4254 18.3038L17.0393 14.6197C17.1631 14.5017 17.3269 14.4373 17.4964 14.4402C17.6658 14.4431 17.8275 14.513 17.9473 14.6351C18.0671 14.7572 18.1356 14.9221 18.1385 15.0948C18.1413 15.2675 18.0782 15.4346 17.9624 15.5607L14.3508 19.2472C14.2275 19.372 14.0608 19.4422 13.887 19.4425Z" fill="#21452C"/>
</svg>
