<svg width="58" height="58" viewBox="0 0 58 58" fill="none" xmlns="http://www.w3.org/2000/svg">
<path d="M29 0C13.0084 0 0 13.0097 0 29C0 44.9903 13.0084 58 29 58C44.9916 58 58 44.9903 58 29C58 13.0097 44.9916 0 29 0ZM29 55.5834C14.3419 55.5834 2.41663 43.6581 2.41663 29C2.41663 14.3419 14.3419 2.41663 29 2.41663C43.6581 2.41663 55.5834 14.3419 55.5834 29C55.5834 43.6581 43.6581 55.5834 29 55.5834Z" fill="white"/>
<path d="M40.5287 27.9846L23.6121 17.1096C23.2416 16.8677 22.7625 16.8547 22.3802 17.0647C21.9907 17.2771 21.75 17.6831 21.75 18.1256V39.8756C21.75 40.3181 21.9907 40.7241 22.3802 40.9365C22.5595 41.0345 22.7601 41.084 22.9584 41.084C23.1849 41.084 23.4139 41.0202 23.6121 40.8916L40.5287 30.0166C40.8733 29.7948 41.0834 29.4112 41.0834 29.0006C41.0834 28.5899 40.8733 28.2065 40.5287 27.9846ZM24.1666 37.6618V20.3393L37.6401 29.0006L24.1666 37.6618Z" fill="white"/>
</svg>
