<svg width="20" height="20" viewBox="0 0 20 20" fill="none" xmlns="http://www.w3.org/2000/svg">
<path fill-rule="evenodd" clip-rule="evenodd" d="M9.26567 0.497807C9.26567 0.221256 9.48691 1.52588e-05 9.76346 1.52588e-05C10.04 1.52588e-05 10.2613 0.221256 10.2613 0.497807V9.26446H19.0279C19.3045 9.26446 19.5257 9.48571 19.5257 9.76226C19.5257 10.0388 19.3045 10.26 19.0279 10.26H10.2613V19.0267C10.2613 19.3033 10.04 19.5245 9.76346 19.5245C9.48691 19.5245 9.26567 19.3033 9.26567 19.0267V10.26H0.499012C0.222461 10.26 0.0012207 10.0388 0.0012207 9.76226C0.0012207 9.48571 0.222461 9.26446 0.499012 9.26446H9.26567V0.497807Z" fill="#281F16"/>
</svg>
