<svg width="22" height="22" viewBox="0 0 22 22" fill="none" xmlns="http://www.w3.org/2000/svg">
<path fill-rule="evenodd" clip-rule="evenodd" d="M1.47402 21.5175C1.2189 21.2624 1.10551 20.9222 1.04882 20.327C0.992126 19.8167 0.992126 19.1081 0.992126 18.0026V8.90335C1.10551 8.93169 1.2189 8.93169 1.30394 8.93169C2.06929 9.01673 3.14646 9.01673 4.84725 9.01673H17.178C19.0488 9.01673 20.211 9.01673 21.0047 8.90335V18.0026C21.0047 20.327 21.0047 21.0356 20.5228 21.5175C20.2677 21.7726 19.9276 21.9144 19.2189 21.9711C18.6236 21.9994 17.7449 21.9994 16.3276 21.9994H5.66929C2.66457 21.9994 1.95591 21.9994 1.47402 21.5175ZM14.0032 21.0073V10.4907C14.0032 10.2356 13.7764 10.0089 13.4929 10.0089C13.2378 10.0089 13.011 10.2356 13.011 10.4907V21.0073H14.0032ZM9.01418 21.0073V10.4907C9.01418 10.2356 8.78741 10.0089 8.50394 10.0089C8.22048 10.0089 7.9937 10.2356 7.9937 10.4907V21.0073H9.01418ZM9.07087 4.33956C9.04252 4.08445 9.01418 3.80098 9.01418 3.51752C9.01418 3.20571 9.04252 2.92224 9.07087 2.66712L8.95748 2.61043C8.70237 2.4687 8.39055 2.29862 8.0504 2.10019C7.54016 1.81673 6.97323 1.47657 6.49134 1.27815C6.12284 1.10807 5.78268 1.05138 5.49922 1.02303C5.21575 0.994682 4.96063 0.994682 4.76221 1.05138C4.59213 1.07972 4.4504 1.10807 4.36536 1.16476C4.33701 1.19311 4.33701 1.22145 4.33701 1.30649C4.33701 1.47657 4.3937 1.73169 4.4504 2.0435C4.56378 2.4687 4.67717 2.97893 4.67717 3.51752C4.67717 4.02775 4.56378 4.53799 4.4504 4.99153C4.3937 5.275 4.33701 5.53012 4.33701 5.70019C4.33701 5.78523 4.33701 5.81358 4.36536 5.84193C4.4504 5.89862 4.59213 5.92697 4.76221 5.95531C4.96063 6.01201 5.21575 6.01201 5.49922 5.98366C5.78268 5.95531 6.12284 5.89862 6.49134 5.72854H6.51969C7.00158 5.53012 7.56851 5.18996 8.0504 4.90649C8.39055 4.70807 8.70237 4.53799 8.95748 4.39626L9.07087 4.33956ZM9.38268 1.70334C9.49607 1.50492 9.6378 1.36319 9.80788 1.2498L9.83622 1.22145C10.2047 0.994682 10.6016 0.994682 10.9984 0.994682C11.4236 0.994682 11.8205 0.994682 12.189 1.2498C12.3591 1.36319 12.5008 1.50492 12.6142 1.70334C12.841 1.58996 13.1244 1.41988 13.4362 1.2498C13.9748 0.909643 14.5984 0.569485 15.137 0.342714C15.6189 0.144288 16.0441 0.0592489 16.4126 0.0309025C16.8095 -0.0257905 17.1213 0.002556 17.4047 0.0592489C17.7449 0.115942 18.0284 0.200981 18.2551 0.37106C18.5102 0.597832 18.6803 0.881296 18.6803 1.30649C18.6803 1.58996 18.5953 1.90177 18.5102 2.24193C18.4819 2.49704 18.3969 2.75216 18.3685 3.00728C20.5512 3.00728 21.1181 3.09232 21.515 3.48917C21.7701 3.74429 21.9118 4.08445 21.9685 4.4813C21.9969 4.79311 21.9969 5.13327 21.9969 5.50177V5.70019C21.9969 6.09705 21.9969 6.52224 21.9402 6.8624C21.9118 7.20256 21.7984 7.48602 21.6567 7.6561C21.2882 7.99626 20.3528 7.99626 17.178 7.99626H4.84725C3.1748 7.99626 2.09764 7.99626 1.38898 7.93957C0.793701 7.88287 0.510236 7.79783 0.368504 7.6561C0.0283465 7.31594 0 6.55059 0 5.75689V5.50177C0 4.67972 0.0283465 3.94271 0.48189 3.48917C0.737008 3.23405 1.07717 3.09232 1.81417 3.03563C2.23937 3.00728 2.83465 3.00728 3.62835 3.00728C3.6 2.75216 3.54331 2.49704 3.48662 2.24193C3.40158 1.90177 3.34488 1.58996 3.34488 1.30649C3.34488 0.881296 3.48662 0.597832 3.74173 0.37106C3.96851 0.200981 4.25197 0.115942 4.59213 0.0592489C4.87559 0.002556 5.21575 -0.0257905 5.58425 0.0309025C5.98111 0.0592489 6.4063 0.144288 6.85985 0.342714C7.39843 0.569485 8.02205 0.909643 8.56063 1.2498C8.87245 1.41988 9.15591 1.58996 9.38268 1.70334ZM12.926 2.66712C12.9543 2.92224 12.9827 3.20571 12.9827 3.51752C12.9827 3.80098 12.9543 4.08445 12.926 4.33956C12.9543 4.36791 13.011 4.39626 13.0677 4.39626C13.3228 4.53799 13.6063 4.70807 13.9465 4.90649C14.4567 5.18996 15.0236 5.53012 15.5055 5.72854H15.5339C15.9024 5.89862 16.2142 5.95531 16.4976 5.98366C16.7811 6.01201 17.0362 6.01201 17.263 5.95531C17.4331 5.92697 17.5748 5.89862 17.6315 5.84193C17.6599 5.81358 17.6599 5.78523 17.6599 5.70019C17.6599 5.53012 17.6032 5.275 17.5465 4.99153C17.4614 4.53799 17.348 4.02775 17.348 3.51752C17.348 2.97893 17.4614 2.4687 17.5465 2.0435C17.6032 1.73169 17.6599 1.47657 17.6599 1.30649C17.6599 1.22145 17.6599 1.19311 17.6315 1.16476C17.5748 1.10807 17.4331 1.07972 17.263 1.05138C17.0362 0.994682 16.7811 0.994682 16.4976 1.02303C16.2142 1.05138 15.9024 1.10807 15.5339 1.27815C15.0236 1.47657 14.4567 1.81673 13.9465 2.10019C13.6063 2.29862 13.3228 2.4687 13.0677 2.61043L12.926 2.66712ZM10.0346 3.51752C10.0346 3.77264 10.0346 4.02775 10.0913 4.25453C10.1197 4.45295 10.148 4.62303 10.2331 4.73641C10.2614 4.82145 10.3181 4.87815 10.3748 4.93484C10.4882 4.99153 10.7433 4.99153 10.9984 4.99153C11.2535 4.99153 11.5087 4.99153 11.6221 4.93484H11.6504C11.7071 4.87815 11.7354 4.82145 11.7921 4.73641C11.8488 4.62303 11.9055 4.45295 11.9339 4.25453C11.9622 4.02775 11.9906 3.77264 11.9906 3.51752C11.9906 3.23405 11.9622 2.97893 11.9339 2.75216C11.8772 2.38366 11.7638 2.18523 11.6504 2.10019C11.5087 2.01515 11.2535 2.01515 10.9984 2.01515C10.7433 2.01515 10.5165 2.01515 10.3748 2.07185V2.10019C10.3181 2.12854 10.2614 2.18523 10.2331 2.27027C10.148 2.38366 10.1197 2.55374 10.0913 2.75216C10.0346 2.97893 10.0346 3.23405 10.0346 3.51752Z" fill="white"/>
</svg>
