<svg width="36" height="36" viewBox="0 0 36 36" fill="none" xmlns="http://www.w3.org/2000/svg">
<path d="M21.2552 7.58035V1.29655C21.2555 0.606158 21.8154 0.0466553 22.506 0.0468751C22.8601 0.0469483 23.1976 0.197243 23.4347 0.460258L34.6878 12.9604C35.0993 13.4186 35.1158 14.1081 34.7265 14.5854L23.4733 28.3355C23.0361 28.8699 22.2484 28.9487 21.7139 28.5116C21.4243 28.2748 21.256 27.9208 21.2552 27.5468V21.318C11.3774 21.6392 5.21319 25.8605 2.43484 34.1931C2.26443 34.7029 1.78712 35.0466 1.24951 35.0469C1.18211 35.0471 1.11471 35.0416 1.04819 35.0306C0.443325 34.9319 -0.000865936 34.4096 -0.000865936 33.7968C-0.000793457 19.0767 8.86294 8.26282 21.2552 7.58035ZM22.5056 18.7967C23.1962 18.7967 23.756 19.3563 23.756 20.0467V24.0467L32.1121 13.8354L23.7559 4.55402V8.79654C23.7559 9.48693 23.1961 10.0466 22.5055 10.0466C12.6777 10.0466 5.32316 16.8454 3.15501 27.2193C7.18001 21.6242 13.6606 18.7967 22.5056 18.7967Z" fill="#5EB848"/>
</svg>
