<svg width="20" height="20" viewBox="0 0 20 20" fill="none" xmlns="http://www.w3.org/2000/svg">
<path d="M6.48861 0C8.30202 0 9.91709 0.736694 11.0788 1.8984C12.2689 3.08845 13.0056 4.70351 13.0056 6.48857C13.0056 8.10363 12.4105 9.57702 11.4472 10.7387L12.3255 11.6171C12.3539 11.6171 12.3822 11.5888 12.4105 11.5888C12.6372 11.4754 12.8639 11.4188 13.1189 11.4471C13.3456 11.4754 13.5722 11.5888 13.8839 11.8154L13.9123 11.8438C14.1673 12.0138 14.5073 12.3255 14.989 12.7505C15.4707 13.1471 16.0373 13.6572 16.5757 14.1672C17.3124 14.8189 18.0491 15.4989 18.5875 15.9523C19.0691 16.4056 19.3242 16.6606 19.5225 16.8873L19.5508 16.9156C19.7492 17.1706 19.8342 17.369 19.8908 17.6523C19.9475 17.9357 19.9759 18.304 19.9192 18.6724C19.8625 18.984 19.7492 19.2957 19.5225 19.5224C19.2958 19.7491 18.9841 19.8624 18.6725 19.9191C18.3041 19.9757 17.9358 19.9474 17.6524 19.8907C17.3407 19.8341 17.1424 19.7491 16.8591 19.5224L16.8307 19.494C16.6324 19.2957 16.3774 19.0407 15.9523 18.5873C15.414 17.964 14.734 17.199 14.1673 16.6039C13.6856 16.0373 13.1756 15.4706 12.7505 14.9889C12.2972 14.4789 12.0138 14.1105 11.8438 13.8838L11.8155 13.8555C11.5888 13.5438 11.5038 13.3172 11.4755 13.0905C11.4188 12.8355 11.4755 12.6088 11.5888 12.4105C11.5888 12.3821 11.6172 12.3538 11.6172 12.3255L10.7388 11.4471C9.57707 12.4105 8.10368 13.0055 6.48861 13.0055C4.70353 13.0055 3.08846 12.2688 1.89841 11.1071L1.87008 11.0504C0.708363 9.8887 0 8.27364 0 6.48857C0 4.70351 0.736698 3.08845 1.89841 1.8984L1.92675 1.87007C3.1168 0.708359 4.73187 0 6.48861 0ZM12.4672 12.8355C12.4672 12.8921 12.4389 12.9205 12.4672 12.9488C12.4672 13.0338 12.5239 13.1188 12.6089 13.2605L12.6372 13.2888C12.8072 13.5155 13.0906 13.8555 13.5156 14.3372C13.8556 14.7339 14.3656 15.3006 14.9323 15.9239C15.669 16.7739 16.3207 17.4823 16.689 17.9073C17.0857 18.3323 17.3124 18.5873 17.4824 18.729L17.5107 18.7574C17.6241 18.8707 17.7091 18.899 17.8508 18.9274C18.0208 18.9557 18.2758 18.984 18.5025 18.9274C18.6158 18.9274 18.7575 18.8707 18.8141 18.814C18.8708 18.7574 18.8991 18.6157 18.9275 18.5023C18.9841 18.2757 18.9558 18.0207 18.9275 17.8507C18.8991 17.7373 18.8708 17.6523 18.7858 17.539L18.7575 17.5106C18.6158 17.3406 18.3608 17.0856 17.9074 16.6889C17.3974 16.2356 16.6607 15.5556 15.924 14.9039C15.329 14.3655 14.734 13.8555 14.3373 13.4872C13.8556 13.0621 13.5439 12.8071 13.3172 12.6371H13.2889C13.1189 12.4955 13.0339 12.4388 12.9772 12.4388C12.9489 12.4388 12.8922 12.4388 12.8639 12.4671C12.8072 12.4955 12.7222 12.5805 12.6372 12.6371C12.5805 12.7221 12.5239 12.7788 12.4672 12.8355ZM10.3988 2.60676C9.40707 1.61506 8.01867 0.991703 6.48861 0.991703C4.98688 0.991703 3.62682 1.61506 2.63511 2.57843L2.60678 2.60676C1.61507 3.59847 0.991709 4.98685 0.991709 6.48857C0.991709 8.01863 1.61507 9.37868 2.57844 10.3704L2.60678 10.3987C3.59849 11.3904 4.98688 11.9854 6.48861 11.9854C8.01867 11.9854 9.40707 11.3904 10.3988 10.3987C11.3905 9.40701 11.9855 8.01863 11.9855 6.48857C11.9855 4.98685 11.3905 3.59847 10.3988 2.60676Z" fill="#333333"/>
</svg>
