<svg width="64" height="41" viewBox="0 0 64 41" fill="none" xmlns="http://www.w3.org/2000/svg">
<path d="M0 40.9999H64V-0.000125885H0V40.9999Z" fill="#BFDF14"/>
<path d="M11.1057 29.7939C10.9962 29.4353 10.779 28.7405 9.63716 28.7405C8.97351 28.7405 7.97043 29.1662 7.97043 30.8417C7.97043 31.9057 8.47179 32.8916 9.63716 32.8916C10.4041 32.8916 10.942 32.4764 11.1057 31.7487H12.4841C12.211 33.0415 11.2711 33.9401 9.61195 33.9401C7.85303 33.9401 6.59375 32.8674 6.59375 30.8247C6.59375 28.7476 7.92588 27.6942 9.62921 27.6942C11.6095 27.6942 12.4088 28.9198 12.4841 29.7939H11.1057Z" fill="#5D6163"/>
<path d="M14.1715 31.0547L15.7919 29.386H17.3703L15.6476 31.0856L17.4165 33.7852H15.8744L14.7056 31.8957L14.1715 32.3958V33.7852H12.8853V29.386H14.1715V31.0547Z" fill="#5D6163"/>
<path d="M22.1218 31.5769C22.1218 33.1626 20.9357 33.9005 19.6225 33.9005C18.3115 33.9005 17.1157 33.1735 17.1157 31.5871C17.1157 29.9996 18.3115 29.2716 19.6225 29.2716C20.9357 29.2716 22.1218 29.9909 22.1218 31.5769ZM18.4382 31.5769C18.4382 32.1405 18.6288 32.9248 19.6225 32.9248C20.6166 32.9248 20.799 32.1492 20.799 31.5871C20.799 31.0217 20.6166 30.2458 19.6225 30.2458C18.6288 30.2458 18.4382 31.0131 18.4382 31.5769Z" fill="#5D6163"/>
<path d="M26.955 29.3856V33.785H25.6688V30.3114H24.2925V31.668C24.2925 33.3506 23.7276 33.8813 22.8239 33.8813C22.5991 33.8813 22.2318 33.8488 22.0415 33.785V32.9249C22.0681 32.9419 22.2318 32.9577 22.422 32.9577C22.8084 32.9577 23.0083 32.7868 23.0083 31.4472V29.3856H26.955Z" fill="#5D6163"/>
<path d="M28.898 31.0547L30.5185 29.386H32.0968L30.3724 31.0856L32.1431 33.7852H30.601L29.4343 31.8957L28.898 32.3958V33.7852H27.6118V29.386H28.898V31.0547Z" fill="#5D6163"/>
<path d="M36.8482 31.5769C36.8482 33.1626 35.6642 33.9005 34.3511 33.9005C33.0379 33.9005 31.8442 33.1735 31.8442 31.5871C31.8442 29.9996 33.0379 29.2716 34.3511 29.2716C35.6642 29.2716 36.8482 29.9909 36.8482 31.5769ZM33.1671 31.5769C33.1671 32.1405 33.3573 32.9248 34.3511 32.9248C35.3407 32.9248 35.5296 32.1492 35.5296 31.5871C35.5296 31.0217 35.3407 30.2458 34.3511 30.2458C33.3573 30.2458 33.1671 31.0131 33.1671 31.5769Z" fill="#5D6163"/>
<path d="M37.2651 29.386H39.4798C40.5755 29.386 41.3769 29.7879 41.3769 30.5224C41.3769 31.029 40.9753 31.3547 40.4636 31.4702C40.9653 31.5777 41.5226 31.865 41.5226 32.5843C41.5226 33.3993 40.8348 33.7858 39.7236 33.7858H37.2651V29.386ZM38.5489 31.1671H39.3873C39.8141 31.1671 40.1162 31.0138 40.1162 30.6689C40.1162 30.31 39.8255 30.1793 39.397 30.1793H38.5489V31.1671ZM38.5489 32.9928H39.4947C39.9698 32.9928 40.264 32.8618 40.264 32.427C40.264 32.0428 39.9543 31.865 39.4798 31.865H38.5489V32.9928Z" fill="#5D6163"/>
<path d="M46.6706 31.5769C46.6706 33.1626 45.4883 33.9005 44.1734 33.9005C42.862 33.9005 41.6646 33.1735 41.6646 31.5871C41.6646 29.9996 42.862 29.2716 44.1734 29.2716C45.4883 29.2716 46.6706 29.9909 46.6706 31.5769ZM42.9874 31.5769C42.9874 32.1405 43.1811 32.9248 44.1734 32.9248C45.1672 32.9248 45.3481 32.1492 45.3481 31.5871C45.3481 31.0217 45.1672 30.2458 44.1734 30.2458C43.1811 30.2458 42.9874 31.0131 42.9874 31.5769Z" fill="#5D6163"/>
<path d="M15.9431 26.6997C17.0391 26.6997 19.7379 26.5275 21.7548 25.2069V26.2086H25.824L25.8282 21.8039L27.5273 20.2265L31.2261 26.2086H36.1086L30.5052 17.6611L35.9628 12.2739H30.9647L25.8282 17.5596V7.40563H21.7548V9.01207C20.5145 7.81777 18.5038 6.91453 15.3686 6.91453C8.58218 6.91453 7.30805 10.617 7.30805 12.6894C7.30805 15.5373 9.01517 17.1199 11.9888 17.7664L16.2049 18.6972C18.4285 19.1902 20.0186 19.5521 20.0186 21.0282C20.0186 22.997 17.7062 23.4623 15.6262 23.4623C11.8138 23.4623 11.1795 21.4692 11.1795 20.4077H6.99072C6.99072 22.7381 8.31907 26.6997 15.9431 26.6997ZM18.7172 15.4874L13.6076 14.3717C12.7388 14.1909 11.3811 13.8788 11.3811 12.4049C11.3811 10.7207 13.3748 10.1503 15.0495 10.1503C18.8615 10.1503 19.2096 12.1463 19.3229 12.9997H21.7548V16.5046C20.8625 16.0373 19.8094 15.7339 18.7172 15.4874Z" fill="#5D6163"/>
</svg>
