<svg width="50" height="49" viewBox="0 0 50 49" fill="none" xmlns="http://www.w3.org/2000/svg">
<path d="M21.2546 2.98881C22.5523 -0.472053 27.4477 -0.472054 28.7454 2.98881L29.269 4.38519C30.1311 6.68453 32.8423 7.67132 34.9807 6.46411L36.2794 5.73097C39.4981 3.91393 43.2482 7.06062 42.0176 10.5459L41.5212 11.9522C40.7036 14.2677 42.1462 16.7664 44.5603 17.2162L46.0264 17.4893C49.66 18.1663 50.5101 22.9873 47.3272 24.8663L46.0429 25.6244C43.9282 26.8727 43.4272 29.7141 44.9874 31.6104L45.9349 32.762C48.2833 35.6163 45.8356 39.8558 42.1896 39.2492L40.7185 39.0044C38.2961 38.6014 36.0859 40.456 36.0622 42.9115L36.0478 44.4028C36.012 48.0987 31.4119 49.7731 29.0088 46.9647L28.0392 45.8317C26.4426 43.9659 23.5574 43.9659 21.9608 45.8317L20.9912 46.9647C18.5881 49.7731 13.988 48.0987 13.9522 44.4028L13.9378 42.9115C13.9141 40.456 11.7039 38.6014 9.28152 39.0044L7.81043 39.2492C4.1644 39.8558 1.7167 35.6163 4.06506 32.762L5.01257 31.6104C6.57278 29.7141 6.07177 26.8727 3.95708 25.6244L2.67283 24.8663C-0.510117 22.9873 0.339959 18.1663 3.97358 17.4893L5.43967 17.2162C7.85379 16.7664 9.29639 14.2677 8.47885 11.9522L7.98236 10.5459C6.75183 7.06062 10.5019 3.91393 13.7206 5.73097L15.0193 6.46411C17.1577 7.67132 19.8689 6.68453 20.7311 4.38519L21.2546 2.98881Z" fill="#C4C4C4"/>
</svg>
