<svg width="32" height="32" viewBox="0 0 32 32" fill="none" xmlns="http://www.w3.org/2000/svg">
<path d="M16 32C24.8366 32 32 24.8366 32 16C32 7.16344 24.8366 0 16 0C7.16344 0 0 7.16344 0 16C0 24.8366 7.16344 32 16 32Z" fill="#2DAAE1"/>
<path d="M26.0923 9.85726C25.3499 10.1934 24.5525 10.4207 23.7141 10.5228C24.5697 9.99998 25.2253 9.17145 25.5348 8.18536C24.7219 8.67798 23.8324 9.02479 22.9047 9.21072C22.1498 8.3896 21.0732 7.87695 19.8822 7.87695C17.5962 7.87695 15.7421 9.76803 15.7421 12.1021C15.7421 12.4328 15.7786 12.7555 15.8488 13.0652C12.4074 12.8888 9.35642 11.2067 7.31422 8.65073C6.95762 9.27496 6.75351 10.0007 6.75351 10.7751C6.75351 12.2408 7.48461 13.534 8.5955 14.2915C7.93787 14.2707 7.29467 14.0896 6.71968 13.7633V13.8167C6.71968 15.864 8.14676 17.5711 10.0411 17.9594C9.69314 18.0567 9.32794 18.1075 8.95012 18.1075C8.68299 18.1075 8.42383 18.0817 8.17065 18.0331C8.69758 19.7112 10.2268 20.9326 12.0382 20.9671C10.6211 22.1007 8.83542 22.7764 6.896 22.7764C6.56196 22.7764 6.23182 22.7561 5.90771 22.7162C7.74046 23.9154 9.91655 24.6154 12.255 24.6154C19.871 24.6154 24.0362 18.1772 24.0362 12.5939C24.0362 12.4106 24.0322 12.2286 24.0236 12.0474C24.8351 11.4484 25.5356 10.7068 26.0923 9.85726Z" fill="white"/>
</svg>
