<svg width="32" height="32" viewBox="0 0 32 32" fill="none" xmlns="http://www.w3.org/2000/svg">
<path d="M11.1 0H20.9167C29.8833 0 32 2.13333 32 11.1V20.9167C32 29.8833 29.8667 32 20.9 32H11.0833C2.11667 32 0 29.8667 0 20.9V11.0833C0 2.13333 2.13333 0 11.1 0Z" fill="#5181B8"/>
<path fill-rule="evenodd" clip-rule="evenodd" d="M26.1807 10.8145C26.3307 10.301 26.1807 9.94165 25.4805 9.94165H23.1464C22.5463 9.94165 22.2795 10.2668 22.1295 10.6262C22.1295 10.6262 20.9458 13.604 19.2619 15.5208C18.7118 16.0856 18.4783 16.2567 18.1783 16.2567C18.0282 16.2567 17.8115 16.0856 17.8115 15.5721V10.8145C17.8115 10.1984 17.6448 9.94165 17.1446 9.94165H13.4768C13.11 9.94165 12.8766 10.2326 12.8766 10.4893C12.8766 11.0712 13.7102 11.2081 13.8103 12.8168V16.3423C13.8103 17.1124 13.6769 17.2493 13.3768 17.2493C12.5932 17.2493 10.6593 14.2715 9.52561 10.8487C9.29221 10.2155 9.07548 9.94165 8.47529 9.94165H6.14125C5.47438 9.94165 5.341 10.2668 5.341 10.6262C5.341 11.2594 6.12458 14.4084 9.02546 18.5671C10.9594 21.408 13.6769 22.9482 16.1443 22.9482C17.6281 22.9482 17.8115 22.606 17.8115 22.0241V19.8677C17.8115 19.1832 17.9448 19.0463 18.4283 19.0463C18.7784 19.0463 19.3619 19.2174 20.7457 20.5865C22.3295 22.2123 22.5963 22.9482 23.4799 22.9482H25.8139C26.4808 22.9482 26.8142 22.606 26.6142 21.9385C26.3974 21.2711 25.6472 20.2956 24.6469 19.1318C24.0967 18.4644 23.2798 17.7627 23.0464 17.4033C22.6963 16.9413 22.7963 16.7359 23.0464 16.3423C23.0464 16.3252 25.8973 12.2178 26.1807 10.8145Z" fill="white"/>
</svg>
