<svg width="376" height="83" viewBox="0 0 376 83" fill="none" xmlns="http://www.w3.org/2000/svg">
<rect width="1439.73" height="81" transform="translate(-133 2)" fill="#5EB848"/>
<path d="M-85.6368 30.084H-86.6368V30.6805L-86.1119 30.9639L-85.6368 30.084ZM-85.6368 25.156L-85.1548 24.2798L-86.6368 23.4647V25.156H-85.6368ZM-80.7408 25.348L-81.3118 24.5271L-80.7408 25.348ZM-79.3008 23.492L-78.4149 23.956L-78.1666 23.4819L-78.4233 23.0123L-79.3008 23.492ZM-87.7168 8.1V7.1H-89.4033L-88.5942 8.57975L-87.7168 8.1ZM-81.3488 8.1L-80.4555 7.65044L-80.7325 7.1H-81.3488V8.1ZM-76.4528 17.828L-77.346 18.2776L-76.3929 20.1714L-75.5377 18.2313L-76.4528 17.828ZM-72.1648 8.1V7.1H-72.8168L-73.0798 7.69665L-72.1648 8.1ZM-66.0528 8.1L-65.148 8.52588L-64.4768 7.1H-66.0528V8.1ZM-74.2768 25.572L-75.1816 25.1461L-75.1845 25.1524L-74.2768 25.572ZM-78.1488 30.052L-78.5758 29.1477L-78.5775 29.1486L-78.1488 30.052ZM-81.6368 29.948C-83.1221 29.948 -84.2802 29.6801 -85.1616 29.2041L-86.1119 30.9639C-84.86 31.6399 -83.3515 31.948 -81.6368 31.948V29.948ZM-84.6368 30.084V25.156H-86.6368V30.084H-84.6368ZM-86.1187 26.0322C-85.0982 26.5935 -83.9469 26.86 -82.6928 26.86V24.86C-83.6573 24.86 -84.4686 24.6572 -85.1548 24.2798L-86.1187 26.0322ZM-82.6928 26.86C-81.7491 26.86 -80.8782 26.6618 -80.1697 26.1689L-81.3118 24.5271C-81.5846 24.7169 -82.0151 24.86 -82.6928 24.86V26.86ZM-80.1697 26.1689C-79.4852 25.6927 -78.9137 24.9083 -78.4149 23.956L-80.1866 23.028C-80.6264 23.8677 -81.015 24.3206 -81.3118 24.5271L-80.1697 26.1689ZM-78.4233 23.0123L-86.8393 7.62025L-88.5942 8.57975L-80.1782 23.9717L-78.4233 23.0123ZM-87.7168 9.1H-81.3488V7.1H-87.7168V9.1ZM-82.242 8.54956L-77.346 18.2776L-75.5595 17.3784L-80.4555 7.65044L-82.242 8.54956ZM-75.5377 18.2313L-71.2497 8.50334L-73.0798 7.69665L-77.3678 17.4247L-75.5377 18.2313ZM-72.1648 9.1H-66.0528V7.1H-72.1648V9.1ZM-66.9575 7.67412L-75.1815 25.1461L-73.372 25.9979L-65.148 8.52588L-66.9575 7.67412ZM-75.1845 25.1524C-76.176 27.2974 -77.3315 28.5602 -78.5758 29.1478L-77.7217 30.9562C-75.894 30.0932 -74.4682 28.3693 -73.369 25.9916L-75.1845 25.1524ZM-78.5775 29.1486C-79.7415 29.701 -80.7565 29.948 -81.6368 29.948V31.948C-80.3836 31.948 -79.0733 31.5977 -77.72 30.9554L-78.5775 29.1486ZM-63.508 28.74H-64.508V29.2679L-64.0721 29.5657L-63.508 28.74ZM-63.508 23.236L-62.8999 22.4421L-64.508 21.2104V23.236H-63.508ZM-59.956 25.06L-60.2678 26.0102L-60.259 26.0131L-60.2501 26.0158L-59.956 25.06ZM-52.532 25.028L-52.0483 25.9032L-52.0396 25.8984L-52.031 25.8934L-52.532 25.028ZM-58.164 21.092H-59.164V22.092H-58.164V21.092ZM-58.164 16.516V15.516H-59.164V16.516H-58.164ZM-52.692 13.316L-53.1642 14.1975L-53.1579 14.2009L-53.1514 14.2042L-52.692 13.316ZM-62.708 14.628H-63.708V16.28L-62.2443 15.514L-62.708 14.628ZM-62.708 9.668L-63.1885 8.79098L-63.708 9.0756V9.668H-62.708ZM-48.468 9.54L-49.0812 10.3299L-49.0747 10.3349L-48.468 9.54ZM-48.756 18.596L-49.2128 17.7064L-51.0019 18.6252L-49.1896 19.4971L-48.756 18.596ZM-48.02 28.9L-47.4047 29.6883L-47.4034 29.6873L-48.02 28.9ZM-55.124 29.948C-58.4202 29.948 -61.0007 29.2418 -62.9439 27.9143L-64.0721 29.5657C-61.706 31.1822 -58.6971 31.948 -55.124 31.948V29.948ZM-62.508 28.74V23.236H-64.508V28.74H-62.508ZM-64.1161 24.0299C-63.0128 24.875 -61.7254 25.5319 -60.2678 26.0102L-59.6442 24.1098C-60.9172 23.6921 -61.9979 23.133 -62.8999 22.4421L-64.1161 24.0299ZM-60.2501 26.0158C-58.779 26.4684 -57.3357 26.7 -55.924 26.7V24.7C-57.1149 24.7 -58.3597 24.5049 -59.6619 24.1042L-60.2501 26.0158ZM-55.924 26.7C-54.391 26.7 -53.068 26.4667 -52.0483 25.9032L-53.0157 24.1528C-53.6173 24.4853 -54.5557 24.7 -55.924 24.7V26.7ZM-52.031 25.8934C-50.9688 25.2785 -50.316 24.3372 -50.316 23.108H-52.316C-52.316 23.5002 -52.4738 23.8388 -53.033 24.1626L-52.031 25.8934ZM-50.316 23.108C-50.316 22.5986 -50.4451 22.108 -50.7319 21.6744C-51.0149 21.2466 -51.4134 20.9311 -51.8659 20.703C-52.7426 20.2612 -53.931 20.092 -55.316 20.092V22.092C-54.0344 22.092 -53.2228 22.2588 -52.7661 22.489C-52.552 22.5969 -52.4505 22.7014 -52.4001 22.7776C-52.3536 22.848 -52.316 22.9454 -52.316 23.108H-50.316ZM-55.316 20.092H-58.164V22.092H-55.316V20.092ZM-57.164 21.092V16.516H-59.164V21.092H-57.164ZM-58.164 17.516H-54.644V15.516H-58.164V17.516ZM-54.644 17.516C-53.6087 17.516 -52.6599 17.355 -51.9423 16.8926C-51.1493 16.3815 -50.764 15.5847 -50.764 14.66H-52.764C-52.764 14.9726 -52.8587 15.1038 -53.0257 15.2114C-53.2681 15.3677 -53.7594 15.516 -54.644 15.516V17.516ZM-50.764 14.66C-50.764 13.6246 -51.3654 12.8763 -52.2326 12.4278L-53.1514 14.2042C-52.7813 14.3957 -52.764 14.5434 -52.764 14.66H-50.764ZM-52.2198 12.4345C-53.0289 12.0011 -54.0856 11.836 -55.284 11.836V13.836C-54.221 13.836 -53.5498 13.9909 -53.1642 14.1975L-52.2198 12.4345ZM-55.284 11.836C-58.1063 11.836 -60.7408 12.4698 -63.1717 13.742L-62.2443 15.514C-60.1098 14.3969 -57.795 13.836 -55.284 13.836V11.836ZM-61.708 14.628V9.668H-63.708V14.628H-61.708ZM-62.2276 10.545C-59.9153 9.2783 -57.5091 8.652 -54.996 8.652V6.652C-57.8589 6.652 -60.5941 7.3697 -63.1885 8.79098L-62.2276 10.545ZM-54.996 8.652C-52.4142 8.652 -50.477 9.24638 -49.0812 10.3299L-47.8548 8.75009C-49.7017 7.31629 -52.1165 6.652 -54.996 6.652V8.652ZM-49.0747 10.3349C-47.6866 11.3943 -47.036 12.6964 -47.036 14.308H-45.036C-45.036 12.0369 -46.0067 10.1604 -47.8613 8.74505L-49.0747 10.3349ZM-47.036 14.308C-47.036 15.079 -47.238 15.7326 -47.6287 16.3025L-45.9793 17.4335C-45.346 16.5101 -45.036 15.457 -45.036 14.308H-47.036ZM-47.6287 16.3025C-48.0489 16.9152 -48.5742 17.3785 -49.2128 17.7064L-48.2992 19.4856C-47.3591 19.0028 -46.5831 18.3142 -45.9793 17.4335L-47.6287 16.3025ZM-49.1896 19.4971C-48.1876 19.9792 -47.4949 20.5737 -47.0488 21.2555C-46.6049 21.9339 -46.364 22.7612 -46.364 23.78H-44.364C-44.364 22.4308 -44.6884 21.2101 -45.3752 20.1605C-46.0597 19.1143 -47.063 18.3008 -48.3224 17.6949L-49.1896 19.4971ZM-46.364 23.78C-46.364 25.4627 -47.0776 26.8918 -48.6366 28.1127L-47.4034 29.6873C-45.4211 28.1348 -44.364 26.1507 -44.364 23.78H-46.364ZM-48.6353 28.1117C-50.1567 29.2991 -52.2836 29.948 -55.124 29.948V31.948C-51.9911 31.948 -49.382 31.2315 -47.4047 29.6883L-48.6353 28.1117ZM-34.746 30.5V31.5H-33.746V30.5H-34.746ZM-40.506 30.5H-41.506V31.5H-40.506V30.5ZM-40.506 8.1V7.1H-41.506V8.1H-40.506ZM-34.746 8.1H-33.746V7.1H-34.746V8.1ZM-34.746 16.068H-35.746V17.068H-34.746V16.068ZM-26.298 16.068V17.068H-25.298V16.068H-26.298ZM-26.298 8.1V7.1H-27.298V8.1H-26.298ZM-20.538 8.1H-19.538V7.1H-20.538V8.1ZM-20.538 30.5V31.5H-19.538V30.5H-20.538ZM-26.298 30.5H-27.298V31.5H-26.298V30.5ZM-26.298 21.188H-25.298V20.188H-26.298V21.188ZM-34.746 21.188V20.188H-35.746V21.188H-34.746ZM-34.746 29.5H-40.506V31.5H-34.746V29.5ZM-39.506 30.5V8.1H-41.506V30.5H-39.506ZM-40.506 9.1H-34.746V7.1H-40.506V9.1ZM-35.746 8.1V16.068H-33.746V8.1H-35.746ZM-34.746 17.068H-26.298V15.068H-34.746V17.068ZM-25.298 16.068V8.1H-27.298V16.068H-25.298ZM-26.298 9.1H-20.538V7.1H-26.298V9.1ZM-21.538 8.1V30.5H-19.538V8.1H-21.538ZM-20.538 29.5H-26.298V31.5H-20.538V29.5ZM-25.298 30.5V21.188H-27.298V30.5H-25.298ZM-26.298 20.188H-34.746V22.188H-26.298V20.188ZM-35.746 21.188V30.5H-33.746V21.188H-35.746ZM-10.4 30.5V31.5H-9.72212L-9.47109 30.8703L-10.4 30.5ZM-16.48 30.5L-17.4028 30.1146L-17.9813 31.5H-16.48V30.5ZM-7.07201 7.972V6.972H-7.73808L-7.99477 7.58664L-7.07201 7.972ZM-1.536 7.972L-0.613235 7.58664L-0.869919 6.972H-1.536V7.972ZM7.87199 30.5V31.5H9.37331L8.79477 30.1146L7.87199 30.5ZM1.696 30.5L0.76709 30.8703L1.01811 31.5H1.696V30.5ZM-0.192001 25.764L0.736908 25.3937L0.485886 24.764H-0.192001V25.764ZM-8.512 25.764V24.764H-9.18989L-9.44091 25.3937L-8.512 25.764ZM-4.35201 15.172L-3.42047 14.8084L-4.35201 12.4221L-5.28354 14.8084L-4.35201 15.172ZM-6.688 21.156L-7.61954 20.7924L-8.15187 22.156H-6.688V21.156ZM-2.01601 21.156V22.156H-0.552139L-1.08447 20.7924L-2.01601 21.156ZM-10.4 29.5H-16.48V31.5H-10.4V29.5ZM-15.5572 30.8854L-6.14924 8.35736L-7.99477 7.58664L-17.4028 30.1146L-15.5572 30.8854ZM-7.07201 8.972H-1.536V6.972H-7.07201V8.972ZM-2.45877 8.35736L6.94923 30.8854L8.79477 30.1146L-0.613235 7.58664L-2.45877 8.35736ZM7.87199 29.5H1.696V31.5H7.87199V29.5ZM2.62491 30.1297L0.736908 25.3937L-1.12091 26.1343L0.76709 30.8703L2.62491 30.1297ZM-0.192001 24.764H-8.512V26.764H-0.192001V24.764ZM-9.44091 25.3937L-11.3289 30.1297L-9.47109 30.8703L-7.58309 26.1343L-9.44091 25.3937ZM-5.28354 14.8084L-7.61954 20.7924L-5.75647 21.5196L-3.42047 15.5356L-5.28354 14.8084ZM-6.688 22.156H-2.01601V20.156H-6.688V22.156ZM-1.08447 20.7924L-3.42047 14.8084L-5.28354 15.5356L-2.94754 21.5196L-1.08447 20.7924ZM11.944 30.5H10.944V31.5H11.944V30.5ZM11.944 8.1V7.1H10.944V8.1H11.944ZM27.912 9.604L27.2889 10.3862L27.2962 10.3919L27.3036 10.3976L27.912 9.604ZM29.064 16.452L28.2319 15.8973L28.2265 15.9054L28.2213 15.9136L29.064 16.452ZM27.208 18.116L26.7922 17.2065L24.1177 18.4291L26.9831 19.0904L27.208 18.116ZM30.152 20.068L29.3773 20.7004L29.3787 20.7021L30.152 20.068ZM29.256 28.74L28.6258 27.9635L28.6215 27.9671L29.256 28.74ZM17.704 20.932V19.932H16.704V20.932H17.704ZM17.704 25.7H16.704V26.7H17.704V25.7ZM24.392 25.092L25.0289 25.863L25.0322 25.8602L24.392 25.092ZM24.392 21.572L25.0322 20.8038H25.0322L24.392 21.572ZM17.704 12.772V11.772H16.704V12.772H17.704ZM17.704 16.676H16.704V17.676H17.704V16.676ZM23.656 16.164L23.0313 15.3831L23.0215 15.391L23.0119 15.3991L23.656 16.164ZM23.656 13.316L22.9892 14.0612L23.0098 14.0796L23.0313 14.0969L23.656 13.316ZM23.464 29.5H11.944V31.5H23.464V29.5ZM12.944 30.5V8.1H10.944V30.5H12.944ZM11.944 9.1H22.856V7.1H11.944V9.1ZM22.856 9.1C24.8128 9.1 26.2559 9.56326 27.2889 10.3862L28.5351 8.82184C27.0507 7.63941 25.1232 7.1 22.856 7.1V9.1ZM27.3036 10.3976C28.3069 11.1668 28.832 12.2434 28.832 13.764H30.832C30.832 11.7006 30.0771 10.0038 28.5204 8.81039L27.3036 10.3976ZM28.832 13.764C28.832 14.613 28.6226 15.3113 28.2319 15.8973L29.896 17.0067C30.5294 16.0567 30.832 14.963 30.832 13.764H28.832ZM28.2213 15.9136C27.8224 16.5379 27.3449 16.9539 26.7922 17.2065L27.6237 19.0255C28.5644 18.5955 29.3242 17.9021 29.9067 16.9904L28.2213 15.9136ZM26.9831 19.0904C27.8382 19.2877 28.6373 19.7939 29.3773 20.7004L30.9267 19.4356C29.96 18.2515 28.7964 17.4563 27.4328 17.1416L26.9831 19.0904ZM29.3787 20.7021C30.0839 21.5621 30.464 22.6604 30.464 24.068H32.464C32.464 22.2756 31.9694 20.7073 30.9253 19.4339L29.3787 20.7021ZM30.464 24.068C30.464 25.6912 29.8604 26.9616 28.6258 27.9635L29.8862 29.5165C31.5956 28.1291 32.464 26.2848 32.464 24.068H30.464ZM28.6215 27.9671C27.4207 28.9528 25.7382 29.5 23.464 29.5V31.5C26.0538 31.5 28.2327 30.8738 29.8905 29.5129L28.6215 27.9671ZM16.704 20.932V25.7H18.704V20.932H16.704ZM17.704 26.7H22.344V24.7H17.704V26.7ZM22.344 26.7C23.3646 26.7 24.302 26.4634 25.0289 25.863L23.7551 24.321C23.5006 24.5313 23.0727 24.7 22.344 24.7V26.7ZM25.0322 25.8602C25.8014 25.2192 26.16 24.3352 26.16 23.332H24.16C24.16 23.8221 24.0066 24.1114 23.7518 24.3238L25.0322 25.8602ZM26.16 23.332C26.16 22.3288 25.8014 21.4448 25.0322 20.8038L23.7518 22.3402C24.0066 22.5526 24.16 22.8419 24.16 23.332H26.16ZM25.0322 20.8038C24.295 20.1895 23.3643 19.932 22.344 19.932V21.932C23.0303 21.932 23.465 22.1012 23.7518 22.3402L25.0322 20.8038ZM22.344 19.932H17.704V21.932H22.344V19.932ZM16.704 12.772V16.676H18.704V12.772H16.704ZM17.704 17.676H21.992V15.676H17.704V17.676ZM21.992 17.676C22.8536 17.676 23.6626 17.4658 24.3001 16.9289L23.0119 15.3991C22.8387 15.5449 22.5384 15.676 21.992 15.676V17.676ZM24.2807 16.9449C24.9687 16.3944 25.296 15.6248 25.296 14.756H23.296C23.296 15.0819 23.1966 15.2509 23.0313 15.3831L24.2807 16.9449ZM25.296 14.756C25.296 13.879 24.9779 13.0929 24.2807 12.5351L23.0313 14.0969C23.1874 14.2217 23.296 14.3957 23.296 14.756H25.296ZM24.3228 12.5708C23.6853 12.0004 22.8677 11.772 21.992 11.772V13.772C22.5243 13.772 22.816 13.9062 22.9892 14.0612L24.3228 12.5708ZM21.992 11.772H17.704V13.772H21.992V11.772ZM40.5812 30.5V31.5H41.2591L41.5101 30.8703L40.5812 30.5ZM34.5013 30.5L33.5785 30.1146L32.9999 31.5H34.5013V30.5ZM43.9092 7.972V6.972H43.2432L42.9865 7.58664L43.9092 7.972ZM49.4453 7.972L50.368 7.58664L50.1113 6.972H49.4453V7.972ZM58.8532 30.5V31.5H60.3546L59.776 30.1146L58.8532 30.5ZM52.6772 30.5L51.7483 30.8703L51.9994 31.5H52.6772V30.5ZM50.7892 25.764L51.7182 25.3937L51.4671 24.764H50.7892V25.764ZM42.4692 25.764V24.764H41.7914L41.5403 25.3937L42.4692 25.764ZM46.6292 15.172L47.5608 14.8084L46.6292 12.4221L45.6977 14.8084L46.6292 15.172ZM44.2932 21.156L43.3617 20.7924L42.8294 22.156H44.2932V21.156ZM48.9652 21.156V22.156H50.4291L49.8968 20.7924L48.9652 21.156ZM40.5812 29.5H34.5013V31.5H40.5812V29.5ZM35.424 30.8854L44.832 8.35736L42.9865 7.58664L33.5785 30.1146L35.424 30.8854ZM43.9092 8.972H49.4453V6.972H43.9092V8.972ZM48.5225 8.35736L57.9305 30.8854L59.776 30.1146L50.368 7.58664L48.5225 8.35736ZM58.8532 29.5H52.6772V31.5H58.8532V29.5ZM53.6062 30.1297L51.7182 25.3937L49.8603 26.1343L51.7483 30.8703L53.6062 30.1297ZM50.7892 24.764H42.4692V26.764H50.7892V24.764ZM41.5403 25.3937L39.6523 30.1297L41.5101 30.8703L43.3981 26.1343L41.5403 25.3937ZM45.6977 14.8084L43.3617 20.7924L45.2248 21.5196L47.5608 15.5356L45.6977 14.8084ZM44.2932 22.156H48.9652V20.156H44.2932V22.156ZM49.8968 20.7924L47.5608 14.8084L45.6977 15.5356L48.0337 21.5196L49.8968 20.7924ZM80.2052 30.5V31.5H81.2052V30.5H80.2052ZM62.9252 30.5H61.9252V31.5H62.9252V30.5ZM62.9252 8.1V7.1H61.9252V8.1H62.9252ZM79.9492 8.1H80.9492V7.1H79.9492V8.1ZM79.9492 13.156V14.156H80.9492V13.156H79.9492ZM68.6853 13.156V12.156H67.6853V13.156H68.6853ZM68.6853 16.196H67.6853V17.196H68.6853V16.196ZM77.6452 16.196H78.6452V15.196H77.6452V16.196ZM77.6452 21.06V22.06H78.6452V21.06H77.6452ZM68.6853 21.06V20.06H67.6853V21.06H68.6853ZM68.6853 25.444H67.6853V26.444H68.6853V25.444ZM80.2052 25.444H81.2052V24.444H80.2052V25.444ZM80.2052 29.5H62.9252V31.5H80.2052V29.5ZM63.9252 30.5V8.1H61.9252V30.5H63.9252ZM62.9252 9.1H79.9492V7.1H62.9252V9.1ZM78.9492 8.1V13.156H80.9492V8.1H78.9492ZM79.9492 12.156H68.6853V14.156H79.9492V12.156ZM67.6853 13.156V16.196H69.6853V13.156H67.6853ZM68.6853 17.196H77.6452V15.196H68.6853V17.196ZM76.6452 16.196V21.06H78.6452V16.196H76.6452ZM77.6452 20.06H68.6853V22.06H77.6452V20.06ZM67.6853 21.06V25.444H69.6853V21.06H67.6853ZM68.6853 26.444H80.2052V24.444H68.6853V26.444ZM79.2052 25.444V30.5H81.2052V25.444H79.2052ZM90.8165 30.5V31.5H91.8165V30.5H90.8165ZM85.0565 30.5H84.0565V31.5H85.0565V30.5ZM85.0565 8.1V7.1H84.0565V8.1H85.0565ZM90.7845 8.1L91.6199 7.55032L91.3236 7.1H90.7845V8.1ZM96.4485 16.708L95.6131 17.2577L96.4461 18.5237L97.2824 17.2598L96.4485 16.708ZM102.144 8.1V7.1H101.607L101.311 7.54816L102.144 8.1ZM107.84 8.1H108.84V7.1H107.84V8.1ZM107.84 30.5V31.5H108.84V30.5H107.84ZM102.112 30.5H101.112V31.5H102.112V30.5ZM102.112 16.836H103.112V13.5259L101.28 16.2823L102.112 16.836ZM98.1125 22.852V23.852H98.6485L98.9452 23.4057L98.1125 22.852ZM94.9445 22.852L94.1199 23.4178L94.4179 23.852H94.9445V22.852ZM90.8165 16.836L91.641 16.2702L89.8165 13.6112V16.836H90.8165ZM90.8165 29.5H85.0565V31.5H90.8165V29.5ZM86.0565 30.5V8.1H84.0565V30.5H86.0565ZM85.0565 9.1H90.7845V7.1H85.0565V9.1ZM89.9491 8.64967L95.6131 17.2577L97.2839 16.1583L91.6199 7.55032L89.9491 8.64967ZM97.2824 17.2598L102.978 8.65183L101.311 7.54816L95.6145 16.1562L97.2824 17.2598ZM102.144 9.1H107.84V7.1H102.144V9.1ZM106.84 8.1V30.5H108.84V8.1H106.84ZM107.84 29.5H102.112V31.5H107.84V29.5ZM103.112 30.5V16.836H101.112V30.5H103.112ZM101.28 16.2823L97.2798 22.2983L98.9452 23.4057L102.945 17.3897L101.28 16.2823ZM98.1125 21.852H94.9445V23.852H98.1125V21.852ZM95.769 22.2862L91.641 16.2702L89.9919 17.4018L94.1199 23.4178L95.769 22.2862ZM89.8165 16.836V30.5H91.8165V16.836H89.8165ZM113.719 30.5H112.719V31.5H113.719V30.5ZM113.719 8.1V7.1H112.719V8.1H113.719ZM119.479 8.1H120.479V7.1H119.479V8.1ZM119.479 15.012H118.479V16.012H119.479V15.012ZM129.303 17.188L128.641 17.9376L129.303 17.188ZM129.335 28.356L128.674 27.6059V27.6059L129.335 28.356ZM119.479 19.684V18.684H118.479V19.684H119.479ZM119.479 25.572H118.479V26.572H119.479V25.572ZM124.983 24.804L125.621 25.5744L125.623 25.5722L124.983 24.804ZM124.983 20.484L124.33 21.2414L124.336 21.2469L124.343 21.2522L124.983 20.484ZM139.831 30.5V31.5H140.831V30.5H139.831ZM134.071 30.5H133.071V31.5H134.071V30.5ZM134.071 8.1V7.1H133.071V8.1H134.071ZM139.831 8.1H140.831V7.1H139.831V8.1ZM122.775 29.5H113.719V31.5H122.775V29.5ZM114.719 30.5V8.1H112.719V30.5H114.719ZM113.719 9.1H119.479V7.1H113.719V9.1ZM118.479 8.1V15.012H120.479V8.1H118.479ZM119.479 16.012H122.775V14.012H119.479V16.012ZM122.775 16.012C125.3 16.012 127.222 16.684 128.641 17.9376L129.965 16.4384C128.099 14.7907 125.668 14.012 122.775 14.012V16.012ZM128.641 17.9376C130.059 19.1896 130.767 20.7785 130.767 22.788H132.767C132.767 20.2321 131.833 18.0877 129.965 16.4384L128.641 17.9376ZM130.767 22.788C130.767 24.8019 130.066 26.3781 128.674 27.6059L129.996 29.1061C131.846 27.4752 132.767 25.3395 132.767 22.788H130.767ZM128.674 27.6059C127.281 28.834 125.352 29.5 122.775 29.5V31.5C125.702 31.5 128.147 30.7367 129.996 29.1061L128.674 27.6059ZM118.479 19.684V25.572H120.479V19.684H118.479ZM119.479 26.572H122.423V24.572H119.479V26.572ZM122.423 26.572C123.661 26.572 124.768 26.2801 125.621 25.5744L124.345 24.0336C123.961 24.3519 123.361 24.572 122.423 24.572V26.572ZM125.623 25.5722C126.51 24.8331 126.943 23.8272 126.943 22.66H124.943C124.943 23.2848 124.736 23.7082 124.343 24.0358L125.623 25.5722ZM126.943 22.66C126.943 21.4799 126.516 20.4598 125.623 19.7158L124.343 21.2522C124.73 21.5748 124.943 22.0055 124.943 22.66H126.943ZM125.636 19.7266C124.783 18.9912 123.67 18.684 122.423 18.684V20.684C123.352 20.684 123.946 20.9101 124.33 21.2414L125.636 19.7266ZM122.423 18.684H119.479V20.684H122.423V18.684ZM139.831 29.5H134.071V31.5H139.831V29.5ZM135.071 30.5V8.1H133.071V30.5H135.071ZM134.071 9.1H139.831V7.1H134.071V9.1ZM138.831 8.1V30.5H140.831V8.1H138.831ZM150.557 30.5V31.5H151.063L151.362 31.0932L150.557 30.5ZM145.725 30.5H144.725V31.5H145.725V30.5ZM145.725 8.1V7.1H144.725V8.1H145.725ZM151.485 8.1H152.485V7.1H151.485V8.1ZM151.485 20.74H150.485V23.8003L152.292 21.3305L151.485 20.74ZM160.733 8.1V7.1H160.226L159.926 7.50952L160.733 8.1ZM165.725 8.1H166.725V7.1H165.725V8.1ZM165.725 30.5V31.5H166.725V30.5H165.725ZM159.965 30.5H158.965V31.5H159.965V30.5ZM159.965 17.732H160.965V14.6891L159.16 17.1388L159.965 17.732ZM149.661 1.316V0.315998H148.637L148.662 1.34038L149.661 1.316ZM153.533 1.316L154.533 1.28154L154.499 0.315998H153.533V1.316ZM154.109 2.788L153.402 3.49511L153.412 3.5052L153.423 3.51501L154.109 2.788ZM157.213 2.788L156.527 2.06098L156.516 2.07079L156.506 2.08089L157.213 2.788ZM157.821 1.316V0.315998H156.855L156.822 1.28154L157.821 1.316ZM161.757 1.316L162.757 1.34009L162.782 0.315998H161.757V1.316ZM159.997 5.444L159.342 4.68874L159.334 4.69581L159.997 5.444ZM151.389 5.444L150.719 6.18587L150.729 6.1952L150.74 6.20423L151.389 5.444ZM150.557 29.5H145.725V31.5H150.557V29.5ZM146.725 30.5V8.1H144.725V30.5H146.725ZM145.725 9.1H151.485V7.1H145.725V9.1ZM150.485 8.1V20.74H152.485V8.1H150.485ZM152.292 21.3305L161.54 8.69048L159.926 7.50952L150.678 20.1495L152.292 21.3305ZM160.733 9.1H165.725V7.1H160.733V9.1ZM164.725 8.1V30.5H166.725V8.1H164.725ZM165.725 29.5H159.965V31.5H165.725V29.5ZM160.965 30.5V17.732H158.965V30.5H160.965ZM159.16 17.1388L149.752 29.9068L151.362 31.0932L160.77 18.3252L159.16 17.1388ZM149.661 2.316H153.533V0.315998H149.661V2.316ZM152.534 1.35046C152.562 2.16688 152.825 2.91766 153.402 3.49511L154.816 2.08089C154.668 1.93301 154.547 1.70245 154.533 1.28154L152.534 1.35046ZM153.423 3.51501C154.036 4.09435 154.828 4.332 155.677 4.332V2.332C155.204 2.332 154.95 2.20699 154.796 2.06099L153.423 3.51501ZM155.677 4.332C156.524 4.332 157.32 4.0953 157.92 3.49511L156.506 2.08089C156.381 2.20603 156.154 2.332 155.677 2.332V4.332ZM157.9 3.51501C158.508 2.94074 158.792 2.18345 158.821 1.35046L156.822 1.28154C156.808 1.68588 156.687 1.90992 156.527 2.06098L157.9 3.51501ZM157.821 2.316H161.757V0.315998H157.821V2.316ZM160.758 1.29191C160.72 2.83748 160.221 3.92576 159.342 4.68878L160.653 6.19922C162.035 4.99957 162.709 3.33585 162.757 1.34009L160.758 1.29191ZM159.334 4.69581C158.412 5.51302 157.23 5.948 155.709 5.948V7.948C157.644 7.948 159.321 7.38031 160.661 6.19219L159.334 4.69581ZM155.709 5.948C154.214 5.948 153.012 5.515 152.039 4.68377L150.74 6.20423C152.114 7.37833 153.791 7.948 155.709 7.948V5.948ZM152.06 4.70212C151.189 3.91485 150.698 2.81753 150.661 1.29162L148.662 1.34038C148.71 3.31313 149.371 4.96782 150.719 6.18587L152.06 4.70212ZM186.101 30.5V31.5H186.606L186.906 31.0932L186.101 30.5ZM181.269 30.5H180.269V31.5H181.269V30.5ZM181.269 8.1V7.1H180.269V8.1H181.269ZM187.029 8.1H188.029V7.1H187.029V8.1ZM187.029 20.74H186.029V23.8003L187.836 21.3305L187.029 20.74ZM196.277 8.1V7.1H195.77L195.47 7.50952L196.277 8.1ZM201.269 8.1H202.269V7.1H201.269V8.1ZM201.269 30.5V31.5H202.269V30.5H201.269ZM195.509 30.5H194.509V31.5H195.509V30.5ZM195.509 17.732H196.509V14.6891L194.704 17.1388L195.509 17.732ZM186.101 29.5H181.269V31.5H186.101V29.5ZM182.269 30.5V8.1H180.269V30.5H182.269ZM181.269 9.1H187.029V7.1H181.269V9.1ZM186.029 8.1V20.74H188.029V8.1H186.029ZM187.836 21.3305L197.084 8.69048L195.47 7.50952L186.222 20.1495L187.836 21.3305ZM196.277 9.1H201.269V7.1H196.277V9.1ZM200.269 8.1V30.5H202.269V8.1H200.269ZM201.269 29.5H195.509V31.5H201.269V29.5ZM196.509 30.5V17.732H194.509V30.5H196.509ZM194.704 17.1388L185.296 29.9068L186.906 31.0932L196.314 18.3252L194.704 17.1388ZM-124.752 72.5V73.5H-123.752V72.5H-124.752ZM-130.512 72.5H-131.512V73.5H-130.512V72.5ZM-130.512 50.1V49.1H-131.512V50.1H-130.512ZM-111.12 50.1H-110.12V49.1H-111.12V50.1ZM-111.12 72.5V73.5H-110.12V72.5H-111.12ZM-116.88 72.5H-117.88V73.5H-116.88V72.5ZM-116.88 55.156H-115.88V54.156H-116.88V55.156ZM-124.752 55.156V54.156H-125.752V55.156H-124.752ZM-124.752 71.5H-130.512V73.5H-124.752V71.5ZM-129.512 72.5V50.1H-131.512V72.5H-129.512ZM-130.512 51.1H-111.12V49.1H-130.512V51.1ZM-112.12 50.1V72.5H-110.12V50.1H-112.12ZM-111.12 71.5H-116.88V73.5H-111.12V71.5ZM-115.88 72.5V55.156H-117.88V72.5H-115.88ZM-116.88 54.156H-124.752V56.156H-116.88V54.156ZM-125.752 55.156V72.5H-123.752V55.156H-125.752ZM-99.4647 72.5V73.5H-98.4647V72.5H-99.4647ZM-105.225 72.5H-106.225V73.5H-105.225V72.5ZM-105.225 50.1V49.1H-106.225V50.1H-105.225ZM-89.2887 52.052L-89.9565 52.7964L-89.9511 52.8012L-89.2887 52.052ZM-89.2887 62.196L-88.621 62.9404L-88.6204 62.9398L-89.2887 62.196ZM-99.4647 64.148V63.148H-100.465V64.148H-99.4647ZM-99.4647 54.964V53.964H-100.465V54.964H-99.4647ZM-99.4647 59.412H-100.465V60.412H-99.4647V59.412ZM-93.6727 58.836L-93.0564 59.6235L-93.052 59.62L-93.6727 58.836ZM-99.4647 71.5H-105.225V73.5H-99.4647V71.5ZM-104.225 72.5V50.1H-106.225V72.5H-104.225ZM-105.225 51.1H-95.2407V49.1H-105.225V51.1ZM-95.2407 51.1C-92.896 51.1 -91.1753 51.7031 -89.9565 52.7964L-88.621 51.3076C-90.3036 49.7982 -92.5508 49.1 -95.2407 49.1V51.1ZM-89.9511 52.8012C-88.7064 53.9016 -88.0807 55.3079 -88.0807 57.108H-86.0807C-86.0807 54.7694 -86.9271 52.8051 -88.6264 51.3028L-89.9511 52.8012ZM-88.0807 57.108C-88.0807 58.9083 -88.7069 60.3288 -89.9571 61.4522L-88.6204 62.9398C-86.9266 61.4179 -86.0807 59.4464 -86.0807 57.108H-88.0807ZM-89.9565 61.4516C-91.1753 62.5449 -92.896 63.148 -95.2407 63.148V65.148C-92.5508 65.148 -90.3036 64.4498 -88.621 62.9404L-89.9565 61.4516ZM-95.2407 63.148H-99.4647V65.148H-95.2407V63.148ZM-100.465 64.148V72.5H-98.4647V64.148H-100.465ZM-100.465 54.964V59.412H-98.4647V54.964H-100.465ZM-99.4647 60.412H-95.6567V58.412H-99.4647V60.412ZM-95.6567 60.412C-94.6761 60.412 -93.774 60.1851 -93.0564 59.6235L-94.2891 58.0485C-94.5528 58.2549 -94.9734 58.412 -95.6567 58.412V60.412ZM-93.052 59.62C-92.2798 59.0087 -91.9047 58.1542 -91.9047 57.172H-93.9047C-93.9047 57.5978 -94.0417 57.8527 -94.2935 58.052L-93.052 59.62ZM-91.9047 57.172C-91.9047 56.2059 -92.258 55.3524 -93.0244 54.7525L-94.2571 56.3275C-94.0422 56.4956 -93.9047 56.7301 -93.9047 57.172H-91.9047ZM-93.0244 54.7525C-93.746 54.1878 -94.6616 53.964 -95.6567 53.964V55.964C-94.9452 55.964 -94.5168 56.1242 -94.2571 56.3275L-93.0244 54.7525ZM-95.6567 53.964H-99.4647V55.964H-95.6567V53.964ZM-65.3135 72.5V73.5H-64.3135V72.5H-65.3135ZM-82.5935 72.5H-83.5935V73.5H-82.5935V72.5ZM-82.5935 50.1V49.1H-83.5935V50.1H-82.5935ZM-65.5695 50.1H-64.5695V49.1H-65.5695V50.1ZM-65.5695 55.156V56.156H-64.5695V55.156H-65.5695ZM-76.8335 55.156V54.156H-77.8335V55.156H-76.8335ZM-76.8335 58.196H-77.8335V59.196H-76.8335V58.196ZM-67.8735 58.196H-66.8735V57.196H-67.8735V58.196ZM-67.8735 63.06V64.06H-66.8735V63.06H-67.8735ZM-76.8335 63.06V62.06H-77.8335V63.06H-76.8335ZM-76.8335 67.444H-77.8335V68.444H-76.8335V67.444ZM-65.3135 67.444H-64.3135V66.444H-65.3135V67.444ZM-65.3135 71.5H-82.5935V73.5H-65.3135V71.5ZM-81.5935 72.5V50.1H-83.5935V72.5H-81.5935ZM-82.5935 51.1H-65.5695V49.1H-82.5935V51.1ZM-66.5695 50.1V55.156H-64.5695V50.1H-66.5695ZM-65.5695 54.156H-76.8335V56.156H-65.5695V54.156ZM-77.8335 55.156V58.196H-75.8335V55.156H-77.8335ZM-76.8335 59.196H-67.8735V57.196H-76.8335V59.196ZM-68.8735 58.196V63.06H-66.8735V58.196H-68.8735ZM-67.8735 62.06H-76.8335V64.06H-67.8735V62.06ZM-77.8335 63.06V67.444H-75.8335V63.06H-77.8335ZM-76.8335 68.444H-65.3135V66.444H-76.8335V68.444ZM-66.3135 67.444V72.5H-64.3135V67.444H-66.3135ZM-58.083 69.684L-58.7596 70.4203L-58.083 69.684ZM-58.115 52.916L-58.7916 52.1797L-58.7949 52.1827L-58.115 52.916ZM-43.395 50.932H-42.395V50.3105L-42.9522 50.0354L-43.395 50.932ZM-43.395 56.596L-43.9231 57.4452L-42.395 58.3956V56.596H-43.395ZM-53.827 56.756L-53.1386 57.4813L-53.827 56.756ZM-53.795 65.876L-54.4707 66.6132L-54.4646 66.6187L-53.795 65.876ZM-43.011 65.844H-42.011V63.8332L-43.6144 65.0466L-43.011 65.844ZM-43.011 71.54L-42.5555 72.4302L-42.011 72.1517V71.54H-43.011ZM-49.155 71.948C-52.5194 71.948 -55.2445 70.9342 -57.4064 68.9477L-58.7596 70.4203C-56.1855 72.7858 -52.9586 73.948 -49.155 73.948V71.948ZM-57.4064 68.9477C-59.5545 66.9737 -60.635 64.4528 -60.635 61.3H-62.635C-62.635 64.9739 -61.3475 68.0423 -58.7596 70.4203L-57.4064 68.9477ZM-60.635 61.3C-60.635 58.1442 -59.5629 55.6223 -57.4351 53.6493L-58.7949 52.1827C-61.3604 54.5616 -62.635 57.6291 -62.635 61.3H-60.635ZM-57.4384 53.6523C-55.2765 51.6658 -52.5514 50.652 -49.187 50.652V48.652C-52.9906 48.652 -56.2175 49.8142 -58.7916 52.1797L-57.4384 53.6523ZM-49.187 50.652C-47.1906 50.652 -45.4139 51.0503 -43.8378 51.8286L-42.9522 50.0354C-44.8321 49.107 -46.9167 48.652 -49.187 48.652V50.652ZM-44.395 50.932V56.596H-42.395V50.932H-44.395ZM-42.8669 55.7468C-44.7755 54.5598 -46.8679 53.964 -49.123 53.964V55.964C-47.2394 55.964 -45.5132 56.4562 -43.9231 57.4452L-42.8669 55.7468ZM-49.123 53.964C-51.2336 53.964 -53.0549 54.6445 -54.5154 56.0307L-53.1386 57.4813C-52.0817 56.4782 -50.7671 55.964 -49.123 55.964V53.964ZM-54.5154 56.0307C-55.9854 57.4259 -56.715 59.2086 -56.715 61.3H-54.715C-54.715 59.722 -54.1859 58.4754 -53.1386 57.4813L-54.5154 56.0307ZM-56.715 61.3C-56.715 63.4322 -55.9754 65.2339 -54.4707 66.6132L-53.1193 65.1388C-54.1746 64.1715 -54.715 62.9225 -54.715 61.3H-56.715ZM-54.4646 66.6187C-52.9572 67.9779 -51.077 68.636 -48.899 68.636V66.636C-50.6463 66.636 -52.0302 66.1208 -53.1254 65.1333L-54.4646 66.6187ZM-48.899 68.636C-46.3762 68.636 -44.1905 67.9907 -42.4076 66.6414L-43.6144 65.0466C-44.9888 66.0867 -46.7284 66.636 -48.899 66.636V68.636ZM-44.011 65.844V71.54H-42.011V65.844H-44.011ZM-43.4665 70.6497C-45.1468 71.5095 -47.0364 71.948 -49.155 71.948V73.948C-46.751 73.948 -44.5445 73.4479 -42.5555 72.4302L-43.4665 70.6497ZM-26.599 72.5V73.5H-25.599V72.5H-26.599ZM-32.359 72.5H-33.359V73.5H-32.359V72.5ZM-32.359 55.156H-31.359V54.156H-32.359V55.156ZM-39.079 55.156H-40.079V56.156H-39.079V55.156ZM-39.079 50.1V49.1H-40.079V50.1H-39.079ZM-19.847 50.1H-18.847V49.1H-19.847V50.1ZM-19.847 55.156V56.156H-18.847V55.156H-19.847ZM-26.599 55.156V54.156H-27.599V55.156H-26.599ZM-26.599 71.5H-32.359V73.5H-26.599V71.5ZM-31.359 72.5V55.156H-33.359V72.5H-31.359ZM-32.359 54.156H-39.079V56.156H-32.359V54.156ZM-38.079 55.156V50.1H-40.079V55.156H-38.079ZM-39.079 51.1H-19.847V49.1H-39.079V51.1ZM-20.847 50.1V55.156H-18.847V50.1H-20.847ZM-19.847 54.156H-26.599V56.156H-19.847V54.156ZM-27.599 55.156V72.5H-25.599V55.156H-27.599ZM-10.3678 72.5V73.5H-9.86244L-9.56269 73.0932L-10.3678 72.5ZM-15.1998 72.5H-16.1998V73.5H-15.1998V72.5ZM-15.1998 50.1V49.1H-16.1998V50.1H-15.1998ZM-9.43975 50.1H-8.43975V49.1H-9.43975V50.1ZM-9.43975 62.74H-10.4398V65.8003L-8.6327 63.3305L-9.43975 62.74ZM-0.191742 50.1V49.1H-0.699173L-0.99881 49.5095L-0.191742 50.1ZM4.80025 50.1H5.80025V49.1H4.80025V50.1ZM4.80025 72.5V73.5H5.80025V72.5H4.80025ZM-0.959747 72.5H-1.95975V73.5H-0.959747V72.5ZM-0.959747 59.732H0.0402527V56.6891L-1.7648 59.1388L-0.959747 59.732ZM-10.3678 71.5H-15.1998V73.5H-10.3678V71.5ZM-14.1998 72.5V50.1H-16.1998V72.5H-14.1998ZM-15.1998 51.1H-9.43975V49.1H-15.1998V51.1ZM-10.4398 50.1V62.74H-8.43975V50.1H-10.4398ZM-8.6327 63.3305L0.615311 50.6905L-0.99881 49.5095L-10.2468 62.1495L-8.6327 63.3305ZM-0.191742 51.1H4.80025V49.1H-0.191742V51.1ZM3.80025 50.1V72.5H5.80025V50.1H3.80025ZM4.80025 71.5H-0.959747V73.5H4.80025V71.5ZM0.0402527 72.5V59.732H-1.95975V72.5H0.0402527ZM-1.7648 59.1388L-11.1728 71.9068L-9.56269 73.0932L-0.154694 60.3252L-1.7648 59.1388ZM15.9935 72.5V73.5H16.4873L16.7875 73.108L15.9935 72.5ZM8.50551 72.5L7.71616 71.8861L6.46086 73.5H8.50551V72.5ZM17.4655 60.98L18.2549 61.5939L18.7136 61.0041L18.2779 60.397L17.4655 60.98ZM9.6575 50.1V49.1H7.709L8.84506 50.683L9.6575 50.1ZM16.7615 50.1L17.5831 49.5299L17.2848 49.1H16.7615V50.1ZM23.0015 59.092L22.1799 59.6621L24.0015 62.287V59.092H23.0015ZM23.0015 50.1V49.1H22.0015V50.1H23.0015ZM28.7615 50.1H29.7615V49.1H28.7615V50.1ZM28.7615 59.092H27.7615V62.2736L29.5817 59.6641L28.7615 59.092ZM35.0335 50.1V49.1H34.5118L34.2133 49.5279L35.0335 50.1ZM42.1055 50.1L42.918 50.683L44.054 49.1H42.1055V50.1ZM34.2975 60.98L33.4851 60.397L33.0494 61.0041L33.5082 61.5939L34.2975 60.98ZM43.2575 72.5V73.5H45.3021L44.0469 71.8861L43.2575 72.5ZM35.7695 72.5L34.9755 73.108L35.2757 73.5H35.7695V72.5ZM28.7615 63.348L29.5555 62.74L27.7615 60.3972V63.348H28.7615ZM28.7615 72.5V73.5H29.7615V72.5H28.7615ZM23.0015 72.5H22.0015V73.5H23.0015V72.5ZM23.0015 63.348H24.0015V60.3972L22.2076 62.74L23.0015 63.348ZM15.9935 71.5H8.50551V73.5H15.9935V71.5ZM9.29486 73.1139L18.2549 61.5939L16.6761 60.3661L7.71616 71.8861L9.29486 73.1139ZM18.2779 60.397L10.4699 49.517L8.84506 50.683L16.6531 61.563L18.2779 60.397ZM9.6575 51.1H16.7615V49.1H9.6575V51.1ZM15.9399 50.6701L22.1799 59.6621L23.8231 58.5219L17.5831 49.5299L15.9399 50.6701ZM24.0015 59.092V50.1H22.0015V59.092H24.0015ZM23.0015 51.1H28.7615V49.1H23.0015V51.1ZM27.7615 50.1V59.092H29.7615V50.1H27.7615ZM29.5817 59.6641L35.8537 50.6721L34.2133 49.5279L27.9413 58.5199L29.5817 59.6641ZM35.0335 51.1H42.1055V49.1H35.0335V51.1ZM41.2931 49.517L33.4851 60.397L35.11 61.563L42.918 50.683L41.2931 49.517ZM33.5082 61.5939L42.4682 73.1139L44.0469 71.8861L35.0869 60.3661L33.5082 61.5939ZM43.2575 71.5H35.7695V73.5H43.2575V71.5ZM36.5635 71.892L29.5555 62.74L27.9675 63.956L34.9755 73.108L36.5635 71.892ZM27.7615 63.348V72.5H29.7615V63.348H27.7615ZM28.7615 71.5H23.0015V73.5H28.7615V71.5ZM24.0015 72.5V63.348H22.0015V72.5H24.0015ZM22.2076 62.74L15.1995 71.892L16.7875 73.108L23.7955 63.956L22.2076 62.74ZM52.729 72.5V73.5H53.729V72.5H52.729ZM46.969 72.5H45.969V73.5H46.969V72.5ZM46.969 50.1V49.1H45.969V50.1H46.969ZM52.729 50.1H53.729V49.1H52.729V50.1ZM52.729 58.068H51.729V59.068H52.729V58.068ZM61.177 58.068V59.068H62.177V58.068H61.177ZM61.177 50.1V49.1H60.177V50.1H61.177ZM66.937 50.1H67.937V49.1H66.937V50.1ZM66.937 72.5V73.5H67.937V72.5H66.937ZM61.177 72.5H60.177V73.5H61.177V72.5ZM61.177 63.188H62.177V62.188H61.177V63.188ZM52.729 63.188V62.188H51.729V63.188H52.729ZM52.729 71.5H46.969V73.5H52.729V71.5ZM47.969 72.5V50.1H45.969V72.5H47.969ZM46.969 51.1H52.729V49.1H46.969V51.1ZM51.729 50.1V58.068H53.729V50.1H51.729ZM52.729 59.068H61.177V57.068H52.729V59.068ZM62.177 58.068V50.1H60.177V58.068H62.177ZM61.177 51.1H66.937V49.1H61.177V51.1ZM65.937 50.1V72.5H67.937V50.1H65.937ZM66.937 71.5H61.177V73.5H66.937V71.5ZM62.177 72.5V63.188H60.177V72.5H62.177ZM61.177 62.188H52.729V64.188H61.177V62.188ZM51.729 63.188V72.5H53.729V63.188H51.729ZM72.819 72.5H71.819V73.5H72.819V72.5ZM72.819 50.1V49.1H71.819V50.1H72.819ZM78.579 50.1H79.579V49.1H78.579V50.1ZM78.579 57.012H77.579V58.012H78.579V57.012ZM88.403 59.188L87.7411 59.9376L88.403 59.188ZM88.435 70.356L87.7737 69.6059L88.435 70.356ZM78.579 61.684V60.684H77.579V61.684H78.579ZM78.579 67.572H77.579V68.572H78.579V67.572ZM84.083 66.804L84.7206 67.5744L84.7232 67.5722L84.083 66.804ZM84.083 62.484L83.4301 63.2414L83.4364 63.2469L83.4428 63.2522L84.083 62.484ZM98.931 72.5V73.5H99.931V72.5H98.931ZM93.171 72.5H92.171V73.5H93.171V72.5ZM93.171 50.1V49.1H92.171V50.1H93.171ZM98.931 50.1H99.931V49.1H98.931V50.1ZM81.875 71.5H72.819V73.5H81.875V71.5ZM73.819 72.5V50.1H71.819V72.5H73.819ZM72.819 51.1H78.579V49.1H72.819V51.1ZM77.579 50.1V57.012H79.579V50.1H77.579ZM78.579 58.012H81.875V56.012H78.579V58.012ZM81.875 58.012C84.4005 58.012 86.3216 58.684 87.7411 59.9376L89.0649 58.4384C87.1991 56.7907 84.7682 56.012 81.875 56.012V58.012ZM87.7411 59.9376C89.1588 61.1896 89.867 62.7785 89.867 64.788H91.867C91.867 62.2321 90.9325 60.0877 89.0649 58.4384L87.7411 59.9376ZM89.867 64.788C89.867 66.8019 89.1664 68.3781 87.7737 69.6059L89.0963 71.1061C90.9463 69.4752 91.867 67.3395 91.867 64.788H89.867ZM87.7737 69.6059C86.3806 70.834 84.4521 71.5 81.875 71.5V73.5C84.802 73.5 87.2467 72.7367 89.0963 71.1061L87.7737 69.6059ZM77.579 61.684V67.572H79.579V61.684H77.579ZM78.579 68.572H81.523V66.572H78.579V68.572ZM81.523 68.572C82.7612 68.572 83.8679 68.2801 84.7206 67.5744L83.4454 66.0336C83.0608 66.3519 82.4608 66.572 81.523 66.572V68.572ZM84.7232 67.5722C85.6101 66.8331 86.043 65.8272 86.043 64.66H84.043C84.043 65.2848 83.8359 65.7082 83.4428 66.0358L84.7232 67.5722ZM86.043 64.66C86.043 63.4799 85.6161 62.4598 84.7232 61.7158L83.4428 63.2522C83.83 63.5748 84.043 64.0055 84.043 64.66H86.043ZM84.7359 61.7266C83.8829 60.9912 82.7702 60.684 81.523 60.684V62.684C82.4518 62.684 83.0458 62.9101 83.4301 63.2414L84.7359 61.7266ZM81.523 60.684H78.579V62.684H81.523V60.684ZM98.931 71.5H93.171V73.5H98.931V71.5ZM94.171 72.5V50.1H92.171V72.5H94.171ZM93.171 51.1H98.931V49.1H93.171V51.1ZM97.931 50.1V72.5H99.931V50.1H97.931ZM109.657 72.5V73.5H110.163L110.462 73.0932L109.657 72.5ZM104.825 72.5H103.825V73.5H104.825V72.5ZM104.825 50.1V49.1H103.825V50.1H104.825ZM110.585 50.1H111.585V49.1H110.585V50.1ZM110.585 62.74H109.585V65.8003L111.392 63.3305L110.585 62.74ZM119.833 50.1V49.1H119.326L119.026 49.5095L119.833 50.1ZM124.825 50.1H125.825V49.1H124.825V50.1ZM124.825 72.5V73.5H125.825V72.5H124.825ZM119.065 72.5H118.065V73.5H119.065V72.5ZM119.065 59.732H120.065V56.6891L118.26 59.1388L119.065 59.732ZM108.761 43.316V42.316H107.737L107.762 43.3404L108.761 43.316ZM112.633 43.316L113.633 43.2815L113.599 42.316H112.633V43.316ZM113.209 44.788L112.502 45.4951L112.512 45.5052L112.523 45.515L113.209 44.788ZM116.313 44.788L115.627 44.061L115.616 44.0708L115.606 44.0809L116.313 44.788ZM116.921 43.316V42.316H115.955L115.922 43.2815L116.921 43.316ZM120.857 43.316L121.857 43.3401L121.882 42.316H120.857V43.316ZM119.097 47.444L118.442 46.6887L118.434 46.6958L119.097 47.444ZM110.489 47.444L109.819 48.1859L109.829 48.1952L109.84 48.2042L110.489 47.444ZM109.657 71.5H104.825V73.5H109.657V71.5ZM105.825 72.5V50.1H103.825V72.5H105.825ZM104.825 51.1H110.585V49.1H104.825V51.1ZM109.585 50.1V62.74H111.585V50.1H109.585ZM111.392 63.3305L120.64 50.6905L119.026 49.5095L109.778 62.1495L111.392 63.3305ZM119.833 51.1H124.825V49.1H119.833V51.1ZM123.825 50.1V72.5H125.825V50.1H123.825ZM124.825 71.5H119.065V73.5H124.825V71.5ZM120.065 72.5V59.732H118.065V72.5H120.065ZM118.26 59.1388L108.852 71.9068L110.462 73.0932L119.87 60.3252L118.26 59.1388ZM108.761 44.316H112.633V42.316H108.761V44.316ZM111.634 43.3505C111.662 44.1669 111.925 44.9177 112.502 45.4951L113.916 44.0809C113.768 43.933 113.647 43.7024 113.633 43.2815L111.634 43.3505ZM112.523 45.515C113.136 46.0943 113.928 46.332 114.777 46.332V44.332C114.304 44.332 114.05 44.207 113.896 44.061L112.523 45.515ZM114.777 46.332C115.624 46.332 116.42 46.0953 117.02 45.4951L115.606 44.0809C115.481 44.206 115.254 44.332 114.777 44.332V46.332ZM117 45.515C117.608 44.9407 117.892 44.1835 117.921 43.3505L115.922 43.2815C115.908 43.6859 115.787 43.9099 115.627 44.061L117 45.515ZM116.921 44.316H120.857V42.316H116.921V44.316ZM119.858 43.2919C119.82 44.8375 119.321 45.9258 118.442 46.6888L119.753 48.1992C121.135 46.9996 121.809 45.3358 121.857 43.3401L119.858 43.2919ZM118.434 46.6958C117.512 47.513 116.33 47.948 114.809 47.948V49.948C116.744 49.948 118.421 49.3803 119.761 48.1922L118.434 46.6958ZM114.809 47.948C113.314 47.948 112.112 47.515 111.139 46.6838L109.84 48.2042C111.214 49.3783 112.891 49.948 114.809 49.948V47.948ZM111.16 46.7021C110.289 45.9148 109.798 44.8175 109.761 43.2916L107.762 43.3404C107.81 45.3131 108.471 46.9678 109.819 48.1859L111.16 46.7021ZM140.369 72.5H139.369V73.5H140.369V72.5ZM140.369 50.1V49.1H139.369V50.1H140.369ZM157.105 50.1H158.105V49.1H157.105V50.1ZM157.105 55.028V56.028H158.105V55.028H157.105ZM146.161 55.028V54.028H145.161V55.028H146.161ZM146.161 57.46H145.161V58.46H146.161V57.46ZM156.689 59.572L156.023 60.3183L156.689 59.572ZM146.161 61.972V60.972H145.161V61.972H146.161ZM146.161 67.572H145.161V68.572H146.161V67.572ZM152.305 66.836L151.684 66.0525L151.677 66.0578L151.67 66.0633L152.305 66.836ZM152.305 62.74L151.654 63.4993L151.661 63.5049L151.667 63.5104L152.305 62.74ZM150.321 71.5H140.369V73.5H150.321V71.5ZM141.369 72.5V50.1H139.369V72.5H141.369ZM140.369 51.1H157.105V49.1H140.369V51.1ZM156.105 50.1V55.028H158.105V50.1H156.105ZM157.105 54.028H146.161V56.028H157.105V54.028ZM145.161 55.028V57.46H147.161V55.028H145.161ZM146.161 58.46H150.321V56.46H146.161V58.46ZM150.321 58.46C152.808 58.46 154.672 59.113 156.023 60.3183L157.355 58.8257C155.549 57.215 153.167 56.46 150.321 56.46V58.46ZM156.023 60.3183C157.378 61.5263 158.057 63.0626 158.057 65.012H160.057C160.057 62.5241 159.158 60.4337 157.355 58.8257L156.023 60.3183ZM158.057 65.012C158.057 66.9612 157.378 68.4836 156.029 69.6687L157.349 71.1713C159.157 69.5831 160.057 67.5001 160.057 65.012H158.057ZM156.029 69.6687C154.678 70.8556 152.812 71.5 150.321 71.5V73.5C153.163 73.5 155.543 72.7578 157.349 71.1713L156.029 69.6687ZM145.161 61.972V67.572H147.161V61.972H145.161ZM146.161 68.572H149.873V66.572H146.161V68.572ZM149.873 68.572C151.053 68.572 152.113 68.2881 152.94 67.6087L151.67 66.0633C151.303 66.3652 150.741 66.572 149.873 66.572V68.572ZM152.926 67.6195C153.806 66.9222 154.233 65.9503 154.233 64.82H152.233C152.233 65.3964 152.042 65.7684 151.684 66.0525L152.926 67.6195ZM154.233 64.82C154.233 63.6776 153.813 62.69 152.943 61.9696L151.667 63.5104C152.034 63.814 152.233 64.2131 152.233 64.82H154.233ZM152.956 61.9807C152.128 61.2715 151.062 60.972 149.873 60.972V62.972C150.732 62.972 151.287 63.1845 151.654 63.4993L152.956 61.9807ZM149.873 60.972H146.161V62.972H149.873V60.972ZM169.604 72.5V73.5H170.604V72.5H169.604ZM163.844 72.5H162.844V73.5H163.844V72.5ZM163.844 50.1V49.1H162.844V50.1H163.844ZM179.78 52.052L179.112 52.7964L179.118 52.8012L179.78 52.052ZM179.78 62.196L180.448 62.9404L180.448 62.9398L179.78 62.196ZM169.604 64.148V63.148H168.604V64.148H169.604ZM169.604 54.964V53.964H168.604V54.964H169.604ZM169.604 59.412H168.604V60.412H169.604V59.412ZM175.396 58.836L176.012 59.6235L176.017 59.62L175.396 58.836ZM169.604 71.5H163.844V73.5H169.604V71.5ZM164.844 72.5V50.1H162.844V72.5H164.844ZM163.844 51.1H173.828V49.1H163.844V51.1ZM173.828 51.1C176.173 51.1 177.893 51.7031 179.112 52.7964L180.448 51.3076C178.765 49.7982 176.518 49.1 173.828 49.1V51.1ZM179.118 52.8012C180.362 53.9016 180.988 55.3079 180.988 57.108H182.988C182.988 54.7694 182.142 52.8051 180.442 51.3028L179.118 52.8012ZM180.988 57.108C180.988 58.9083 180.362 60.3288 179.112 61.4522L180.448 62.9398C182.142 61.4179 182.988 59.4464 182.988 57.108H180.988ZM179.112 61.4516C177.893 62.5449 176.173 63.148 173.828 63.148V65.148C176.518 65.148 178.765 64.4498 180.448 62.9404L179.112 61.4516ZM173.828 63.148H169.604V65.148H173.828V63.148ZM168.604 64.148V72.5H170.604V64.148H168.604ZM168.604 54.964V59.412H170.604V54.964H168.604ZM169.604 60.412H173.412V58.412H169.604V60.412ZM173.412 60.412C174.393 60.412 175.295 60.1851 176.012 59.6235L174.78 58.0485C174.516 58.2549 174.095 58.412 173.412 58.412V60.412ZM176.017 59.62C176.789 59.0087 177.164 58.1542 177.164 57.172H175.164C175.164 57.5978 175.027 57.8527 174.775 58.052L176.017 59.62ZM177.164 57.172C177.164 56.2059 176.811 55.3524 176.044 54.7525L174.812 56.3275C175.027 56.4956 175.164 56.7301 175.164 57.172H177.164ZM176.044 54.7525C175.323 54.1878 174.407 53.964 173.412 53.964V55.964C174.124 55.964 174.552 56.1242 174.812 56.3275L176.044 54.7525ZM173.412 53.964H169.604V55.964H173.412V53.964ZM203.755 72.5V73.5H204.755V72.5H203.755ZM186.475 72.5H185.475V73.5H186.475V72.5ZM186.475 50.1V49.1H185.475V50.1H186.475ZM203.499 50.1H204.499V49.1H203.499V50.1ZM203.499 55.156V56.156H204.499V55.156H203.499ZM192.235 55.156V54.156H191.235V55.156H192.235ZM192.235 58.196H191.235V59.196H192.235V58.196ZM201.195 58.196H202.195V57.196H201.195V58.196ZM201.195 63.06V64.06H202.195V63.06H201.195ZM192.235 63.06V62.06H191.235V63.06H192.235ZM192.235 67.444H191.235V68.444H192.235V67.444ZM203.755 67.444H204.755V66.444H203.755V67.444ZM203.755 71.5H186.475V73.5H203.755V71.5ZM187.475 72.5V50.1H185.475V72.5H187.475ZM186.475 51.1H203.499V49.1H186.475V51.1ZM202.499 50.1V55.156H204.499V50.1H202.499ZM203.499 54.156H192.235V56.156H203.499V54.156ZM191.235 55.156V58.196H193.235V55.156H191.235ZM192.235 59.196H201.195V57.196H192.235V59.196ZM200.195 58.196V63.06H202.195V58.196H200.195ZM201.195 62.06H192.235V64.06H201.195V62.06ZM191.235 63.06V67.444H193.235V63.06H191.235ZM192.235 68.444H203.755V66.444H192.235V68.444ZM202.755 67.444V72.5H204.755V67.444H202.755ZM214.366 72.5V73.5H215.366V72.5H214.366ZM208.607 72.5H207.607V73.5H208.607V72.5ZM208.607 50.1V49.1H207.607V50.1H208.607ZM214.366 50.1H215.366V49.1H214.366V50.1ZM214.366 58.068H213.366V59.068H214.366V58.068ZM222.814 58.068V59.068H223.814V58.068H222.814ZM222.814 50.1V49.1H221.814V50.1H222.814ZM228.574 50.1H229.574V49.1H228.574V50.1ZM228.574 72.5V73.5H229.574V72.5H228.574ZM222.814 72.5H221.814V73.5H222.814V72.5ZM222.814 63.188H223.814V62.188H222.814V63.188ZM214.366 63.188V62.188H213.366V63.188H214.366ZM214.366 71.5H208.607V73.5H214.366V71.5ZM209.607 72.5V50.1H207.607V72.5H209.607ZM208.607 51.1H214.366V49.1H208.607V51.1ZM213.366 50.1V58.068H215.366V50.1H213.366ZM214.366 59.068H222.814V57.068H214.366V59.068ZM223.814 58.068V50.1H221.814V58.068H223.814ZM222.814 51.1H228.574V49.1H222.814V51.1ZM227.574 50.1V72.5H229.574V50.1H227.574ZM228.574 71.5H222.814V73.5H228.574V71.5ZM223.814 72.5V63.188H221.814V72.5H223.814ZM222.814 62.188H214.366V64.188H222.814V62.188ZM213.366 63.188V72.5H215.366V63.188H213.366ZM237.88 76.852V77.852H238.88V76.852H237.88ZM232.473 76.852H231.473V77.852H232.473V76.852ZM232.473 67.444V66.444H231.473V67.444H232.473ZM234.616 67.444V68.444H235.175L235.468 67.9681L234.616 67.444ZM237.177 50.1V49.1H236.177V50.1H237.177ZM253.88 50.1H254.88V49.1H253.88V50.1ZM253.88 67.444H252.88V68.444H253.88V67.444ZM256.824 67.444H257.824V66.444H256.824V67.444ZM256.824 76.852V77.852H257.824V76.852H256.824ZM251.384 76.852H250.384V77.852H251.384V76.852ZM251.384 72.5H252.384V71.5H251.384V72.5ZM237.88 72.5V71.5H236.88V72.5H237.88ZM240.888 67.444L239.949 67.1004L239.458 68.444H240.888V67.444ZM248.121 67.444V68.444H249.121V67.444H248.121ZM248.121 55.156H249.121V54.156H248.121V55.156ZM242.905 55.156V54.156H241.918L241.905 55.1424L242.905 55.156ZM237.88 75.852H232.473V77.852H237.88V75.852ZM233.473 76.852V67.444H231.473V76.852H233.473ZM232.473 68.444H234.616V66.444H232.473V68.444ZM235.468 67.9681C237.325 64.9513 238.177 60.2816 238.177 54.132H236.177C236.177 60.1851 235.322 64.39 233.765 66.9199L235.468 67.9681ZM238.177 54.132V50.1H236.177V54.132H238.177ZM237.177 51.1H253.88V49.1H237.177V51.1ZM252.88 50.1V67.444H254.88V50.1H252.88ZM253.88 68.444H256.824V66.444H253.88V68.444ZM255.824 67.444V76.852H257.824V67.444H255.824ZM256.824 75.852H251.384V77.852H256.824V75.852ZM252.384 76.852V72.5H250.384V76.852H252.384ZM251.384 71.5H237.88V73.5H251.384V71.5ZM236.88 72.5V76.852H238.88V72.5H236.88ZM240.888 68.444H248.121V66.444H240.888V68.444ZM249.121 67.444V55.156H247.121V67.444H249.121ZM248.121 54.156H242.905V56.156H248.121V54.156ZM241.905 55.1424C241.842 59.7511 241.182 63.7309 239.949 67.1004L241.828 67.7876C243.155 64.1597 243.839 59.9476 243.904 55.1696L241.905 55.1424Z" fill="white"/>
<path d="M309.767 69.96V70.96H311.316L310.679 69.5483L309.767 69.96ZM299.079 69.96L298.168 70.3717L298.434 70.96H299.079V69.96ZM272.135 10.312V9.312H270.586L271.224 10.7237L272.135 10.312ZM282.823 10.312L283.735 9.90033L283.469 9.312H282.823V10.312ZM309.767 68.96H299.079V70.96H309.767V68.96ZM299.991 69.5483L273.047 9.90033L271.224 10.7237L298.168 70.3717L299.991 69.5483ZM272.135 11.312H282.823V9.312H272.135V11.312ZM281.912 10.7237L308.856 70.3717L310.679 69.5483L283.735 9.90033L281.912 10.7237Z" fill="white"/>
<path d="M355.985 30.5V31.5H356.985V30.5H355.985ZM350.225 30.5H349.225V31.5H350.225V30.5ZM350.225 8.1V7.1H349.225V8.1H350.225ZM369.617 8.1H370.617V7.1H369.617V8.1ZM369.617 30.5V31.5H370.617V30.5H369.617ZM363.857 30.5H362.857V31.5H363.857V30.5ZM363.857 13.156H364.857V12.156H363.857V13.156ZM355.985 13.156V12.156H354.985V13.156H355.985ZM355.985 29.5H350.225V31.5H355.985V29.5ZM351.225 30.5V8.1H349.225V30.5H351.225ZM350.225 9.1H369.617V7.1H350.225V9.1ZM368.617 8.1V30.5H370.617V8.1H368.617ZM369.617 29.5H363.857V31.5H369.617V29.5ZM364.857 30.5V13.156H362.857V30.5H364.857ZM363.857 12.156H355.985V14.156H363.857V12.156ZM354.985 13.156V30.5H356.985V13.156H354.985ZM382.393 23.844L381.666 24.531L381.666 24.5314L382.393 23.844ZM390.809 23.844L390.082 23.1566L390.809 23.844ZM390.809 14.756L390.082 15.4434V15.4434L390.809 14.756ZM382.393 14.756L381.666 14.0686L381.666 14.069L382.393 14.756ZM395.065 27.556L394.354 26.8523L395.065 27.556ZM378.169 27.556L377.458 28.2597L378.169 27.556ZM378.169 11.044L377.458 10.3403L378.169 11.044ZM381.666 24.5314C382.991 25.9311 384.664 26.636 386.617 26.636V24.636C385.199 24.636 384.056 24.1462 383.119 23.1566L381.666 24.5314ZM386.617 26.636C388.552 26.636 390.213 25.9282 391.535 24.5314L390.082 23.1566C389.143 24.1491 388.01 24.636 386.617 24.636V26.636ZM391.535 24.5314C392.862 23.129 393.505 21.3583 393.505 19.3H391.505C391.505 20.911 391.017 22.1697 390.082 23.1566L391.535 24.5314ZM393.505 19.3C393.505 17.2416 392.862 15.471 391.535 14.0686L390.082 15.4434C391.017 16.4303 391.505 17.689 391.505 19.3H393.505ZM391.535 14.0686C390.213 12.6718 388.552 11.964 386.617 11.964V13.964C388.01 13.964 389.143 14.4509 390.082 15.4434L391.535 14.0686ZM386.617 11.964C384.664 11.964 382.991 12.6689 381.666 14.0686L383.119 15.4434C384.056 14.4538 385.199 13.964 386.617 13.964V11.964ZM381.666 14.069C380.355 15.4558 379.729 17.2295 379.729 19.3H381.729C381.729 17.6585 382.212 16.4028 383.119 15.443L381.666 14.069ZM379.729 19.3C379.729 21.3705 380.355 23.1442 381.666 24.531L383.119 23.157C382.212 22.1972 381.729 20.9415 381.729 19.3H379.729ZM394.354 26.8523C392.315 28.9106 389.761 29.948 386.617 29.948V31.948C390.256 31.948 393.334 30.7241 395.775 28.2597L394.354 26.8523ZM386.617 29.948C383.472 29.948 380.918 28.9106 378.879 26.8523L377.458 28.2597C379.899 30.7241 382.977 31.948 386.617 31.948V29.948ZM378.879 26.8523C376.829 24.7821 375.809 22.2846 375.809 19.3H373.809C373.809 22.8007 375.029 25.8073 377.458 28.2597L378.879 26.8523ZM375.809 19.3C375.809 16.3154 376.829 13.8179 378.879 11.7477L377.458 10.3403C375.029 12.7927 373.809 15.7993 373.809 19.3H375.809ZM378.879 11.7477C380.918 9.68939 383.472 8.652 386.617 8.652V6.652C382.977 6.652 379.899 7.87594 377.458 10.3403L378.879 11.7477ZM386.617 8.652C389.761 8.652 392.315 9.68939 394.354 11.7477L395.775 10.3403C393.334 7.87594 390.256 6.652 386.617 6.652V8.652ZM394.354 11.7477C396.405 13.8179 397.425 16.3154 397.425 19.3H399.425C399.425 15.7993 398.205 12.7927 395.775 10.3403L394.354 11.7477ZM397.425 19.3C397.425 22.2846 396.405 24.7821 394.354 26.8523L395.775 28.2597C398.205 25.8073 399.425 22.8007 399.425 19.3H397.425ZM406.461 27.684L405.784 28.4203L406.461 27.684ZM406.429 10.916L405.752 10.1797L405.749 10.1827L406.429 10.916ZM421.149 8.932H422.149V8.31054L421.592 8.03537L421.149 8.932ZM421.149 14.596L420.621 15.4452L422.149 16.3956V14.596H421.149ZM410.717 14.756L411.405 15.4813L410.717 14.756ZM410.749 23.876L410.073 24.6132L410.079 24.6187L410.749 23.876ZM421.533 23.844H422.533V21.8332L420.929 23.0466L421.533 23.844ZM421.533 29.54L421.988 30.4302L422.533 30.1517V29.54H421.533ZM415.389 29.948C412.024 29.948 409.299 28.9342 407.137 26.9477L405.784 28.4203C408.358 30.7858 411.585 31.948 415.389 31.948V29.948ZM407.137 26.9477C404.989 24.9737 403.909 22.4528 403.909 19.3H401.909C401.909 22.9739 403.196 26.0423 405.784 28.4203L407.137 26.9477ZM403.909 19.3C403.909 16.1442 404.981 13.6223 407.109 11.6493L405.749 10.1827C403.183 12.5616 401.909 15.6291 401.909 19.3H403.909ZM407.105 11.6523C409.267 9.66576 411.992 8.652 415.357 8.652V6.652C411.553 6.652 408.326 7.81423 405.752 10.1797L407.105 11.6523ZM415.357 8.652C417.353 8.652 419.13 9.0503 420.706 9.82863L421.592 8.03537C419.712 7.10703 417.627 6.652 415.357 6.652V8.652ZM420.149 8.932V14.596H422.149V8.932H420.149ZM421.677 13.7468C419.768 12.5598 417.676 11.964 415.421 11.964V13.964C417.304 13.964 419.031 14.4562 420.621 15.4452L421.677 13.7468ZM415.421 11.964C413.31 11.964 411.489 12.6445 410.028 14.0307L411.405 15.4813C412.462 14.4782 413.777 13.964 415.421 13.964V11.964ZM410.028 14.0307C408.558 15.4259 407.829 17.2086 407.829 19.3H409.829C409.829 17.722 410.358 16.4754 411.405 15.4813L410.028 14.0307ZM407.829 19.3C407.829 21.4322 408.568 23.2339 410.073 24.6132L411.424 23.1388C410.369 22.1715 409.829 20.9225 409.829 19.3H407.829ZM410.079 24.6187C411.587 25.9779 413.467 26.636 415.645 26.636V24.636C413.897 24.636 412.514 24.1208 411.418 23.1333L410.079 24.6187ZM415.645 26.636C418.168 26.636 420.353 25.9907 422.136 24.6414L420.929 23.0466C419.555 24.0867 417.815 24.636 415.645 24.636V26.636ZM420.533 23.844V29.54H422.533V23.844H420.533ZM421.077 28.6498C419.397 29.5095 417.507 29.948 415.389 29.948V31.948C417.793 31.948 419.999 31.4479 421.988 30.4302L421.077 28.6498ZM437.945 30.5V31.5H438.945V30.5H437.945ZM432.185 30.5H431.185V31.5H432.185V30.5ZM432.185 13.156H433.185V12.156H432.185V13.156ZM425.465 13.156H424.465V14.156H425.465V13.156ZM425.465 8.1V7.1H424.465V8.1H425.465ZM444.697 8.1H445.697V7.1H444.697V8.1ZM444.697 13.156V14.156H445.697V13.156H444.697ZM437.945 13.156V12.156H436.945V13.156H437.945ZM437.945 29.5H432.185V31.5H437.945V29.5ZM433.185 30.5V13.156H431.185V30.5H433.185ZM432.185 12.156H425.465V14.156H432.185V12.156ZM426.465 13.156V8.1H424.465V13.156H426.465ZM425.465 9.1H444.697V7.1H425.465V9.1ZM443.697 8.1V13.156H445.697V8.1H443.697ZM444.697 12.156H437.945V14.156H444.697V12.156ZM436.945 13.156V30.5H438.945V13.156H436.945ZM454.63 23.844L453.904 24.531L453.904 24.5314L454.63 23.844ZM463.046 23.844L462.32 23.1566L463.046 23.844ZM463.046 14.756L462.32 15.4434V15.4434L463.046 14.756ZM454.63 14.756L453.904 14.0686L453.904 14.069L454.63 14.756ZM467.302 27.556L466.592 26.8523L467.302 27.556ZM450.406 27.556L449.696 28.2597L450.406 27.556ZM450.406 11.044L449.696 10.3403L450.406 11.044ZM453.904 24.5314C455.229 25.9311 456.902 26.636 458.854 26.636V24.636C457.436 24.636 456.293 24.1462 455.357 23.1566L453.904 24.5314ZM458.854 26.636C460.789 26.636 462.451 25.9282 463.773 24.5314L462.32 23.1566C461.381 24.1491 460.247 24.636 458.854 24.636V26.636ZM463.773 24.5314C465.1 23.129 465.742 21.3583 465.742 19.3H463.742C463.742 20.911 463.254 22.1697 462.32 23.1566L463.773 24.5314ZM465.742 19.3C465.742 17.2416 465.1 15.471 463.773 14.0686L462.32 15.4434C463.254 16.4303 463.742 17.689 463.742 19.3H465.742ZM463.773 14.0686C462.451 12.6718 460.789 11.964 458.854 11.964V13.964C460.247 13.964 461.381 14.4509 462.32 15.4434L463.773 14.0686ZM458.854 11.964C456.902 11.964 455.229 12.6689 453.904 14.0686L455.357 15.4434C456.293 14.4538 457.436 13.964 458.854 13.964V11.964ZM453.904 14.069C452.592 15.4558 451.966 17.2295 451.966 19.3H453.966C453.966 17.6585 454.449 16.4028 455.357 15.443L453.904 14.069ZM451.966 19.3C451.966 21.3705 452.592 23.1442 453.904 24.531L455.357 23.157C454.449 22.1972 453.966 20.9415 453.966 19.3H451.966ZM466.592 26.8523C464.553 28.9106 461.999 29.948 458.854 29.948V31.948C462.494 31.948 465.572 30.7241 468.013 28.2597L466.592 26.8523ZM458.854 29.948C455.71 29.948 453.156 28.9106 451.117 26.8523L449.696 28.2597C452.137 30.7241 455.215 31.948 458.854 31.948V29.948ZM451.117 26.8523C449.066 24.7821 448.046 22.2846 448.046 19.3H446.046C446.046 22.8007 447.266 25.8073 449.696 28.2597L451.117 26.8523ZM448.046 19.3C448.046 16.3154 449.066 13.8179 451.117 11.7477L449.696 10.3403C447.266 12.7927 446.046 15.7993 446.046 19.3H448.046ZM451.117 11.7477C453.156 9.68939 455.71 8.652 458.854 8.652V6.652C455.215 6.652 452.137 7.87594 449.696 10.3403L451.117 11.7477ZM458.854 8.652C461.999 8.652 464.553 9.68939 466.592 11.7477L468.013 10.3403C465.572 7.87594 462.494 6.652 458.854 6.652V8.652ZM466.592 11.7477C468.642 13.8179 469.662 16.3154 469.662 19.3H471.662C471.662 15.7993 470.442 12.7927 468.013 10.3403L466.592 11.7477ZM469.662 19.3C469.662 22.2846 468.642 24.7821 466.592 26.8523L468.013 28.2597C470.442 25.8073 471.662 22.8007 471.662 19.3H469.662ZM479.678 30.5V31.5H480.18L480.48 31.0976L479.678 30.5ZM473.054 30.5L472.253 29.9004L471.055 31.5H473.054V30.5ZM479.934 21.316L480.734 21.9156L481.523 20.863L480.298 20.3845L479.934 21.316ZM476.734 18.852L477.556 18.2828L476.734 18.852ZM477.758 10.052L478.419 10.8019L478.426 10.7964L477.758 10.052ZM494.174 8.1H495.174V7.1H494.174V8.1ZM494.174 30.5V31.5H495.174V30.5H494.174ZM488.414 30.5H487.414V31.5H488.414V30.5ZM488.414 21.956H489.414V20.956H488.414V21.956ZM486.046 21.956V20.956H485.544L485.244 21.3584L486.046 21.956ZM488.414 17.252V18.252H489.414V17.252H488.414ZM488.414 12.964H489.414V11.964H488.414V12.964ZM482.078 13.572L482.729 14.3313L482.731 14.3288L482.078 13.572ZM482.078 16.708L481.427 17.4673L481.446 17.4838L481.466 17.4993L482.078 16.708ZM479.678 29.5H473.054V31.5H479.678V29.5ZM473.854 31.0996L480.734 21.9156L479.133 20.7164L472.253 29.9004L473.854 31.0996ZM480.298 20.3845C479.101 19.9171 478.201 19.2142 477.556 18.2828L475.912 19.4212C476.803 20.7084 478.036 21.6482 479.57 22.2475L480.298 20.3845ZM477.556 18.2828C476.913 17.3535 476.582 16.2754 476.582 15.012H474.582C474.582 16.65 475.019 18.1319 475.912 19.4212L477.556 18.2828ZM476.582 15.012C476.582 13.2567 477.195 11.882 478.419 10.8018L477.096 9.30216C475.419 10.782 474.582 12.7139 474.582 15.012H476.582ZM478.426 10.7964C479.647 9.7004 481.349 9.1 483.646 9.1V7.1C480.993 7.1 478.77 7.80093 477.09 9.30762L478.426 10.7964ZM483.646 9.1H494.174V7.1H483.646V9.1ZM493.174 8.1V30.5H495.174V8.1H493.174ZM494.174 29.5H488.414V31.5H494.174V29.5ZM489.414 30.5V21.956H487.414V30.5H489.414ZM488.414 20.956H486.046V22.956H488.414V20.956ZM485.244 21.3584L478.876 29.9024L480.48 31.0976L486.848 22.5536L485.244 21.3584ZM483.966 18.252H488.414V16.252H483.966V18.252ZM489.414 17.252V12.964H487.414V17.252H489.414ZM488.414 11.964H483.966V13.964H488.414V11.964ZM483.966 11.964C483.004 11.964 482.12 12.214 481.424 12.8152L482.731 14.3288C482.974 14.1194 483.349 13.964 483.966 13.964V11.964ZM481.427 12.8127C480.729 13.411 480.406 14.2263 480.406 15.14H482.406C482.406 14.7311 482.531 14.501 482.729 14.3313L481.427 12.8127ZM480.406 15.14C480.406 16.0537 480.729 16.869 481.427 17.4673L482.729 15.9487C482.531 15.779 482.406 15.5489 482.406 15.14H480.406ZM481.466 17.4993C482.161 18.036 483.028 18.252 483.966 18.252V16.252C483.325 16.252 482.933 16.1053 482.689 15.9167L481.466 17.4993ZM505.835 30.5V31.5H506.835V30.5H505.835ZM500.075 30.5H499.075V31.5H500.075V30.5ZM500.075 8.1V7.1H499.075V8.1H500.075ZM505.835 8.1H506.835V7.1H505.835V8.1ZM505.835 16.068H504.835V17.068H505.835V16.068ZM514.283 16.068V17.068H515.283V16.068H514.283ZM514.283 8.1V7.1H513.283V8.1H514.283ZM520.043 8.1H521.043V7.1H520.043V8.1ZM520.043 30.5V31.5H521.043V30.5H520.043ZM514.283 30.5H513.283V31.5H514.283V30.5ZM514.283 21.188H515.283V20.188H514.283V21.188ZM505.835 21.188V20.188H504.835V21.188H505.835ZM505.835 29.5H500.075V31.5H505.835V29.5ZM501.075 30.5V8.1H499.075V30.5H501.075ZM500.075 9.1H505.835V7.1H500.075V9.1ZM504.835 8.1V16.068H506.835V8.1H504.835ZM505.835 17.068H514.283V15.068H505.835V17.068ZM515.283 16.068V8.1H513.283V16.068H515.283ZM514.283 9.1H520.043V7.1H514.283V9.1ZM519.043 8.1V30.5H521.043V8.1H519.043ZM520.043 29.5H514.283V31.5H520.043V29.5ZM515.283 30.5V21.188H513.283V30.5H515.283ZM514.283 20.188H505.835V22.188H514.283V20.188ZM504.835 21.188V30.5H506.835V21.188H504.835ZM531.685 30.5V31.5H532.685V30.5H531.685ZM525.925 30.5H524.925V31.5H525.925V30.5ZM525.925 8.1V7.1H524.925V8.1H525.925ZM531.685 8.1H532.685V7.1H531.685V8.1ZM531.685 16.068H530.685V17.068H531.685V16.068ZM540.133 16.068V17.068H541.133V16.068H540.133ZM540.133 8.1V7.1H539.133V8.1H540.133ZM545.893 8.1H546.893V7.1H545.893V8.1ZM545.893 30.5V31.5H546.893V30.5H545.893ZM540.133 30.5H539.133V31.5H540.133V30.5ZM540.133 21.188H541.133V20.188H540.133V21.188ZM531.685 21.188V20.188H530.685V21.188H531.685ZM531.685 29.5H525.925V31.5H531.685V29.5ZM526.925 30.5V8.1H524.925V30.5H526.925ZM525.925 9.1H531.685V7.1H525.925V9.1ZM530.685 8.1V16.068H532.685V8.1H530.685ZM531.685 17.068H540.133V15.068H531.685V17.068ZM541.133 16.068V8.1H539.133V16.068H541.133ZM540.133 9.1H545.893V7.1H540.133V9.1ZM544.893 8.1V30.5H546.893V8.1H544.893ZM545.893 29.5H540.133V31.5H545.893V29.5ZM541.133 30.5V21.188H539.133V30.5H541.133ZM540.133 20.188H531.685V22.188H540.133V20.188ZM530.685 21.188V30.5H532.685V21.188H530.685ZM551.775 30.5H550.775V31.5H551.775V30.5ZM551.775 8.1V7.1H550.775V8.1H551.775ZM557.535 8.1H558.535V7.1H557.535V8.1ZM557.535 15.012H556.535V16.012H557.535V15.012ZM567.359 17.188L566.697 17.9376L567.359 17.188ZM567.391 28.356L566.73 27.6059V27.6059L567.391 28.356ZM557.535 19.684V18.684H556.535V19.684H557.535ZM557.535 25.572H556.535V26.572H557.535V25.572ZM563.039 24.804L563.677 25.5744L563.679 25.5722L563.039 24.804ZM563.039 20.484L562.386 21.2414L562.393 21.2469L562.399 21.2522L563.039 20.484ZM577.887 30.5V31.5H578.887V30.5H577.887ZM572.127 30.5H571.127V31.5H572.127V30.5ZM572.127 8.1V7.1H571.127V8.1H572.127ZM577.887 8.1H578.887V7.1H577.887V8.1ZM560.831 29.5H551.775V31.5H560.831V29.5ZM552.775 30.5V8.1H550.775V30.5H552.775ZM551.775 9.1H557.535V7.1H551.775V9.1ZM556.535 8.1V15.012H558.535V8.1H556.535ZM557.535 16.012H560.831V14.012H557.535V16.012ZM560.831 16.012C563.357 16.012 565.278 16.684 566.697 17.9376L568.021 16.4384C566.155 14.7907 563.724 14.012 560.831 14.012V16.012ZM566.697 17.9376C568.115 19.1896 568.823 20.7785 568.823 22.788H570.823C570.823 20.2321 569.889 18.0877 568.021 16.4384L566.697 17.9376ZM568.823 22.788C568.823 24.8019 568.123 26.3781 566.73 27.6059L568.053 29.1061C569.903 27.4752 570.823 25.3395 570.823 22.788H568.823ZM566.73 27.6059C565.337 28.834 563.408 29.5 560.831 29.5V31.5C563.758 31.5 566.203 30.7367 568.053 29.1061L566.73 27.6059ZM556.535 19.684V25.572H558.535V19.684H556.535ZM557.535 26.572H560.479V24.572H557.535V26.572ZM560.479 26.572C561.717 26.572 562.824 26.2801 563.677 25.5744L562.402 24.0336C562.017 24.3519 561.417 24.572 560.479 24.572V26.572ZM563.679 25.5722C564.566 24.8331 564.999 23.8272 564.999 22.66H562.999C562.999 23.2848 562.792 23.7082 562.399 24.0358L563.679 25.5722ZM564.999 22.66C564.999 21.4799 564.572 20.4598 563.679 19.7158L562.399 21.2522C562.786 21.5748 562.999 22.0055 562.999 22.66H564.999ZM563.692 19.7266C562.839 18.9912 561.726 18.684 560.479 18.684V20.684C561.408 20.684 562.002 20.9101 562.386 21.2414L563.692 19.7266ZM560.479 18.684H557.535V20.684H560.479V18.684ZM577.887 29.5H572.127V31.5H577.887V29.5ZM573.127 30.5V8.1H571.127V30.5H573.127ZM572.127 9.1H577.887V7.1H572.127V9.1ZM576.887 8.1V30.5H578.887V8.1H576.887ZM588.614 30.5V31.5H589.119L589.419 31.0932L588.614 30.5ZM583.782 30.5H582.782V31.5H583.782V30.5ZM583.782 8.1V7.1H582.782V8.1H583.782ZM589.542 8.1H590.542V7.1H589.542V8.1ZM589.542 20.74H588.542V23.8003L590.349 21.3305L589.542 20.74ZM598.79 8.1V7.1H598.282L597.982 7.50952L598.79 8.1ZM603.782 8.1H604.782V7.1H603.782V8.1ZM603.782 30.5V31.5H604.782V30.5H603.782ZM598.022 30.5H597.022V31.5H598.022V30.5ZM598.022 17.732H599.022V14.6891L597.216 17.1388L598.022 17.732ZM587.717 1.316V0.315998H586.693L586.718 1.34038L587.717 1.316ZM591.59 1.316L592.589 1.28154L592.556 0.315998H591.59V1.316ZM592.166 2.788L591.458 3.49511L591.469 3.5052L591.479 3.51501L592.166 2.788ZM595.27 2.788L594.583 2.06098L594.573 2.07079L594.562 2.08089L595.27 2.788ZM595.878 1.316V0.315998H594.911L594.878 1.28154L595.878 1.316ZM599.814 1.316L600.813 1.34009L600.838 0.315998H599.814V1.316ZM598.054 5.444L597.398 4.68874L597.39 4.69581L598.054 5.444ZM589.446 5.444L588.775 6.18587L588.785 6.1952L588.796 6.20423L589.446 5.444ZM588.614 29.5H583.782V31.5H588.614V29.5ZM584.782 30.5V8.1H582.782V30.5H584.782ZM583.782 9.1H589.542V7.1H583.782V9.1ZM588.542 8.1V20.74H590.542V8.1H588.542ZM590.349 21.3305L599.597 8.69048L597.982 7.50952L588.734 20.1495L590.349 21.3305ZM598.79 9.1H603.782V7.1H598.79V9.1ZM602.782 8.1V30.5H604.782V8.1H602.782ZM603.782 29.5H598.022V31.5H603.782V29.5ZM599.022 30.5V17.732H597.022V30.5H599.022ZM597.216 17.1388L587.808 29.9068L589.419 31.0932L598.827 18.3252L597.216 17.1388ZM587.717 2.316H591.59V0.315998H587.717V2.316ZM590.59 1.35046C590.618 2.16688 590.881 2.91766 591.458 3.49511L592.873 2.08089C592.725 1.93301 592.603 1.70245 592.589 1.28154L590.59 1.35046ZM591.479 3.51501C592.092 4.09435 592.884 4.332 593.734 4.332V2.332C593.26 2.332 593.007 2.20699 592.852 2.06099L591.479 3.51501ZM593.734 4.332C594.58 4.332 595.376 4.0953 595.977 3.49511L594.562 2.08089C594.437 2.20603 594.21 2.332 593.734 2.332V4.332ZM595.956 3.51501C596.564 2.94074 596.848 2.18345 596.877 1.35046L594.878 1.28154C594.864 1.68588 594.743 1.90992 594.583 2.06098L595.956 3.51501ZM595.878 2.316H599.814V0.315998H595.878V2.316ZM598.814 1.29191C598.777 2.83748 598.277 3.92576 597.398 4.68878L598.709 6.19922C600.091 4.99957 600.765 3.33585 600.813 1.34009L598.814 1.29191ZM597.39 4.69581C596.468 5.51302 595.286 5.948 593.766 5.948V7.948C595.701 7.948 597.377 7.38031 598.717 6.19219L597.39 4.69581ZM593.766 5.948C592.27 5.948 591.068 5.515 590.095 4.68377L588.796 6.20423C590.17 7.37833 591.848 7.948 593.766 7.948V5.948ZM590.116 4.70212C589.245 3.91485 588.754 2.81753 588.717 1.29162L586.718 1.34038C586.766 3.31313 587.427 4.96782 588.775 6.18587L590.116 4.70212ZM331.132 72.5V73.5H332.132V72.5H331.132ZM325.372 72.5H324.372V73.5H325.372V72.5ZM325.372 50.1V49.1H324.372V50.1H325.372ZM344.764 50.1H345.764V49.1H344.764V50.1ZM344.764 72.5V73.5H345.764V72.5H344.764ZM339.004 72.5H338.004V73.5H339.004V72.5ZM339.004 55.156H340.004V54.156H339.004V55.156ZM331.132 55.156V54.156H330.132V55.156H331.132ZM331.132 71.5H325.372V73.5H331.132V71.5ZM326.372 72.5V50.1H324.372V72.5H326.372ZM325.372 51.1H344.764V49.1H325.372V51.1ZM343.764 50.1V72.5H345.764V50.1H343.764ZM344.764 71.5H339.004V73.5H344.764V71.5ZM340.004 72.5V55.156H338.004V72.5H340.004ZM339.004 54.156H331.132V56.156H339.004V54.156ZM330.132 55.156V72.5H332.132V55.156H330.132ZM357.54 65.844L356.813 66.531L356.813 66.5314L357.54 65.844ZM365.956 65.844L365.229 65.1566L365.956 65.844ZM365.956 56.756L365.229 57.4434L365.956 56.756ZM357.54 56.756L356.813 56.0686L356.813 56.069L357.54 56.756ZM370.212 69.556L369.501 68.8523L370.212 69.556ZM353.316 69.556L352.605 70.2597L353.316 69.556ZM353.316 53.044L352.605 52.3403L353.316 53.044ZM356.813 66.5314C358.138 67.9311 359.811 68.636 361.764 68.636V66.636C360.345 66.636 359.203 66.1462 358.266 65.1566L356.813 66.5314ZM361.764 68.636C363.699 68.636 365.36 67.9282 366.682 66.5314L365.229 65.1566C364.29 66.1491 363.156 66.636 361.764 66.636V68.636ZM366.682 66.5314C368.009 65.129 368.652 63.3583 368.652 61.3H366.652C366.652 62.911 366.163 64.1697 365.229 65.1566L366.682 66.5314ZM368.652 61.3C368.652 59.2416 368.009 57.471 366.682 56.0686L365.229 57.4434C366.163 58.4303 366.652 59.689 366.652 61.3H368.652ZM366.682 56.0686C365.36 54.6718 363.699 53.964 361.764 53.964V55.964C363.156 55.964 364.29 56.4509 365.229 57.4434L366.682 56.0686ZM361.764 53.964C359.811 53.964 358.138 54.6689 356.813 56.0686L358.266 57.4434C359.203 56.4538 360.345 55.964 361.764 55.964V53.964ZM356.813 56.069C355.502 57.4558 354.876 59.2295 354.876 61.3H356.876C356.876 59.6585 357.359 58.4028 358.266 57.443L356.813 56.069ZM354.876 61.3C354.876 63.3705 355.502 65.1442 356.813 66.531L358.266 65.157C357.359 64.1972 356.876 62.9415 356.876 61.3H354.876ZM369.501 68.8523C367.462 70.9106 364.908 71.948 361.764 71.948V73.948C365.403 73.948 368.481 72.7241 370.922 70.2597L369.501 68.8523ZM361.764 71.948C358.619 71.948 356.065 70.9106 354.026 68.8523L352.605 70.2597C355.046 72.7241 358.124 73.948 361.764 73.948V71.948ZM354.026 68.8523C351.975 66.7821 350.956 64.2846 350.956 61.3H348.956C348.956 64.8007 350.176 67.8073 352.605 70.2597L354.026 68.8523ZM350.956 61.3C350.956 58.3154 351.975 55.8179 354.026 53.7477L352.605 52.3403C350.176 54.7927 348.956 57.7993 348.956 61.3H350.956ZM354.026 53.7477C356.065 51.6894 358.619 50.652 361.764 50.652V48.652C358.124 48.652 355.046 49.8759 352.605 52.3403L354.026 53.7477ZM361.764 50.652C364.908 50.652 367.462 51.6894 369.501 53.7477L370.922 52.3403C368.481 49.8759 365.403 48.652 361.764 48.652V50.652ZM369.501 53.7477C371.552 55.8179 372.572 58.3154 372.572 61.3H374.572C374.572 57.7993 373.351 54.7927 370.922 52.3403L369.501 53.7477ZM372.572 61.3C372.572 64.2846 371.552 66.7821 369.501 68.8523L370.922 70.2597C373.351 67.8073 374.572 64.8007 374.572 61.3H372.572ZM388.398 72.5V73.5H389.398V72.5H388.398ZM382.638 72.5H381.638V73.5H382.638V72.5ZM382.638 55.156H383.638V54.156H382.638V55.156ZM375.918 55.156H374.918V56.156H375.918V55.156ZM375.918 50.1V49.1H374.918V50.1H375.918ZM395.15 50.1H396.15V49.1H395.15V50.1ZM395.15 55.156V56.156H396.15V55.156H395.15ZM388.398 55.156V54.156H387.398V55.156H388.398ZM388.398 71.5H382.638V73.5H388.398V71.5ZM383.638 72.5V55.156H381.638V72.5H383.638ZM382.638 54.156H375.918V56.156H382.638V54.156ZM376.918 55.156V50.1H374.918V55.156H376.918ZM375.918 51.1H395.15V49.1H375.918V51.1ZM394.15 50.1V55.156H396.15V50.1H394.15ZM395.15 54.156H388.398V56.156H395.15V54.156ZM387.398 55.156V72.5H389.398V55.156H387.398ZM405.083 65.844L404.357 66.531L404.357 66.5314L405.083 65.844ZM413.499 65.844L412.773 65.1566L413.499 65.844ZM413.499 56.756L412.773 57.4434L413.499 56.756ZM405.083 56.756L404.357 56.0686L404.357 56.069L405.083 56.756ZM417.755 69.556L417.045 68.8523L417.755 69.556ZM400.859 69.556L400.149 70.2597L400.859 69.556ZM400.859 53.044L400.149 52.3403L400.859 53.044ZM404.357 66.5314C405.682 67.9311 407.355 68.636 409.307 68.636V66.636C407.889 66.636 406.746 66.1462 405.81 65.1566L404.357 66.5314ZM409.307 68.636C411.243 68.636 412.904 67.9282 414.226 66.5314L412.773 65.1566C411.834 66.1491 410.7 66.636 409.307 66.636V68.636ZM414.226 66.5314C415.553 65.129 416.195 63.3583 416.195 61.3H414.195C414.195 62.911 413.707 64.1697 412.773 65.1566L414.226 66.5314ZM416.195 61.3C416.195 59.2416 415.553 57.471 414.226 56.0686L412.773 57.4434C413.707 58.4303 414.195 59.689 414.195 61.3H416.195ZM414.226 56.0686C412.904 54.6718 411.243 53.964 409.307 53.964V55.964C410.7 55.964 411.834 56.4509 412.773 57.4434L414.226 56.0686ZM409.307 53.964C407.355 53.964 405.682 54.6689 404.357 56.0686L405.81 57.4434C406.746 56.4538 407.889 55.964 409.307 55.964V53.964ZM404.357 56.069C403.046 57.4558 402.419 59.2295 402.419 61.3H404.419C404.419 59.6585 404.903 58.4028 405.81 57.443L404.357 56.069ZM402.419 61.3C402.419 63.3705 403.046 65.1442 404.357 66.531L405.81 65.157C404.903 64.1972 404.419 62.9415 404.419 61.3H402.419ZM417.045 68.8523C415.006 70.9106 412.452 71.948 409.307 71.948V73.948C412.947 73.948 416.025 72.7241 418.466 70.2597L417.045 68.8523ZM409.307 71.948C406.163 71.948 403.609 70.9106 401.57 68.8523L400.149 70.2597C402.59 72.7241 405.668 73.948 409.307 73.948V71.948ZM401.57 68.8523C399.519 66.7821 398.499 64.2846 398.499 61.3H396.499C396.499 64.8007 397.72 67.8073 400.149 70.2597L401.57 68.8523ZM398.499 61.3C398.499 58.3154 399.519 55.8179 401.57 53.7477L400.149 52.3403C397.72 54.7927 396.499 57.7993 396.499 61.3H398.499ZM401.57 53.7477C403.609 51.6894 406.163 50.652 409.307 50.652V48.652C405.668 48.652 402.59 49.8759 400.149 52.3403L401.57 53.7477ZM409.307 50.652C412.452 50.652 415.006 51.6894 417.045 53.7477L418.466 52.3403C416.025 49.8759 412.947 48.652 409.307 48.652V50.652ZM417.045 53.7477C419.096 55.8179 420.115 58.3154 420.115 61.3H422.115C422.115 57.7993 420.895 54.7927 418.466 52.3403L417.045 53.7477ZM420.115 61.3C420.115 64.2846 419.096 66.7821 417.045 68.8523L418.466 70.2597C420.895 67.8073 422.115 64.8007 422.115 61.3H420.115ZM432.063 72.5V73.5H433.063V72.5H432.063ZM426.303 72.5H425.303V73.5H426.303V72.5ZM426.303 50.1V49.1H425.303V50.1H426.303ZM432.063 50.1H433.063V49.1H432.063V50.1ZM432.063 58.644H431.063V61.3641L432.825 59.2917L432.063 58.644ZM439.327 50.1V49.1H438.865L438.566 49.4523L439.327 50.1ZM446.239 50.1L447.004 50.7439L448.388 49.1H446.239V50.1ZM437.567 60.404L436.802 59.7601L436.258 60.4069L436.805 61.0513L437.567 60.404ZM447.839 72.5V73.5H450.001L448.602 71.8527L447.839 72.5ZM440.831 72.5L440.081 73.1611L440.38 73.5H440.831V72.5ZM432.063 62.548L432.814 61.8869L431.063 59.9002V62.548H432.063ZM432.063 71.5H426.303V73.5H432.063V71.5ZM427.303 72.5V50.1H425.303V72.5H427.303ZM426.303 51.1H432.063V49.1H426.303V51.1ZM431.063 50.1V58.644H433.063V50.1H431.063ZM432.825 59.2917L440.089 50.7477L438.566 49.4523L431.301 57.9963L432.825 59.2917ZM439.327 51.1H446.239V49.1H439.327V51.1ZM445.474 49.4561L436.802 59.7601L438.332 61.0479L447.004 50.7439L445.474 49.4561ZM436.805 61.0513L447.077 73.1473L448.602 71.8527L438.33 59.7567L436.805 61.0513ZM447.839 71.5H440.831V73.5H447.839V71.5ZM441.582 71.8389L432.814 61.8869L431.313 63.2091L440.081 73.1611L441.582 71.8389ZM431.063 62.548V72.5H433.063V62.548H431.063ZM459.945 70.74H458.945V71.2679L459.381 71.5657L459.945 70.74ZM459.945 65.236L460.553 64.4421L458.945 63.2104V65.236H459.945ZM463.497 67.06L463.185 68.0102L463.194 68.0131L463.203 68.0158L463.497 67.06ZM470.921 67.028L471.405 67.9032L471.414 67.8984L471.422 67.8934L470.921 67.028ZM465.289 63.092H464.289V64.092H465.289V63.092ZM465.289 58.516V57.516H464.289V58.516H465.289ZM470.761 55.316L470.289 56.1975L470.295 56.2009L470.302 56.2042L470.761 55.316ZM460.745 56.628H459.745V58.28L461.209 57.514L460.745 56.628ZM460.745 51.668L460.265 50.791L459.745 51.0756V51.668H460.745ZM474.985 51.54L474.372 52.3299L474.378 52.3349L474.985 51.54ZM474.697 60.596L474.24 59.7064L472.451 60.6252L474.264 61.4971L474.697 60.596ZM475.433 70.9L476.048 71.6883L476.05 71.6873L475.433 70.9ZM468.329 71.948C465.033 71.948 462.452 71.2418 460.509 69.9143L459.381 71.5657C461.747 73.1822 464.756 73.948 468.329 73.948V71.948ZM460.945 70.74V65.236H458.945V70.74H460.945ZM459.337 66.0299C460.44 66.875 461.728 67.5319 463.185 68.0102L463.809 66.1098C462.536 65.6921 461.455 65.133 460.553 64.4421L459.337 66.0299ZM463.203 68.0158C464.674 68.4684 466.117 68.7 467.529 68.7V66.7C466.338 66.7 465.093 66.5049 463.791 66.1042L463.203 68.0158ZM467.529 68.7C469.062 68.7 470.385 68.4667 471.405 67.9032L470.437 66.1528C469.836 66.4853 468.897 66.7 467.529 66.7V68.7ZM471.422 67.8934C472.484 67.2785 473.137 66.3372 473.137 65.108H471.137C471.137 65.5002 470.979 65.8388 470.42 66.1626L471.422 67.8934ZM473.137 65.108C473.137 64.5986 473.008 64.108 472.721 63.6744C472.438 63.2466 472.04 62.9311 471.587 62.703C470.711 62.2612 469.522 62.092 468.137 62.092V64.092C469.419 64.092 470.23 64.2588 470.687 64.489C470.901 64.5969 471.003 64.7014 471.053 64.7776C471.1 64.848 471.137 64.9454 471.137 65.108H473.137ZM468.137 62.092H465.289V64.092H468.137V62.092ZM466.289 63.092V58.516H464.289V63.092H466.289ZM465.289 59.516H468.809V57.516H465.289V59.516ZM468.809 59.516C469.844 59.516 470.793 59.355 471.511 58.8926C472.304 58.3815 472.689 57.5847 472.689 56.66H470.689C470.689 56.9726 470.594 57.1038 470.427 57.2114C470.185 57.3677 469.694 57.516 468.809 57.516V59.516ZM472.689 56.66C472.689 55.6246 472.088 54.8763 471.221 54.4278L470.302 56.2042C470.672 56.3957 470.689 56.5434 470.689 56.66H472.689ZM471.233 54.4345C470.424 54.0011 469.367 53.836 468.169 53.836V55.836C469.232 55.836 469.903 55.9909 470.289 56.1975L471.233 54.4345ZM468.169 53.836C465.347 53.836 462.712 54.4698 460.281 55.742L461.209 57.514C463.343 56.3969 465.658 55.836 468.169 55.836V53.836ZM461.745 56.628V51.668H459.745V56.628H461.745ZM461.226 52.545C463.538 51.2783 465.944 50.652 468.457 50.652V48.652C465.594 48.652 462.859 49.3697 460.265 50.791L461.226 52.545ZM468.457 50.652C471.039 50.652 472.976 51.2464 474.372 52.3299L475.598 50.7501C473.751 49.3163 471.337 48.652 468.457 48.652V50.652ZM474.378 52.3349C475.767 53.3943 476.417 54.6964 476.417 56.308H478.417C478.417 54.0369 477.446 52.1604 475.592 50.745L474.378 52.3349ZM476.417 56.308C476.417 57.079 476.215 57.7326 475.824 58.3025L477.474 59.4335C478.107 58.5101 478.417 57.457 478.417 56.308H476.417ZM475.824 58.3025C475.404 58.9152 474.879 59.3785 474.24 59.7064L475.154 61.4856C476.094 61.0028 476.87 60.3142 477.474 59.4335L475.824 58.3025ZM474.264 61.4971C475.265 61.9792 475.958 62.5737 476.404 63.2555C476.848 63.9339 477.089 64.7612 477.089 65.78H479.089C479.089 64.4308 478.765 63.2101 478.078 62.1605C477.393 61.1143 476.39 60.3008 475.131 59.6949L474.264 61.4971ZM477.089 65.78C477.089 67.4627 476.376 68.8918 474.817 70.1127L476.05 71.6873C478.032 70.1348 479.089 68.1507 479.089 65.78H477.089ZM474.818 70.1117C473.296 71.2991 471.17 71.948 468.329 71.948V73.948C471.462 73.948 474.071 73.2315 476.048 71.6883L474.818 70.1117ZM486.578 72.5V73.5H487.256L487.507 72.8703L486.578 72.5ZM480.498 72.5L479.575 72.1146L478.997 73.5H480.498V72.5ZM489.906 49.972V48.972H489.24L488.983 49.5866L489.906 49.972ZM495.442 49.972L496.365 49.5866L496.108 48.972H495.442V49.972ZM504.85 72.5V73.5H506.351L505.773 72.1146L504.85 72.5ZM498.674 72.5L497.745 72.8703L497.996 73.5H498.674V72.5ZM496.786 67.764L497.715 67.3937L497.464 66.764H496.786V67.764ZM488.466 67.764V66.764H487.788L487.537 67.3937L488.466 67.764ZM492.626 57.172L493.558 56.8083L492.626 54.4221L491.695 56.8083L492.626 57.172ZM490.29 63.156L489.359 62.7924L488.826 64.156H490.29V63.156ZM494.962 63.156V64.156H496.426L495.894 62.7924L494.962 63.156ZM486.578 71.5H480.498V73.5H486.578V71.5ZM481.421 72.8854L490.829 50.3574L488.983 49.5866L479.575 72.1146L481.421 72.8854ZM489.906 50.972H495.442V48.972H489.906V50.972ZM494.519 50.3574L503.927 72.8854L505.773 72.1146L496.365 49.5866L494.519 50.3574ZM504.85 71.5H498.674V73.5H504.85V71.5ZM499.603 72.1297L497.715 67.3937L495.857 68.1343L497.745 72.8703L499.603 72.1297ZM496.786 66.764H488.466V68.764H496.786V66.764ZM487.537 67.3937L485.649 72.1297L487.507 72.8703L489.395 68.1343L487.537 67.3937ZM491.695 56.8083L489.359 62.7924L491.222 63.5196L493.558 57.5356L491.695 56.8083ZM490.29 64.156H494.962V62.156H490.29V64.156ZM495.894 62.7924L493.558 56.8083L491.695 57.5356L494.031 63.5196L495.894 62.7924ZM514.682 72.5V73.5H515.682V72.5H514.682ZM508.922 72.5H507.922V73.5H508.922V72.5ZM508.922 50.1V49.1H507.922V50.1H508.922ZM514.682 50.1H515.682V49.1H514.682V50.1ZM514.682 58.644H513.682V61.3641L515.444 59.2917L514.682 58.644ZM521.946 50.1V49.1H521.484L521.184 49.4523L521.946 50.1ZM528.858 50.1L529.623 50.7439L531.007 49.1H528.858V50.1ZM520.186 60.404L519.421 59.7601L518.877 60.4069L519.424 61.0513L520.186 60.404ZM530.458 72.5V73.5H532.619L531.22 71.8527L530.458 72.5ZM523.45 72.5L522.7 73.1611L522.998 73.5H523.45V72.5ZM514.682 62.548L515.432 61.8869L513.682 59.9002V62.548H514.682ZM514.682 71.5H508.922V73.5H514.682V71.5ZM509.922 72.5V50.1H507.922V72.5H509.922ZM508.922 51.1H514.682V49.1H508.922V51.1ZM513.682 50.1V58.644H515.682V50.1H513.682ZM515.444 59.2917L522.708 50.7477L521.184 49.4523L513.92 57.9963L515.444 59.2917ZM521.946 51.1H528.858V49.1H521.946V51.1ZM528.093 49.4561L519.421 59.7601L520.951 61.0479L529.623 50.7439L528.093 49.4561ZM519.424 61.0513L529.696 73.1473L531.22 71.8527L520.948 59.7567L519.424 61.0513ZM530.458 71.5H523.45V73.5H530.458V71.5ZM524.2 71.8389L515.432 61.8869L513.932 63.2091L522.7 73.1611L524.2 71.8389ZM513.682 62.548V72.5H515.682V62.548H513.682ZM538.309 72.5V73.5H538.987L539.238 72.8703L538.309 72.5ZM532.229 72.5L531.307 72.1146L530.728 73.5H532.229V72.5ZM541.637 49.972V48.972H540.971L540.715 49.5866L541.637 49.972ZM547.173 49.972L548.096 49.5866L547.839 48.972H547.173V49.972ZM556.581 72.5V73.5H558.083L557.504 72.1146L556.581 72.5ZM550.405 72.5L549.476 72.8703L549.727 73.5H550.405V72.5ZM548.517 67.764L549.446 67.3937L549.195 66.764H548.517V67.764ZM540.197 67.764V66.764H539.519L539.268 67.3937L540.197 67.764ZM544.357 57.172L545.289 56.8083L544.357 54.4221L543.426 56.8083L544.357 57.172ZM542.021 63.156L541.09 62.7924L540.557 64.156H542.021V63.156ZM546.693 63.156V64.156H548.157L547.625 62.7924L546.693 63.156ZM538.309 71.5H532.229V73.5H538.309V71.5ZM533.152 72.8854L542.56 50.3574L540.715 49.5866L531.307 72.1146L533.152 72.8854ZM541.637 50.972H547.173V48.972H541.637V50.972ZM546.251 50.3574L555.659 72.8854L557.504 72.1146L548.096 49.5866L546.251 50.3574ZM556.581 71.5H550.405V73.5H556.581V71.5ZM551.334 72.1297L549.446 67.3937L547.588 68.1343L549.476 72.8703L551.334 72.1297ZM548.517 66.764H540.197V68.764H548.517V66.764ZM539.268 67.3937L537.38 72.1297L539.238 72.8703L541.126 68.1343L539.268 67.3937ZM543.426 56.8083L541.09 62.7924L542.953 63.5196L545.289 57.5356L543.426 56.8083ZM542.021 64.156H546.693V62.156H542.021V64.156ZM547.625 62.7924L545.289 56.8083L543.426 57.5356L545.762 63.5196L547.625 62.7924ZM559.501 70.74H558.501V71.2679L558.937 71.5657L559.501 70.74ZM559.501 65.236L560.109 64.4421L558.501 63.2104V65.236H559.501ZM563.053 67.06L562.742 68.0102L562.75 68.0131L562.759 68.0158L563.053 67.06ZM570.477 67.028L570.961 67.9032L570.97 67.8984L570.978 67.8934L570.477 67.028ZM564.845 63.092H563.845V64.092H564.845V63.092ZM564.845 58.516V57.516H563.845V58.516H564.845ZM570.317 55.316L569.845 56.1975L569.852 56.2009L569.858 56.2042L570.317 55.316ZM560.301 56.628H559.301V58.28L560.765 57.514L560.301 56.628ZM560.301 51.668L559.821 50.791L559.301 51.0756V51.668H560.301ZM574.541 51.54L573.928 52.3299L573.935 52.3349L574.541 51.54ZM574.253 60.596L573.797 59.7064L572.007 60.6252L573.82 61.4971L574.253 60.596ZM574.989 70.9L575.605 71.6883L575.606 71.6873L574.989 70.9ZM567.885 71.948C564.589 71.948 562.009 71.2418 560.065 69.9143L558.937 71.5657C561.303 73.1822 564.312 73.948 567.885 73.948V71.948ZM560.501 70.74V65.236H558.501V70.74H560.501ZM558.893 66.0299C559.997 66.875 561.284 67.5319 562.742 68.0102L563.365 66.1098C562.092 65.6921 561.011 65.133 560.109 64.4421L558.893 66.0299ZM562.759 68.0158C564.23 68.4684 565.674 68.7 567.085 68.7V66.7C565.894 66.7 564.65 66.5049 563.347 66.1042L562.759 68.0158ZM567.085 68.7C568.618 68.7 569.941 68.4667 570.961 67.9032L569.994 66.1528C569.392 66.4853 568.454 66.7 567.085 66.7V68.7ZM570.978 67.8934C572.041 67.2785 572.693 66.3372 572.693 65.108H570.693C570.693 65.5002 570.536 65.8388 569.976 66.1626L570.978 67.8934ZM572.693 65.108C572.693 64.5986 572.564 64.108 572.277 63.6744C571.995 63.2466 571.596 62.9311 571.143 62.703C570.267 62.2612 569.078 62.092 567.693 62.092V64.092C568.975 64.092 569.787 64.2588 570.243 64.489C570.457 64.5969 570.559 64.7014 570.609 64.7776C570.656 64.848 570.693 64.9454 570.693 65.108H572.693ZM567.693 62.092H564.845V64.092H567.693V62.092ZM565.845 63.092V58.516H563.845V63.092H565.845ZM564.845 59.516H568.365V57.516H564.845V59.516ZM568.365 59.516C569.401 59.516 570.35 59.355 571.067 58.8926C571.86 58.3815 572.245 57.5847 572.245 56.66H570.245C570.245 56.9726 570.151 57.1038 569.984 57.2114C569.741 57.3677 569.25 57.516 568.365 57.516V59.516ZM572.245 56.66C572.245 55.6246 571.644 54.8763 570.777 54.4278L569.858 56.2042C570.228 56.3957 570.245 56.5434 570.245 56.66H572.245ZM570.79 54.4345C569.98 54.0011 568.924 53.836 567.725 53.836V55.836C568.788 55.836 569.46 55.9909 569.845 56.1975L570.79 54.4345ZM567.725 53.836C564.903 53.836 562.269 54.4698 559.838 55.742L560.765 57.514C562.9 56.3969 565.214 55.836 567.725 55.836V53.836ZM561.301 56.628V51.668H559.301V56.628H561.301ZM560.782 52.545C563.094 51.2783 565.5 50.652 568.013 50.652V48.652C565.15 48.652 562.415 49.3697 559.821 50.791L560.782 52.545ZM568.013 50.652C570.595 50.652 572.532 51.2464 573.928 52.3299L575.155 50.7501C573.308 49.3163 570.893 48.652 568.013 48.652V50.652ZM573.935 52.3349C575.323 53.3943 575.973 54.6964 575.973 56.308H577.973C577.973 54.0369 577.003 52.1604 575.148 50.745L573.935 52.3349ZM575.973 56.308C575.973 57.079 575.771 57.7326 575.381 58.3025L577.03 59.4335C577.663 58.5101 577.973 57.457 577.973 56.308H575.973ZM575.381 58.3025C574.961 58.9152 574.435 59.3785 573.797 59.7064L574.71 61.4856C575.65 61.0028 576.426 60.3142 577.03 59.4335L575.381 58.3025ZM573.82 61.4971C574.822 61.9792 575.514 62.5737 575.961 63.2555C576.404 63.9339 576.645 64.7612 576.645 65.78H578.645C578.645 64.4308 578.321 63.2101 577.634 62.1605C576.95 61.1143 575.946 60.3008 574.687 59.6949L573.82 61.4971ZM576.645 65.78C576.645 67.4627 575.932 68.8918 574.373 70.1127L575.606 71.6873C577.588 70.1348 578.645 68.1507 578.645 65.78H576.645ZM574.374 70.1117C572.853 71.2991 570.726 71.948 567.885 71.948V73.948C571.018 73.948 573.627 73.2315 575.605 71.6883L574.374 70.1117ZM588.915 65.844L588.188 66.531L588.188 66.5314L588.915 65.844ZM597.331 65.844L596.604 65.1566L597.331 65.844ZM597.331 56.756L596.604 57.4434L597.331 56.756ZM588.915 56.756L588.188 56.0686L588.188 56.069L588.915 56.756ZM601.587 69.556L600.876 68.8523L601.587 69.556ZM584.691 69.556L583.98 70.2597L584.691 69.556ZM584.691 53.044L583.98 52.3403L584.691 53.044ZM588.188 66.5314C589.513 67.9311 591.186 68.636 593.139 68.636V66.636C591.72 66.636 590.578 66.1462 589.641 65.1566L588.188 66.5314ZM593.139 68.636C595.074 68.636 596.735 67.9282 598.057 66.5314L596.604 65.1566C595.665 66.1491 594.531 66.636 593.139 66.636V68.636ZM598.057 66.5314C599.384 65.129 600.027 63.3583 600.027 61.3H598.027C598.027 62.911 597.538 64.1697 596.604 65.1566L598.057 66.5314ZM600.027 61.3C600.027 59.2416 599.384 57.471 598.057 56.0686L596.604 57.4434C597.538 58.4303 598.027 59.689 598.027 61.3H600.027ZM598.057 56.0686C596.735 54.6718 595.074 53.964 593.139 53.964V55.964C594.531 55.964 595.665 56.4509 596.604 57.4434L598.057 56.0686ZM593.139 53.964C591.186 53.964 589.513 54.6689 588.188 56.0686L589.641 57.4434C590.578 56.4538 591.72 55.964 593.139 55.964V53.964ZM588.188 56.069C586.877 57.4558 586.251 59.2295 586.251 61.3H588.251C588.251 59.6585 588.734 58.4028 589.641 57.443L588.188 56.069ZM586.251 61.3C586.251 63.3705 586.877 65.1442 588.188 66.531L589.641 65.157C588.734 64.1972 588.251 62.9415 588.251 61.3H586.251ZM600.876 68.8523C598.837 70.9106 596.283 71.948 593.139 71.948V73.948C596.778 73.948 599.856 72.7241 602.297 70.2597L600.876 68.8523ZM593.139 71.948C589.994 71.948 587.44 70.9106 585.401 68.8523L583.98 70.2597C586.421 72.7241 589.499 73.948 593.139 73.948V71.948ZM585.401 68.8523C583.35 66.7821 582.331 64.2846 582.331 61.3H580.331C580.331 64.8007 581.551 67.8073 583.98 70.2597L585.401 68.8523ZM582.331 61.3C582.331 58.3154 583.35 55.8179 585.401 53.7477L583.98 52.3403C581.551 54.7927 580.331 57.7993 580.331 61.3H582.331ZM585.401 53.7477C587.44 51.6894 589.994 50.652 593.139 50.652V48.652C589.499 48.652 586.421 49.8759 583.98 52.3403L585.401 53.7477ZM593.139 50.652C596.283 50.652 598.837 51.6894 600.876 53.7477L602.297 52.3403C599.856 49.8759 596.778 48.652 593.139 48.652V50.652ZM600.876 53.7477C602.927 55.8179 603.947 58.3154 603.947 61.3H605.947C605.947 57.7993 604.726 54.7927 602.297 52.3403L600.876 53.7477ZM603.947 61.3C603.947 64.2846 602.927 66.7821 600.876 68.8523L602.297 70.2597C604.726 67.8073 605.947 64.8007 605.947 61.3H603.947ZM610.135 72.5H609.135V73.5H610.135V72.5ZM610.135 50.1V49.1H609.135V50.1H610.135ZM626.103 51.604L625.48 52.3862L625.487 52.3919L625.494 52.3976L626.103 51.604ZM627.255 58.452L626.423 57.8973L626.417 57.9054L626.412 57.9136L627.255 58.452ZM625.399 60.116L624.983 59.2065L622.308 60.4291L625.174 61.0904L625.399 60.116ZM628.343 62.068L627.568 62.7004L627.569 62.7021L628.343 62.068ZM627.447 70.74L626.816 69.9635L626.812 69.9671L627.447 70.74ZM615.895 62.932V61.932H614.895V62.932H615.895ZM615.895 67.7H614.895V68.7H615.895V67.7ZM622.583 67.092L623.22 67.863L623.223 67.8602L622.583 67.092ZM622.583 63.572L623.223 62.8038L622.583 63.572ZM615.895 54.772V53.772H614.895V54.772H615.895ZM615.895 58.676H614.895V59.676H615.895V58.676ZM621.847 58.164L621.222 57.3831L621.212 57.391L621.202 57.3991L621.847 58.164ZM621.847 55.316L621.18 56.0612L621.2 56.0796L621.222 56.0969L621.847 55.316ZM621.655 71.5H610.135V73.5H621.655V71.5ZM611.135 72.5V50.1H609.135V72.5H611.135ZM610.135 51.1H621.047V49.1H610.135V51.1ZM621.047 51.1C623.003 51.1 624.447 51.5633 625.48 52.3862L626.726 50.8218C625.241 49.6394 623.314 49.1 621.047 49.1V51.1ZM625.494 52.3976C626.498 53.1668 627.023 54.2434 627.023 55.764H629.023C629.023 53.7006 628.268 52.0038 626.711 50.8104L625.494 52.3976ZM627.023 55.764C627.023 56.613 626.813 57.3113 626.423 57.8973L628.087 59.0067C628.72 58.0567 629.023 56.963 629.023 55.764H627.023ZM626.412 57.9136C626.013 58.5379 625.536 58.9539 624.983 59.2065L625.814 61.0255C626.755 60.5955 627.515 59.9021 628.097 58.9904L626.412 57.9136ZM625.174 61.0904C626.029 61.2877 626.828 61.7939 627.568 62.7004L629.117 61.4356C628.151 60.2515 626.987 59.4563 625.624 59.1416L625.174 61.0904ZM627.569 62.7021C628.275 63.562 628.655 64.6604 628.655 66.068H630.655C630.655 64.2756 630.16 62.7073 629.116 61.4339L627.569 62.7021ZM628.655 66.068C628.655 67.6912 628.051 68.9616 626.816 69.9635L628.077 71.5165C629.786 70.1291 630.655 68.2848 630.655 66.068H628.655ZM626.812 69.9671C625.611 70.9528 623.929 71.5 621.655 71.5V73.5C624.244 73.5 626.423 72.8738 628.081 71.5129L626.812 69.9671ZM614.895 62.932V67.7H616.895V62.932H614.895ZM615.895 68.7H620.535V66.7H615.895V68.7ZM620.535 68.7C621.555 68.7 622.493 68.4634 623.22 67.863L621.946 66.321C621.691 66.5313 621.263 66.7 620.535 66.7V68.7ZM623.223 67.8602C623.992 67.2192 624.351 66.3352 624.351 65.332H622.351C622.351 65.8221 622.197 66.1114 621.942 66.3238L623.223 67.8602ZM624.351 65.332C624.351 64.3288 623.992 63.4448 623.223 62.8038L621.942 64.3402C622.197 64.5526 622.351 64.8419 622.351 65.332H624.351ZM623.223 62.8038C622.486 62.1895 621.555 61.932 620.535 61.932V63.932C621.221 63.932 621.656 64.1012 621.942 64.3402L623.223 62.8038ZM620.535 61.932H615.895V63.932H620.535V61.932ZM614.895 54.772V58.676H616.895V54.772H614.895ZM615.895 59.676H620.183V57.676H615.895V59.676ZM620.183 59.676C621.044 59.676 621.853 59.4658 622.491 58.9289L621.202 57.3991C621.029 57.5449 620.729 57.676 620.183 57.676V59.676ZM622.471 58.9449C623.159 58.3944 623.487 57.6248 623.487 56.756H621.487C621.487 57.0819 621.387 57.2509 621.222 57.3831L622.471 58.9449ZM623.487 56.756C623.487 55.879 623.169 55.0929 622.471 54.5351L621.222 56.0969C621.378 56.2217 621.487 56.3957 621.487 56.756H623.487ZM622.513 54.5708C621.876 54.0004 621.058 53.772 620.183 53.772V55.772C620.715 55.772 621.007 55.9062 621.18 56.0612L622.513 54.5708ZM620.183 53.772H615.895V55.772H620.183V53.772Z" fill="white"/>
</svg>
