<svg width="62" height="14" viewBox="0 0 62 14" fill="none" xmlns="http://www.w3.org/2000/svg">
<path d="M0.902825 5.20373C0.739241 4.98126 0.426279 4.93352 0.203804 5.0971C-0.0186698 5.26069 -0.0664096 5.57365 0.0971747 5.79613L0.902825 5.20373ZM59.3606 9.48C59.6258 9.55699 59.9032 9.40442 59.9802 9.13923L61.2348 4.81766C61.3118 4.55247 61.1592 4.27508 60.894 4.19809C60.6288 4.1211 60.3514 4.27367 60.2745 4.53886L59.1592 8.38025L55.3178 7.26502C55.0526 7.18803 54.7753 7.3406 54.6983 7.60579C54.6213 7.87098 54.7738 8.14838 55.039 8.22537L59.3606 9.48ZM0.0971747 5.79613C3.26772 10.1081 6.45164 12.3239 9.66115 13.1181C12.8665 13.9113 16.0125 13.265 19.0632 12.0257C22.1034 10.7906 25.1142 8.93689 28.0294 7.26991C30.9694 5.58882 33.8151 4.09528 36.6062 3.48851L36.3938 2.51134C33.4349 3.15458 30.4681 4.72353 27.5331 6.40181C24.5733 8.09421 21.6466 9.89679 18.6868 11.0992C15.7375 12.2974 12.821 12.8698 9.90135 12.1474C6.98586 11.4259 3.98228 9.39179 0.902825 5.20373L0.0971747 5.79613ZM36.6062 3.48851C39.4883 2.86196 42.0001 2.30397 44.2452 1.97107C46.4889 1.63838 48.4323 1.53634 50.1733 1.80649C53.5978 2.33786 56.36 4.32834 59.0619 9.24078L59.9381 8.75886C57.14 3.6714 54.1522 1.41192 50.3267 0.818319C48.4427 0.525991 46.3861 0.642704 44.0985 0.981889C41.8124 1.32087 39.2617 1.88788 36.3938 2.51134L36.6062 3.48851Z" fill="#757575"/>
</svg>
