<svg xmlns="http://www.w3.org/2000/svg" viewBox="0 0 512.076 512.076"><path d="M500.423 431.246l-26.027 43.349a53.764 53.764 0 0 1-17.749 18.091 49.628 49.628 0 0 1-13.397 5.888c-43.179 11.861-138.496 14.336-291.243-138.496S1.649 112.014 13.511 68.835a49.628 49.628 0 0 1 5.888-13.397A53.755 53.755 0 0 1 37.49 37.689l43.349-26.027c9.899-5.927 22.707-3.035 29.099 6.571l37.632 56.32 31.488 47.275c6.226 9.447 4.187 22.088-4.693 29.099l-10.411 8.107-28.416 22.016c-8.363 6.532-10.781 18.151-5.717 27.477 11.435 20.48 22.187 44.629 75.605 98.133s77.653 64.171 98.133 75.605c9.326 5.063 20.945 2.646 27.477-5.717l22.016-28.416 8.107-10.411c7.011-8.881 19.651-10.919 29.099-4.693l48.725 32.512 54.869 36.608c9.605 6.39 12.497 19.199 6.571 29.098z" fill="#558b30"/><path d="M483.356 448.312l-26.027 43.349c-.256.341-.427.683-.683 1.024a49.628 49.628 0 0 1-13.397 5.888c-43.179 11.861-138.496 14.336-291.243-138.496S1.649 112.014 13.511 68.835a49.628 49.628 0 0 1 5.888-13.397c.341-.256.683-.427 1.024-.683l43.349-26.027c9.899-5.927 22.707-3.035 29.099 6.571l37.632 56.32 31.488 47.275c6.15 9.464 4.12 22.049-4.693 29.099l-28.587 22.187-10.24 7.936c-8.382 6.52-10.803 18.155-5.717 27.477 11.435 20.48 22.187 44.629 75.605 98.133s77.653 64.171 98.133 75.605c9.323 5.086 20.957 2.665 27.477-5.717l7.936-10.24 22.187-28.587c7.05-8.814 19.635-10.843 29.099-4.693l48.725 32.512 54.869 36.608c9.606 6.391 12.498 19.2 6.571 29.098z" fill="#8bc34a"/><path d="M405.413 512.056a151.181 151.181 0 0 0 40.107-5.239 61.079 61.079 0 0 0 36.181-27.878l26.061-43.315c8.301-13.791 4.282-31.672-9.122-40.585l-103.646-69.12c-13.153-8.701-30.785-5.838-40.508 6.579l-30.191 38.818a12.904 12.904 0 0 1-16.546 3.482l-5.743-3.166c-19.038-10.377-42.726-23.296-90.453-71.04-47.727-47.744-60.672-71.45-71.049-90.453l-3.149-5.743a12.92 12.92 0 0 1 3.413-16.606l38.793-30.182c12.412-9.725 15.279-27.351 6.588-40.508l-69.12-103.646C108.12.056 90.25-3.966 76.461 4.323L33.12 30.358A61.136 61.136 0 0 0 5.242 66.539c-15.607 56.866-3.866 155.008 140.706 299.597 115.004 114.995 200.619 145.92 259.465 145.92zM21.703 71.054a44.17 44.17 0 0 1 20.198-26.061l43.341-26.001c5.983-3.6 13.739-1.855 17.604 3.959l37.547 56.371 31.514 47.266c3.774 5.707 2.534 13.356-2.85 17.579l-38.801 30.182c-11.808 9.029-15.18 25.366-7.91 38.332l3.081 5.598c10.906 20.002 24.465 44.885 73.967 94.379s74.377 63.053 94.37 73.958l5.606 3.089c12.966 7.269 29.303 3.898 38.332-7.91l30.182-38.801c4.224-5.381 11.87-6.62 17.579-2.85l103.637 69.12c5.819 3.863 7.564 11.622 3.959 17.604l-26.001 43.341a44.106 44.106 0 0 1-26.027 20.173c-52.497 14.413-144.213 2.475-283.008-136.32S7.29 123.559 21.703 71.054zM290.161 85.39c80.081.089 144.977 64.986 145.067 145.067a8.533 8.533 0 0 0 17.066 0c-.099-89.503-72.631-162.035-162.133-162.133a8.533 8.533 0 0 0 0 17.066z"/><path d="M290.161 136.59c51.816.061 93.806 42.051 93.867 93.867a8.533 8.533 0 0 0 17.066 0c-.071-61.238-49.696-110.863-110.933-110.933a8.533 8.533 0 0 0 0 17.066z"/><path d="M290.161 187.79c23.552.028 42.638 19.114 42.667 42.667a8.533 8.533 0 0 0 17.066 0c-.038-32.974-26.759-59.696-59.733-59.733a8.533 8.533 0 0 0 0 17.066z"/></svg>