<svg xmlns="http://www.w3.org/2000/svg" viewBox="0 0 511.997 511.997"><path d="M157.897 185.906a7.499 7.499 0 0 0-10.549 1.101c-3.03 3.736-7.047 5.793-11.313 5.793-4.266 0-8.283-2.058-11.313-5.793a7.5 7.5 0 0 0-11.65 9.448c5.847 7.21 14.217 11.345 22.963 11.345s17.115-4.135 22.963-11.345a7.5 7.5 0 0 0-1.101-10.549zM101.759 141.386a7.5 7.5 0 0 0-7.5 7.5v8.569a7.5 7.5 0 0 0 15 0v-8.569a7.5 7.5 0 0 0-7.5-7.5zM170.311 141.386a7.5 7.5 0 0 0-7.5 7.5v8.569a7.5 7.5 0 0 0 15 0v-8.569a7.5 7.5 0 0 0-7.5-7.5zM406.397 228.75a7.499 7.499 0 0 0-10.549 1.101c-3.03 3.735-7.048 5.793-11.313 5.793-4.266 0-8.283-2.058-11.313-5.793a7.5 7.5 0 1 0-11.649 9.448c5.846 7.211 14.216 11.345 22.962 11.345s17.115-4.135 22.962-11.345a7.5 7.5 0 0 0-1.1-10.549zM350.259 184.231a7.5 7.5 0 0 0-7.5 7.5v8.569a7.5 7.5 0 0 0 15 0v-8.569a7.5 7.5 0 0 0-7.5-7.5zM418.811 184.231a7.5 7.5 0 0 0-7.5 7.5v8.569a7.5 7.5 0 0 0 15 0v-8.569a7.5 7.5 0 0 0-7.5-7.5z"/><path d="M491.126 332.545l-58.757-23.503c-.318-.127-.612-.289-.91-.445 40.583-9.234 59.803-24.676 60.656-25.375a7.5 7.5 0 0 0 2.671-6.862c-.085-.594-8.494-60.135-8.494-118.904 0-56.11-45.649-101.759-101.759-101.759s-101.758 45.648-101.758 101.759c0 15.374-.698 34.178-1.834 51.979l-16.373 8.187-48.06-24.029c-.138-.069-.283-.119-.424-.179a84.013 84.013 0 0 0 4.33-20.98c10.053-3.106 17.378-12.487 17.378-23.547 0-7.449-3.328-14.131-8.569-18.653v-49.9c0-13.785-6.965-26.683-18.387-34.433-3.87-14.38-16.79-24.481-31.958-24.481h-68.552c-37.21 0-67.483 30.273-67.483 67.483v41.33c-5.241 4.521-8.569 11.204-8.569 18.653 0 11.06 7.325 20.441 17.378 23.547 1.894 25.179 14.87 47.302 34.036 61.54v20.73L23.664 273.31C9.51 277.557 0 290.338 0 305.116v83.701a7.5 7.5 0 0 0 7.5 7.5h1.069v86.759a7.5 7.5 0 0 0 15 0v-86.759h27.845v86.759a7.5 7.5 0 0 0 15 0v-129.32a33.104 33.104 0 0 0-5.577-18.42l-12.82-19.23a7.5 7.5 0 0 0-12.48 8.32l12.82 19.231c2 3 3.058 6.492 3.058 10.099v27.561H15v-76.201c0-8.103 5.214-15.11 12.976-17.439l25.747-7.724c8.966 37.542 43.017 64.95 82.312 64.95 14.117 0 27.827-3.481 40.104-10.105 4.487 6.121 11.724 10.105 19.878 10.105h1.069v1.069c0 25.143 13.832 47.103 34.276 58.712v12.233c0 .46-.294.868-.731 1.014l-27.977 9.326a33.165 33.165 0 0 0-22.706 31.503v24.316a7.5 7.5 0 0 0 15 0V458.76a18.182 18.182 0 0 1 12.449-17.272l8.227-2.743c10.884 16.232 29.189 26.125 48.944 26.125a58.897 58.897 0 0 0 48.946-26.124l8.225 2.742a18.183 18.183 0 0 1 12.449 17.272v24.316a7.5 7.5 0 0 0 15 0V458.76a33.163 33.163 0 0 0-22.706-31.502l-27.977-9.326a1.068 1.068 0 0 1-.731-1.014v-12.233c15.307-8.692 26.893-23.188 31.753-40.481 14.173 14.83 33.968 23.546 55.005 23.546 33.212 0 62.353-21.469 72.391-52.728l28.629 11.451c6.953 2.781 11.445 9.417 11.445 16.904v35.079h-27.845v-9.638a7.5 7.5 0 0 0-15 0v94.259a7.5 7.5 0 0 0 15 0v-69.621h19.276v69.621a7.5 7.5 0 0 0 15 0v-69.621h1.069a7.502 7.502 0 0 0 7.5-7.5v-42.579c.003-13.658-8.19-25.76-20.871-30.832zm-193.35-175.09c0-47.839 38.92-86.759 86.759-86.759s86.758 38.92 86.758 86.759c0 50.363 6.065 101.274 8.036 116.479-6.721 4.397-23.929 14.081-53.018 20.445v-11.935a83.976 83.976 0 0 0 11.384-7.733c14.758-11.929 25.187-28.636 29.363-47.042a85.062 85.062 0 0 0 2.098-18.799c0-42.391-30.657-48.477-60.305-54.363-18.865-3.745-38.372-7.618-53.906-20.045a7.5 7.5 0 0 0-12.185 5.857c0 .199-.327 19.933-28.595 27a7.5 7.5 0 0 0 3.638 14.553c23.66-5.915 33.312-19.188 37.248-29.16 16.264 9.638 34.483 13.254 50.879 16.509 31.689 6.291 48.226 10.912 48.226 39.65 0 5.226-.581 10.434-1.726 15.48-3.435 15.134-12.016 28.876-24.165 38.696-12.5 10.104-27.622 15.444-43.73 15.444-14.684 0-28.659-4.504-40.519-13.015a84.746 84.746 0 0 0-20.533-31.649v-33.525a7.499 7.499 0 0 0-10.854-6.708l-16.193 8.096c.888-15.619 1.34-30.469 1.34-44.235zm10.707 54.98v27.143l-27.144-13.571 27.144-13.572zm-87.828 0l27.143 13.572-27.143 13.571v-27.143zm-40.707 82.123v7.123c-5.37 4.637-8.569 11.423-8.569 18.583-10.682 6.311-22.817 9.639-35.345 9.639-32.624 0-60.849-22.958-67.91-54.27l18.529-5.559c4.571 23.088 24.972 40.553 49.382 40.553 19.383 0 36.231-11.017 44.641-27.112a84.332 84.332 0 0 0-.728 11.043zM100.69 260.27v-17.373c10.762 4.97 22.734 7.747 35.345 7.747a84.118 84.118 0 0 0 35.345-7.746v17.383c0 19.489-15.855 35.345-35.345 35.345-19.457 0-35.29-15.804-35.343-35.249l-.002-.107zm35.345-24.626c-38.39 0-69.621-31.231-69.621-69.62a7.5 7.5 0 0 0-7.5-7.5c-5.314 0-9.638-4.324-9.638-9.638s4.323-9.638 9.638-9.638h17.138a7.5 7.5 0 0 0 7.115-5.128l6.884-20.652c17.235-.389 70.664-2.812 100.751-17.856a7.5 7.5 0 0 0 3.354-10.062 7.499 7.499 0 0 0-10.062-3.354c-32.281 16.14-98.807 16.346-99.475 16.346a7.5 7.5 0 0 0-7.114 5.129l-6.859 20.578H58.914c-.358 0-.714.012-1.069.027V88.903c0-28.939 23.544-52.483 52.483-52.483h68.552c8.956 0 16.48 6.455 17.893 15.347a7.5 7.5 0 0 0 3.723 5.356c8.468 4.776 13.729 13.669 13.729 23.21v43.941c-.355-.016-.71-.027-1.069-.027h-8.569a7.5 7.5 0 0 0 0 15h8.569c5.314 0 9.638 4.323 9.638 9.638s-4.323 9.638-9.638 9.638a7.5 7.5 0 0 0-7.5 7.5c0 38.389-31.231 69.621-69.621 69.621zm50.344 24.639v-26.31a85.303 85.303 0 0 0 19.276-19.928v19.781a84.739 84.739 0 0 0-19.329 28.543c.029-.693.053-1.387.053-2.086zm112.169 173.473c-8.257 10.087-20.661 16.113-33.979 16.113-13.302 0-25.714-6.03-33.974-16.114l4.78-1.593a16.048 16.048 0 0 0 10.988-15.244v-5.978a67.26 67.26 0 0 0 18.207 2.516 67.26 67.26 0 0 0 18.207-2.516v5.978a16.044 16.044 0 0 0 10.987 15.243l4.784 1.595zm26.005-103.853a7.5 7.5 0 0 0-7.5 7.5v8.569c-.001 28.939-23.545 52.483-52.484 52.483s-52.482-23.544-52.482-52.483v-8.569a7.5 7.5 0 0 0-7.5-7.5h-8.569c-5.314 0-9.638-4.323-9.638-9.638 0-3.42 1.81-6.515 4.841-8.279a7.455 7.455 0 0 0 1.776-1.457c18.54-.537 78.639-4.026 118.138-26.597a7.5 7.5 0 0 0-7.442-13.024c-34.602 19.772-88.974 23.731-108.744 24.522v-.872c0-13.949 4.224-27.458 11.878-38.847a7.467 7.467 0 0 0 2.386 2.382 7.501 7.501 0 0 0 7.297.328l48.06-24.03 48.06 24.03a7.502 7.502 0 0 0 7.297-.328 7.484 7.484 0 0 0 2.385-2.382c7.654 11.389 11.878 24.898 11.878 38.847v10.946a7.498 7.498 0 0 0 3.728 6.482c3.032 1.765 4.842 4.859 4.842 8.279 0 5.314-4.324 9.638-9.638 9.638h-8.569zm59.982 42.845c-20.764 0-40.028-10.571-51.242-27.849 13.506-.093 24.466-11.106 24.466-24.633 0-7.16-3.199-13.947-8.569-18.584v-7.123c0-3.019-.163-6.021-.482-8.995 11.121 5.214 23.263 7.925 35.827 7.925 9.145 0 18.189-1.515 26.776-4.379v10.983c0 10.133 6.079 19.113 15.487 22.876l16.173 6.469c-7.751 25.628-31.421 43.31-58.436 43.31z"/><path d="M286.432 357.285a7.499 7.499 0 0 0-10.549 1.101c-3.031 3.736-7.048 5.793-11.313 5.793-4.265 0-8.283-2.057-11.313-5.793a7.5 7.5 0 0 0-11.65 9.448c5.848 7.209 14.217 11.345 22.963 11.345s17.115-4.135 22.963-11.344a7.503 7.503 0 0 0-1.101-10.55z"/><circle cx="239" cy="328.868" r="7.5"/><circle cx="290" cy="328.868" r="7.5"/></svg>