<svg width="13" height="13" fill="none" xmlns="http://www.w3.org/2000/svg"><path d="M6.5 0C3.98 0 1.93 2.05 1.93 4.57c0 .852.236 1.683.682 2.404L6.24 12.82a.38.38 0 00.323.18h.003a.38.38 0 00.324-.185l3.536-5.903a4.565 4.565 0 00.644-2.342C11.07 2.05 9.02 0 6.5 0zm3.272 6.52l-3.214 5.367-3.299-5.315a3.804 3.804 0 01-.573-2.002C2.686 2.47 4.4.757 6.5.757a3.82 3.82 0 013.811 3.813c0 .689-.188 1.363-.539 1.95z" fill="#9B9B9B"/><path d="M6.5 2.285A2.288 2.288 0 004.215 4.57 2.282 2.282 0 006.5 6.855 2.28 2.28 0 008.785 4.57 2.288 2.288 0 006.5 2.285zm0 3.814A1.53 1.53 0 014.971 4.57c0-.84.689-1.528 1.529-1.528s1.526.688 1.526 1.528C8.026 5.4 7.358 6.1 6.5 6.1z" fill="#9B9B9B"/></svg>