<svg width="16" height="14" fill="none" xmlns="http://www.w3.org/2000/svg"><path d="M14.533 6.064h.5v-.139l-.071-.119-.429.258zm-13.066 0l-.429-.258-.071.119v.139h.5zM3.45 2.759L3.022 2.5l.429.258zm9.098 0l.429-.258-.429.258zm-8.282 7.974v-.5h-.5v.5h.5zm7.466 0h.5v-.5h-.5v.5zm2.3-4.67v5.604h1V6.064h-1zm-12.138.258L3.88 3.016l-.858-.515-1.984 3.305.857.515zM5.851 1.9h4.298v-1H5.85v1zm6.27 1.116l1.984 3.305.857-.515-1.984-3.305-.858.515zM3.332 12.1H2.4v1h.933v-1zm.434-1.367v.934h1v-.934h-1zM13.6 12.1h-.933v1h.933v-1zm-1.367-.433v-.934h-1v.934h1zm-.5-1.434H4.267v1h7.466v-1zm-9.766 1.434V6.064h-1v5.603h1zm10.7.433a.433.433 0 01-.434-.433h-1c0 .791.642 1.433 1.434 1.433v-1zm-9.334 1c.792 0 1.434-.642 1.434-1.433h-1c0 .239-.194.433-.434.433v1zm-.933-1a.433.433 0 01-.433-.433h-1c0 .791.641 1.433 1.433 1.433v-1zm7.748-10.2a2.3 2.3 0 011.972 1.116l.858-.515A3.3 3.3 0 0010.148.9v1zM3.88 3.016A2.3 2.3 0 015.85 1.9v-1a3.3 3.3 0 00-2.829 1.601l.858.515zm10.153 8.65c0 .24-.194.434-.433.434v1c.792 0 1.433-.642 1.433-1.433h-1zm-11.166-2.3h2.8v-1h-2.8v1zm10.266-1h-2.8v1h2.8v-1zM3.8 6.567h8.4v-1H3.8v1z" fill="#FF0D29"/></svg>